<?xml version="1.0" encoding="utf-8" standalone="no"?>
<!DOCTYPE svg PUBLIC "-//W3C//DTD SVG 1.1//EN"
  "http://www.w3.org/Graphics/SVG/1.1/DTD/svg11.dtd">
<svg xmlns:xlink="http://www.w3.org/1999/xlink" width="319.060668pt" height="194.447638pt" viewBox="0 0 319.060668 194.447638" xmlns="http://www.w3.org/2000/svg" version="1.1">
 <metadata>
  <rdf:RDF xmlns:dc="http://purl.org/dc/elements/1.1/" xmlns:cc="http://creativecommons.org/ns#" xmlns:rdf="http://www.w3.org/1999/02/22-rdf-syntax-ns#">
   <cc:Work>
    <dc:type rdf:resource="http://purl.org/dc/dcmitype/StillImage"/>
    <dc:date>2025-03-02T20:26:00.273965</dc:date>
    <dc:format>image/svg+xml</dc:format>
    <dc:creator>
     <cc:Agent>
      <dc:title>Matplotlib v3.8.3, https://matplotlib.org/</dc:title>
     </cc:Agent>
    </dc:creator>
   </cc:Work>
  </rdf:RDF>
 </metadata>
 <defs>
  <style type="text/css">*{stroke-linejoin: round; stroke-linecap: butt}</style>
 </defs>
 <g id="figure_1">
  <g id="patch_1">
   <path d="M -0 194.447638 
L 319.060668 194.447638 
L 319.060668 0 
L -0 0 
L -0 194.447638 
z
" style="fill: none"/>
  </g>
  <g id="axes_1">
   <g id="patch_2">
    <path d="M 37.2 161.615138 
L 147.04252 161.615138 
L 147.04252 28.471831 
L 37.2 28.471831 
L 37.2 161.615138 
z
" style="fill: none"/>
   </g>
   <g id="PathCollection_1">
    <path d="M 43.324643 137.065518 
C 44.262277 137.065518 45.161635 136.692992 45.824643 136.029985 
C 46.48765 135.366977 46.860177 134.467619 46.860177 133.529985 
C 46.860177 132.59235 46.48765 131.692992 45.824643 131.029985 
C 45.161635 130.366977 44.262277 129.994451 43.324643 129.994451 
C 42.387008 129.994451 41.48765 130.366977 40.824643 131.029985 
C 40.161635 131.692992 39.789109 132.59235 39.789109 133.529985 
C 39.789109 134.467619 40.161635 135.366977 40.824643 136.029985 
C 41.48765 136.692992 42.387008 137.065518 43.324643 137.065518 
z
" clip-path="url(#pe7848c1b08)" style="fill: #820263; stroke: #ffffff; stroke-width: 0.565685"/>
    <path d="M 42.192842 159.098703 
C 43.130476 159.098703 44.029834 158.726177 44.692842 158.063169 
C 45.35585 157.400162 45.728376 156.500804 45.728376 155.563169 
C 45.728376 154.625535 45.35585 153.726177 44.692842 153.063169 
C 44.029834 152.400162 43.130476 152.027635 42.192842 152.027635 
C 41.255207 152.027635 40.35585 152.400162 39.692842 153.063169 
C 39.029834 153.726177 38.657308 154.625535 38.657308 155.563169 
C 38.657308 156.500804 39.029834 157.400162 39.692842 158.063169 
C 40.35585 158.726177 41.255207 159.098703 42.192842 159.098703 
z
" clip-path="url(#pe7848c1b08)" style="fill: #820263; stroke: #ffffff; stroke-width: 0.565685"/>
    <path d="M 84.1716 65.418884 
C 85.109234 65.418884 86.008592 65.046358 86.6716 64.38335 
C 87.334607 63.720343 87.707134 62.820985 87.707134 61.88335 
C 87.707134 60.945716 87.334607 60.046358 86.6716 59.38335 
C 86.008592 58.720343 85.109234 58.347816 84.1716 58.347816 
C 83.233965 58.347816 82.334607 58.720343 81.6716 59.38335 
C 81.008592 60.046358 80.636066 60.945716 80.636066 61.88335 
C 80.636066 62.820985 81.008592 63.720343 81.6716 64.38335 
C 82.334607 65.046358 83.233965 65.418884 84.1716 65.418884 
z
" clip-path="url(#pe7848c1b08)" style="fill: #fb8b24; stroke: #ffffff; stroke-width: 0.565685"/>
    <path d="M 84.610576 82.479929 
C 85.54821 82.479929 86.447568 82.107402 87.110576 81.444395 
C 87.773583 80.781387 88.14611 79.882029 88.14611 78.944395 
C 88.14611 78.00676 87.773583 77.107402 87.110576 76.444395 
C 86.447568 75.781387 85.54821 75.408861 84.610576 75.408861 
C 83.672941 75.408861 82.773583 75.781387 82.110576 76.444395 
C 81.447568 77.107402 81.075042 78.00676 81.075042 78.944395 
C 81.075042 79.882029 81.447568 80.781387 82.110576 81.444395 
C 82.773583 82.107402 83.672941 82.479929 84.610576 82.479929 
z
" clip-path="url(#pe7848c1b08)" style="fill: #fb8b24; stroke: #ffffff; stroke-width: 0.565685"/>
    <path d="M 90.291454 60.863948 
C 91.229089 60.863948 92.128447 60.491422 92.791454 59.828414 
C 93.454462 59.165406 93.826988 58.266048 93.826988 57.328414 
C 93.826988 56.390779 93.454462 55.491422 92.791454 54.828414 
C 92.128447 54.165406 91.229089 53.79288 90.291454 53.79288 
C 89.35382 53.79288 88.454462 54.165406 87.791454 54.828414 
C 87.128447 55.491422 86.75592 56.390779 86.75592 57.328414 
C 86.75592 58.266048 87.128447 59.165406 87.791454 59.828414 
C 88.454462 60.491422 89.35382 60.863948 90.291454 60.863948 
z
" clip-path="url(#pe7848c1b08)" style="fill: #fb8b24; stroke: #ffffff; stroke-width: 0.565685"/>
    <path d="M 86.797825 71.747337 
C 87.73546 71.747337 88.634817 71.374811 89.297825 70.711803 
C 89.960833 70.048795 90.333359 69.149438 90.333359 68.211803 
C 90.333359 67.274168 89.960833 66.374811 89.297825 65.711803 
C 88.634817 65.048795 87.73546 64.676269 86.797825 64.676269 
C 85.86019 64.676269 84.960833 65.048795 84.297825 65.711803 
C 83.634817 66.374811 83.262291 67.274168 83.262291 68.211803 
C 83.262291 69.149438 83.634817 70.048795 84.297825 70.711803 
C 84.960833 71.374811 85.86019 71.747337 86.797825 71.747337 
z
" clip-path="url(#pe7848c1b08)" style="fill: #fb8b24; stroke: #ffffff; stroke-width: 0.565685"/>
    <path d="M 88.13836 54.631628 
C 89.075994 54.631628 89.975352 54.259102 90.63836 53.596094 
C 91.301367 52.933086 91.673894 52.033729 91.673894 51.096094 
C 91.673894 50.15846 91.301367 49.259102 90.63836 48.596094 
C 89.975352 47.933086 89.075994 47.56056 88.13836 47.56056 
C 87.200725 47.56056 86.301367 47.933086 85.63836 48.596094 
C 84.975352 49.259102 84.602826 50.15846 84.602826 51.096094 
C 84.602826 52.033729 84.975352 52.933086 85.63836 53.596094 
C 86.301367 54.259102 87.200725 54.631628 88.13836 54.631628 
z
" clip-path="url(#pe7848c1b08)" style="fill: #fb8b24; stroke: #ffffff; stroke-width: 0.565685"/>
    <path d="M 49.946883 41.807273 
C 50.884517 41.807273 51.783875 41.434747 52.446883 40.771739 
C 53.109891 40.108731 53.482417 39.209374 53.482417 38.271739 
C 53.482417 37.334104 53.109891 36.434747 52.446883 35.771739 
C 51.783875 35.108731 50.884517 34.736205 49.946883 34.736205 
C 49.009248 34.736205 48.109891 35.108731 47.446883 35.771739 
C 46.783875 36.434747 46.411349 37.334104 46.411349 38.271739 
C 46.411349 39.209374 46.783875 40.108731 47.446883 40.771739 
C 48.109891 41.434747 49.009248 41.807273 49.946883 41.807273 
z
" clip-path="url(#pe7848c1b08)" style="fill: #04a777; stroke: #ffffff; stroke-width: 0.565685"/>
    <path d="M 52.299488 43.970672 
C 53.237122 43.970672 54.13648 43.598146 54.799488 42.935138 
C 55.462496 42.27213 55.835022 41.372772 55.835022 40.435138 
C 55.835022 39.497503 55.462496 38.598146 54.799488 37.935138 
C 54.13648 37.27213 53.237122 36.899604 52.299488 36.899604 
C 51.361853 36.899604 50.462496 37.27213 49.799488 37.935138 
C 49.13648 38.598146 48.763954 39.497503 48.763954 40.435138 
C 48.763954 41.372772 49.13648 42.27213 49.799488 42.935138 
C 50.462496 43.598146 51.361853 43.970672 52.299488 43.970672 
z
" clip-path="url(#pe7848c1b08)" style="fill: #04a777; stroke: #ffffff; stroke-width: 0.565685"/>
    <path d="M 55.776206 38.059333 
C 56.713841 38.059333 57.613198 37.686807 58.276206 37.023799 
C 58.939214 36.360791 59.31174 35.461434 59.31174 34.523799 
C 59.31174 33.586165 58.939214 32.686807 58.276206 32.023799 
C 57.613198 31.360791 56.713841 30.988265 55.776206 30.988265 
C 54.838572 30.988265 53.939214 31.360791 53.276206 32.023799 
C 52.613198 32.686807 52.240672 33.586165 52.240672 34.523799 
C 52.240672 35.461434 52.613198 36.360791 53.276206 37.023799 
C 53.939214 37.686807 54.838572 38.059333 55.776206 38.059333 
z
" clip-path="url(#pe7848c1b08)" style="fill: #04a777; stroke: #ffffff; stroke-width: 0.565685"/>
    <path d="M 67.973595 142.846196 
L 69.741362 141.078429 
L 71.509129 142.846196 
L 73.276896 141.078429 
L 71.509129 139.310662 
L 73.276896 137.542895 
L 71.509129 135.775128 
L 69.741362 137.542895 
L 67.973595 135.775128 
L 66.205828 137.542895 
L 67.973595 139.310662 
L 66.205828 141.078429 
z
" clip-path="url(#pe7848c1b08)" style="fill: #820263; stroke: #ffffff; stroke-width: 0.565685"/>
    <path d="M 68.407101 137.392177 
L 70.174867 135.62441 
L 71.942634 137.392177 
L 73.710401 135.62441 
L 71.942634 133.856643 
L 73.710401 132.088876 
L 71.942634 130.321109 
L 70.174867 132.088876 
L 68.407101 130.321109 
L 66.639334 132.088876 
L 68.407101 133.856643 
L 66.639334 135.62441 
z
" clip-path="url(#pe7848c1b08)" style="fill: #820263; stroke: #ffffff; stroke-width: 0.565685"/>
    <path d="M 116.139988 114.939864 
L 117.907755 113.172097 
L 119.675522 114.939864 
L 121.443289 113.172097 
L 119.675522 111.40433 
L 121.443289 109.636563 
L 119.675522 107.868796 
L 117.907755 109.636563 
L 116.139988 107.868796 
L 114.372221 109.636563 
L 116.139988 111.40433 
L 114.372221 113.172097 
z
" clip-path="url(#pe7848c1b08)" style="fill: #fb8b24; stroke: #ffffff; stroke-width: 0.565685"/>
    <path d="M 112.684879 97.323394 
L 114.452646 95.555627 
L 116.220413 97.323394 
L 117.98818 95.555627 
L 116.220413 93.78786 
L 117.98818 92.020093 
L 116.220413 90.252326 
L 114.452646 92.020093 
L 112.684879 90.252326 
L 110.917112 92.020093 
L 112.684879 93.78786 
L 110.917112 95.555627 
z
" clip-path="url(#pe7848c1b08)" style="fill: #fb8b24; stroke: #ffffff; stroke-width: 0.565685"/>
    <path d="M 125.875222 98.783373 
L 127.642989 97.015606 
L 129.410755 98.783373 
L 131.178522 97.015606 
L 129.410755 95.247839 
L 131.178522 93.480072 
L 129.410755 91.712305 
L 127.642989 93.480072 
L 125.875222 91.712305 
L 124.107455 93.480072 
L 125.875222 95.247839 
L 124.107455 97.015606 
z
" clip-path="url(#pe7848c1b08)" style="fill: #fb8b24; stroke: #ffffff; stroke-width: 0.565685"/>
    <path d="M 112.167148 91.428529 
L 113.934915 89.660762 
L 115.702682 91.428529 
L 117.470449 89.660762 
L 115.702682 87.892995 
L 117.470449 86.125228 
L 115.702682 84.357461 
L 113.934915 86.125228 
L 112.167148 84.357461 
L 110.399381 86.125228 
L 112.167148 87.892995 
L 110.399381 89.660762 
z
" clip-path="url(#pe7848c1b08)" style="fill: #fb8b24; stroke: #ffffff; stroke-width: 0.565685"/>
    <path d="M 121.780787 109.401818 
L 123.548554 107.634051 
L 125.316321 109.401818 
L 127.084088 107.634051 
L 125.316321 105.866284 
L 127.084088 104.098517 
L 125.316321 102.33075 
L 123.548554 104.098517 
L 121.780787 102.33075 
L 120.01302 104.098517 
L 121.780787 105.866284 
L 120.01302 107.634051 
z
" clip-path="url(#pe7848c1b08)" style="fill: #fb8b24; stroke: #ffffff; stroke-width: 0.565685"/>
    <path d="M 126.020879 86.653118 
L 127.788646 84.885351 
L 129.556413 86.653118 
L 131.32418 84.885351 
L 129.556413 83.117584 
L 131.32418 81.349817 
L 129.556413 79.582051 
L 127.788646 81.349817 
L 126.020879 79.582051 
L 124.253112 81.349817 
L 126.020879 83.117584 
L 124.253112 84.885351 
z
" clip-path="url(#pe7848c1b08)" style="fill: #04a777; stroke: #ffffff; stroke-width: 0.565685"/>
    <path d="M 140.281911 90.406442 
L 142.049678 88.638676 
L 143.817445 90.406442 
L 145.585212 88.638676 
L 143.817445 86.870909 
L 145.585212 85.103142 
L 143.817445 83.335375 
L 142.049678 85.103142 
L 140.281911 83.335375 
L 138.514144 85.103142 
L 140.281911 86.870909 
L 138.514144 88.638676 
z
" clip-path="url(#pe7848c1b08)" style="fill: #04a777; stroke: #ffffff; stroke-width: 0.565685"/>
    <path d="M 134.680819 89.939727 
L 136.448586 88.17196 
L 138.216353 89.939727 
L 139.984119 88.17196 
L 138.216353 86.404193 
L 139.984119 84.636426 
L 138.216353 82.86866 
L 136.448586 84.636426 
L 134.680819 82.86866 
L 132.913052 84.636426 
L 134.680819 86.404193 
L 132.913052 88.17196 
z
" clip-path="url(#pe7848c1b08)" style="fill: #04a777; stroke: #ffffff; stroke-width: 0.565685"/>
   </g>
   <g id="PathCollection_2"/>
   <g id="PathCollection_3"/>
   <g id="PathCollection_4"/>
   <g id="PathCollection_5"/>
   <g id="PathCollection_6"/>
   <g id="matplotlib.axis_1">
    <g id="xtick_1">
     <g id="line2d_1">
      <defs>
       <path id="m12fdc3f851" d="M 0 0 
L 0 3.5 
" style="stroke: #000000; stroke-width: 0.8"/>
      </defs>
      <g>
       <use xlink:href="#m12fdc3f851" x="45.663187" y="161.615138" style="stroke: #000000; stroke-width: 0.8"/>
      </g>
     </g>
     <g id="text_1">
      <text style="font: 8px 'arial'; text-anchor: middle" x="45.663187" y="174.341388" transform="rotate(-0 45.663187 174.341388)">−10</text>
     </g>
    </g>
    <g id="xtick_2">
     <g id="line2d_2">
      <g>
       <use xlink:href="#m12fdc3f851" x="91.061994" y="161.615138" style="stroke: #000000; stroke-width: 0.8"/>
      </g>
     </g>
     <g id="text_2">
      <text style="font: 8px 'arial'; text-anchor: middle" x="91.061994" y="174.341388" transform="rotate(-0 91.061994 174.341388)">0</text>
     </g>
    </g>
    <g id="xtick_3">
     <g id="line2d_3">
      <g>
       <use xlink:href="#m12fdc3f851" x="136.4608" y="161.615138" style="stroke: #000000; stroke-width: 0.8"/>
      </g>
     </g>
     <g id="text_3">
      <text style="font: 8px 'arial'; text-anchor: middle" x="136.4608" y="174.341388" transform="rotate(-0 136.4608 174.341388)">10</text>
     </g>
    </g>
    <g id="text_4">
     <text style="font: 8px 'arial'; text-anchor: middle" x="92.12126" y="185.657638" transform="rotate(-0 92.12126 185.657638)">Dimension 1</text>
    </g>
   </g>
   <g id="matplotlib.axis_2">
    <g id="ytick_1">
     <g id="line2d_4">
      <defs>
       <path id="m1be8115c58" d="M 0 0 
L -3.5 0 
" style="stroke: #000000; stroke-width: 0.8"/>
      </defs>
      <g>
       <use xlink:href="#m1be8115c58" x="37.2" y="158.239441" style="stroke: #000000; stroke-width: 0.8"/>
      </g>
     </g>
     <g id="text_5">
      <text style="font: 8px 'arial'; text-anchor: end" x="30.2" y="161.102566" transform="rotate(-0 30.2 161.102566)">−8</text>
     </g>
    </g>
    <g id="ytick_2">
     <g id="line2d_5">
      <g>
       <use xlink:href="#m1be8115c58" x="37.2" y="140.473921" style="stroke: #000000; stroke-width: 0.8"/>
      </g>
     </g>
     <g id="text_6">
      <text style="font: 8px 'arial'; text-anchor: end" x="30.2" y="143.337046" transform="rotate(-0 30.2 143.337046)">−6</text>
     </g>
    </g>
    <g id="ytick_3">
     <g id="line2d_6">
      <g>
       <use xlink:href="#m1be8115c58" x="37.2" y="122.7084" style="stroke: #000000; stroke-width: 0.8"/>
      </g>
     </g>
     <g id="text_7">
      <text style="font: 8px 'arial'; text-anchor: end" x="30.2" y="125.571525" transform="rotate(-0 30.2 125.571525)">−4</text>
     </g>
    </g>
    <g id="ytick_4">
     <g id="line2d_7">
      <g>
       <use xlink:href="#m1be8115c58" x="37.2" y="104.94288" style="stroke: #000000; stroke-width: 0.8"/>
      </g>
     </g>
     <g id="text_8">
      <text style="font: 8px 'arial'; text-anchor: end" x="30.2" y="107.806005" transform="rotate(-0 30.2 107.806005)">−2</text>
     </g>
    </g>
    <g id="ytick_5">
     <g id="line2d_8">
      <g>
       <use xlink:href="#m1be8115c58" x="37.2" y="87.177359" style="stroke: #000000; stroke-width: 0.8"/>
      </g>
     </g>
     <g id="text_9">
      <text style="font: 8px 'arial'; text-anchor: end" x="30.2" y="90.040484" transform="rotate(-0 30.2 90.040484)">0</text>
     </g>
    </g>
    <g id="ytick_6">
     <g id="line2d_9">
      <g>
       <use xlink:href="#m1be8115c58" x="37.2" y="69.411839" style="stroke: #000000; stroke-width: 0.8"/>
      </g>
     </g>
     <g id="text_10">
      <text style="font: 8px 'arial'; text-anchor: end" x="30.2" y="72.274964" transform="rotate(-0 30.2 72.274964)">2</text>
     </g>
    </g>
    <g id="ytick_7">
     <g id="line2d_10">
      <g>
       <use xlink:href="#m1be8115c58" x="37.2" y="51.646318" style="stroke: #000000; stroke-width: 0.8"/>
      </g>
     </g>
     <g id="text_11">
      <text style="font: 8px 'arial'; text-anchor: end" x="30.2" y="54.509443" transform="rotate(-0 30.2 54.509443)">4</text>
     </g>
    </g>
    <g id="ytick_8">
     <g id="line2d_11">
      <g>
       <use xlink:href="#m1be8115c58" x="37.2" y="33.880798" style="stroke: #000000; stroke-width: 0.8"/>
      </g>
     </g>
     <g id="text_12">
      <text style="font: 8px 'arial'; text-anchor: end" x="30.2" y="36.743923" transform="rotate(-0 30.2 36.743923)">6</text>
     </g>
    </g>
    <g id="text_13">
     <text style="font: 8px 'arial'; text-anchor: middle" x="15.48875" y="95.043484" transform="rotate(-90 15.48875 95.043484)">Dimension 2</text>
    </g>
   </g>
   <g id="patch_3">
    <path d="M 37.2 161.615138 
L 37.2 28.471831 
" style="fill: none; stroke: #000000; stroke-width: 0.8; stroke-linejoin: miter; stroke-linecap: square"/>
   </g>
   <g id="patch_4">
    <path d="M 37.2 161.615138 
L 147.04252 161.615138 
" style="fill: none; stroke: #000000; stroke-width: 0.8; stroke-linejoin: miter; stroke-linecap: square"/>
   </g>
   <g id="text_14">
    <text style="font: 700 12px 'arial'; text-anchor: start" x="7.2" y="15.789375" transform="rotate(-0 7.2 15.789375)">A</text>
   </g>
   <g id="legend_1">
    <g id="PathCollection_7">
     <defs>
      <path id="m69b15e29af" d="M 0 3 
C 0.795609 3 1.55874 2.683901 2.12132 2.12132 
C 2.683901 1.55874 3 0.795609 3 0 
C 3 -0.795609 2.683901 -1.55874 2.12132 -2.12132 
C 1.55874 -2.683901 0.795609 -3 0 -3 
C -0.795609 -3 -1.55874 -2.683901 -2.12132 -2.12132 
C -2.683901 -1.55874 -3 -0.795609 -3 0 
C -3 0.795609 -2.683901 1.55874 -2.12132 2.12132 
C -1.55874 2.683901 -0.795609 3 0 3 
z
" style="stroke: #04a777"/>
     </defs>
     <g>
      <use xlink:href="#m69b15e29af" x="49.82126" y="12.462759" style="fill: #04a777; stroke: #04a777"/>
     </g>
    </g>
    <g id="text_15">
     <text style="font: 8px 'arial'; text-anchor: start" x="57.84126" y="14.562759" transform="rotate(-0 57.84126 14.562759)">CRL</text>
    </g>
    <g id="PathCollection_8">
     <defs>
      <path id="m382a30db0d" d="M 0 3 
C 0.795609 3 1.55874 2.683901 2.12132 2.12132 
C 2.683901 1.55874 3 0.795609 3 0 
C 3 -0.795609 2.683901 -1.55874 2.12132 -2.12132 
C 1.55874 -2.683901 0.795609 -3 0 -3 
C -0.795609 -3 -1.55874 -2.683901 -2.12132 -2.12132 
C -2.683901 -1.55874 -3 -0.795609 -3 0 
C -3 0.795609 -2.683901 1.55874 -2.12132 2.12132 
C -1.55874 2.683901 -0.795609 3 0 3 
z
" style="stroke: #820263"/>
     </defs>
     <g>
      <use xlink:href="#m382a30db0d" x="83.44501" y="12.462759" style="fill: #820263; stroke: #820263"/>
     </g>
    </g>
    <g id="text_16">
     <text style="font: 8px 'arial'; text-anchor: start" x="91.46501" y="14.562759" transform="rotate(-0 91.46501 14.562759)">SOD</text>
    </g>
    <g id="PathCollection_9">
     <defs>
      <path id="m727726961d" d="M 0 3 
C 0.795609 3 1.55874 2.683901 2.12132 2.12132 
C 2.683901 1.55874 3 0.795609 3 0 
C 3 -0.795609 2.683901 -1.55874 2.12132 -2.12132 
C 1.55874 -2.683901 0.795609 -3 0 -3 
C -0.795609 -3 -1.55874 -2.683901 -2.12132 -2.12132 
C -2.683901 -1.55874 -3 -0.795609 -3 0 
C -3 0.795609 -2.683901 1.55874 -2.12132 2.12132 
C -1.55874 2.683901 -0.795609 3 0 3 
z
" style="stroke: #fb8b24"/>
     </defs>
     <g>
      <use xlink:href="#m727726961d" x="118.40126" y="12.462759" style="fill: #fb8b24; stroke: #fb8b24"/>
     </g>
    </g>
    <g id="text_17">
     <text style="font: 8px 'arial'; text-anchor: start" x="126.42126" y="14.562759" transform="rotate(-0 126.42126 14.562759)">TDP</text>
    </g>
   </g>
   <g id="legend_2">
    <g id="PathCollection_10">
     <defs>
      <path id="m6dbd7ac006" d="M 0 3 
C 0.795609 3 1.55874 2.683901 2.12132 2.12132 
C 2.683901 1.55874 3 0.795609 3 0 
C 3 -0.795609 2.683901 -1.55874 2.12132 -2.12132 
C 1.55874 -2.683901 0.795609 -3 0 -3 
C -0.795609 -3 -1.55874 -2.683901 -2.12132 -2.12132 
C -2.683901 -1.55874 -3 -0.795609 -3 0 
C -3 0.795609 -2.683901 1.55874 -2.12132 2.12132 
C -1.55874 2.683901 -0.795609 3 0 3 
z
" style="stroke: #333333"/>
     </defs>
     <g>
      <use xlink:href="#m6dbd7ac006" x="38.398135" y="21.78279" style="fill: #333333; stroke: #333333"/>
     </g>
    </g>
    <g id="text_18">
     <text style="font: 8px 'arial'; text-anchor: start" x="46.418135" y="23.88279" transform="rotate(-0 46.418135 23.88279)">Cerebellum</text>
    </g>
    <g id="PathCollection_11">
     <defs>
      <path id="mf2fe8b6cc5" d="M -1.5 3 
L 0 1.5 
L 1.5 3 
L 3 1.5 
L 1.5 0 
L 3 -1.5 
L 1.5 -3 
L 0 -1.5 
L -1.5 -3 
L -3 -1.5 
L -1.5 0 
L -3 1.5 
z
" style="stroke: #333333"/>
     </defs>
     <g>
      <use xlink:href="#mf2fe8b6cc5" x="96.921885" y="21.78279" style="fill: #333333; stroke: #333333"/>
     </g>
    </g>
    <g id="text_19">
     <text style="font: 8px 'arial'; text-anchor: start" x="104.941885" y="23.88279" transform="rotate(-0 104.941885 23.88279)">Frontal cortex</text>
    </g>
   </g>
   <g id="legend_3">
    <g id="PathCollection_12">
     <g>
      <use xlink:href="#m6dbd7ac006" x="38.398135" y="21.78279" style="fill: #333333; stroke: #333333"/>
     </g>
    </g>
    <g id="text_20">
     <text style="font: 8px 'arial'; text-anchor: start" x="46.418135" y="23.88279" transform="rotate(-0 46.418135 23.88279)">Cerebellum</text>
    </g>
    <g id="PathCollection_13">
     <g>
      <use xlink:href="#mf2fe8b6cc5" x="96.921885" y="21.78279" style="fill: #333333; stroke: #333333"/>
     </g>
    </g>
    <g id="text_21">
     <text style="font: 8px 'arial'; text-anchor: start" x="104.941885" y="23.88279" transform="rotate(-0 104.941885 23.88279)">Frontal cortex</text>
    </g>
   </g>
  </g>
  <g id="axes_2">
   <g id="patch_5">
    <path d="M 201.96378 161.615138 
L 311.806299 161.615138 
L 311.806299 28.471831 
L 201.96378 28.471831 
L 201.96378 161.615138 
z
" style="fill: none"/>
   </g>
   <g id="PathCollection_14">
    <path d="M 301.016651 115.032422 
C 301.954285 115.032422 302.853643 114.659896 303.516651 113.996888 
C 304.179658 113.33388 304.552184 112.434522 304.552184 111.496888 
C 304.552184 110.559253 304.179658 109.659896 303.516651 108.996888 
C 302.853643 108.33388 301.954285 107.961354 301.016651 107.961354 
C 300.079016 107.961354 299.179658 108.33388 298.516651 108.996888 
C 297.853643 109.659896 297.481117 110.559253 297.481117 111.496888 
C 297.481117 112.434522 297.853643 113.33388 298.516651 113.996888 
C 299.179658 114.659896 300.079016 115.032422 301.016651 115.032422 
z
" clip-path="url(#pa0db9351dd)" style="fill: #820263; stroke: #ffffff; stroke-width: 0.565685"/>
    <path d="M 297.385402 71.736507 
C 298.323036 71.736507 299.222394 71.36398 299.885402 70.700973 
C 300.548409 70.037965 300.920936 69.138607 300.920936 68.200973 
C 300.920936 67.263338 300.548409 66.36398 299.885402 65.700973 
C 299.222394 65.037965 298.323036 64.665439 297.385402 64.665439 
C 296.447767 64.665439 295.548409 65.037965 294.885402 65.700973 
C 294.222394 66.36398 293.849868 67.263338 293.849868 68.200973 
C 293.849868 69.138607 294.222394 70.037965 294.885402 70.700973 
C 295.548409 71.36398 296.447767 71.736507 297.385402 71.736507 
z
" clip-path="url(#pa0db9351dd)" style="fill: #820263; stroke: #ffffff; stroke-width: 0.565685"/>
    <path d="M 285.796572 155.249448 
C 286.734207 155.249448 287.633564 154.876922 288.296572 154.213914 
C 288.95958 153.550907 289.332106 152.651549 289.332106 151.713914 
C 289.332106 150.77628 288.95958 149.876922 288.296572 149.213914 
C 287.633564 148.550907 286.734207 148.17838 285.796572 148.17838 
C 284.858938 148.17838 283.95958 148.550907 283.296572 149.213914 
C 282.633564 149.876922 282.261038 150.77628 282.261038 151.713914 
C 282.261038 152.651549 282.633564 153.550907 283.296572 154.213914 
C 283.95958 154.876922 284.858938 155.249448 285.796572 155.249448 
z
" clip-path="url(#pa0db9351dd)" style="fill: #fb8b24; stroke: #ffffff; stroke-width: 0.565685"/>
    <path d="M 269.687716 127.942806 
C 270.625351 127.942806 271.524709 127.570279 272.187716 126.907272 
C 272.850724 126.244264 273.22325 125.344906 273.22325 124.407272 
C 273.22325 123.469637 272.850724 122.570279 272.187716 121.907272 
C 271.524709 121.244264 270.625351 120.871738 269.687716 120.871738 
C 268.750082 120.871738 267.850724 121.244264 267.187716 121.907272 
C 266.524709 122.570279 266.152182 123.469637 266.152182 124.407272 
C 266.152182 125.344906 266.524709 126.244264 267.187716 126.907272 
C 267.850724 127.570279 268.750082 127.942806 269.687716 127.942806 
z
" clip-path="url(#pa0db9351dd)" style="fill: #fb8b24; stroke: #ffffff; stroke-width: 0.565685"/>
    <path d="M 287.300609 132.065673 
C 288.238244 132.065673 289.137601 131.693147 289.800609 131.030139 
C 290.463617 130.367132 290.836143 129.467774 290.836143 128.530139 
C 290.836143 127.592505 290.463617 126.693147 289.800609 126.030139 
C 289.137601 125.367132 288.238244 124.994606 287.300609 124.994606 
C 286.362975 124.994606 285.463617 125.367132 284.800609 126.030139 
C 284.137601 126.693147 283.765075 127.592505 283.765075 128.530139 
C 283.765075 129.467774 284.137601 130.367132 284.800609 131.030139 
C 285.463617 131.693147 286.362975 132.065673 287.300609 132.065673 
z
" clip-path="url(#pa0db9351dd)" style="fill: #fb8b24; stroke: #ffffff; stroke-width: 0.565685"/>
    <path d="M 270.828654 129.540678 
C 271.766288 129.540678 272.665646 129.168152 273.328654 128.505144 
C 273.991661 127.842136 274.364188 126.942779 274.364188 126.005144 
C 274.364188 125.06751 273.991661 124.168152 273.328654 123.505144 
C 272.665646 122.842136 271.766288 122.46961 270.828654 122.46961 
C 269.891019 122.46961 268.991661 122.842136 268.328654 123.505144 
C 267.665646 124.168152 267.29312 125.06751 267.29312 126.005144 
C 267.29312 126.942779 267.665646 127.842136 268.328654 128.505144 
C 268.991661 129.168152 269.891019 129.540678 270.828654 129.540678 
z
" clip-path="url(#pa0db9351dd)" style="fill: #fb8b24; stroke: #ffffff; stroke-width: 0.565685"/>
    <path d="M 289.497947 149.95494 
C 290.435582 149.95494 291.334939 149.582414 291.997947 148.919406 
C 292.660955 148.256399 293.033481 147.357041 293.033481 146.419406 
C 293.033481 145.481772 292.660955 144.582414 291.997947 143.919406 
C 291.334939 143.256399 290.435582 142.883872 289.497947 142.883872 
C 288.560313 142.883872 287.660955 143.256399 286.997947 143.919406 
C 286.334939 144.582414 285.962413 145.481772 285.962413 146.419406 
C 285.962413 147.357041 286.334939 148.256399 286.997947 148.919406 
C 287.660955 149.582414 288.560313 149.95494 289.497947 149.95494 
z
" clip-path="url(#pa0db9351dd)" style="fill: #fb8b24; stroke: #ffffff; stroke-width: 0.565685"/>
    <path d="M 244.592275 159.098703 
C 245.529909 159.098703 246.429267 158.726177 247.092275 158.063169 
C 247.755283 157.400162 248.127809 156.500804 248.127809 155.563169 
C 248.127809 154.625535 247.755283 153.726177 247.092275 153.063169 
C 246.429267 152.400162 245.529909 152.027635 244.592275 152.027635 
C 243.65464 152.027635 242.755283 152.400162 242.092275 153.063169 
C 241.429267 153.726177 241.056741 154.625535 241.056741 155.563169 
C 241.056741 156.500804 241.429267 157.400162 242.092275 158.063169 
C 242.755283 158.726177 243.65464 159.098703 244.592275 159.098703 
z
" clip-path="url(#pa0db9351dd)" style="fill: #04a777; stroke: #ffffff; stroke-width: 0.565685"/>
    <path d="M 262.101279 148.15058 
C 263.038914 148.15058 263.938272 147.778053 264.601279 147.115046 
C 265.264287 146.452038 265.636813 145.55268 265.636813 144.615046 
C 265.636813 143.677411 265.264287 142.778053 264.601279 142.115046 
C 263.938272 141.452038 263.038914 141.079512 262.101279 141.079512 
C 261.163645 141.079512 260.264287 141.452038 259.601279 142.115046 
C 258.938272 142.778053 258.565745 143.677411 258.565745 144.615046 
C 258.565745 145.55268 258.938272 146.452038 259.601279 147.115046 
C 260.264287 147.778053 261.163645 148.15058 262.101279 148.15058 
z
" clip-path="url(#pa0db9351dd)" style="fill: #04a777; stroke: #ffffff; stroke-width: 0.565685"/>
    <path d="M 254.349206 144.73842 
C 255.28684 144.73842 256.186198 144.365894 256.849206 143.702886 
C 257.512214 143.039878 257.88474 142.140521 257.88474 141.202886 
C 257.88474 140.265251 257.512214 139.365894 256.849206 138.702886 
C 256.186198 138.039878 255.28684 137.667352 254.349206 137.667352 
C 253.411571 137.667352 252.512214 138.039878 251.849206 138.702886 
C 251.186198 139.365894 250.813672 140.265251 250.813672 141.202886 
C 250.813672 142.140521 251.186198 143.039878 251.849206 143.702886 
C 252.512214 144.365894 253.411571 144.73842 254.349206 144.73842 
z
" clip-path="url(#pa0db9351dd)" style="fill: #04a777; stroke: #ffffff; stroke-width: 0.565685"/>
    <path d="M 305.04569 38.059333 
L 306.813457 36.291566 
L 308.581224 38.059333 
L 310.348991 36.291566 
L 308.581224 34.523799 
L 310.348991 32.756032 
L 308.581224 30.988265 
L 306.813457 32.756032 
L 305.04569 30.988265 
L 303.277924 32.756032 
L 305.04569 34.523799 
L 303.277924 36.291566 
z
" clip-path="url(#pa0db9351dd)" style="fill: #820263; stroke: #ffffff; stroke-width: 0.565685"/>
    <path d="M 293.99066 41.8042 
L 295.758427 40.036433 
L 297.526194 41.8042 
L 299.293961 40.036433 
L 297.526194 38.268666 
L 299.293961 36.500899 
L 297.526194 34.733132 
L 295.758427 36.500899 
L 293.99066 34.733132 
L 292.222894 36.500899 
L 293.99066 38.268666 
L 292.222894 40.036433 
z
" clip-path="url(#pa0db9351dd)" style="fill: #820263; stroke: #ffffff; stroke-width: 0.565685"/>
    <path d="M 270.942371 67.499948 
L 272.710138 65.732181 
L 274.477905 67.499948 
L 276.245672 65.732181 
L 274.477905 63.964414 
L 276.245672 62.196647 
L 274.477905 60.42888 
L 272.710138 62.196647 
L 270.942371 60.42888 
L 269.174605 62.196647 
L 270.942371 63.964414 
L 269.174605 65.732181 
z
" clip-path="url(#pa0db9351dd)" style="fill: #fb8b24; stroke: #ffffff; stroke-width: 0.565685"/>
    <path d="M 273.096989 74.298747 
L 274.864756 72.53098 
L 276.632523 74.298747 
L 278.40029 72.53098 
L 276.632523 70.763213 
L 278.40029 68.995446 
L 276.632523 67.227679 
L 274.864756 68.995446 
L 273.096989 67.227679 
L 271.329222 68.995446 
L 273.096989 70.763213 
L 271.329222 72.53098 
z
" clip-path="url(#pa0db9351dd)" style="fill: #fb8b24; stroke: #ffffff; stroke-width: 0.565685"/>
    <path d="M 266.740938 100.495966 
L 268.508705 98.728199 
L 270.276472 100.495966 
L 272.044239 98.728199 
L 270.276472 96.960432 
L 272.044239 95.192665 
L 270.276472 93.424898 
L 268.508705 95.192665 
L 266.740938 93.424898 
L 264.973171 95.192665 
L 266.740938 96.960432 
L 264.973171 98.728199 
z
" clip-path="url(#pa0db9351dd)" style="fill: #fb8b24; stroke: #ffffff; stroke-width: 0.565685"/>
    <path d="M 265.170306 90.52858 
L 266.938073 88.760813 
L 268.70584 90.52858 
L 270.473607 88.760813 
L 268.70584 86.993046 
L 270.473607 85.225279 
L 268.70584 83.457512 
L 266.938073 85.225279 
L 265.170306 83.457512 
L 263.402539 85.225279 
L 265.170306 86.993046 
L 263.402539 88.760813 
z
" clip-path="url(#pa0db9351dd)" style="fill: #fb8b24; stroke: #ffffff; stroke-width: 0.565685"/>
    <path d="M 275.563555 62.292542 
L 277.331322 60.524775 
L 279.099089 62.292542 
L 280.866856 60.524775 
L 279.099089 58.757008 
L 280.866856 56.989241 
L 279.099089 55.221474 
L 277.331322 56.989241 
L 275.563555 55.221474 
L 273.795788 56.989241 
L 275.563555 58.757008 
L 273.795788 60.524775 
z
" clip-path="url(#pa0db9351dd)" style="fill: #fb8b24; stroke: #ffffff; stroke-width: 0.565685"/>
    <path d="M 206.955992 83.685625 
L 208.723759 81.917858 
L 210.491526 83.685625 
L 212.259293 81.917858 
L 210.491526 80.150091 
L 212.259293 78.382324 
L 210.491526 76.614557 
L 208.723759 78.382324 
L 206.955992 76.614557 
L 205.188225 78.382324 
L 206.955992 80.150091 
L 205.188225 81.917858 
z
" clip-path="url(#pa0db9351dd)" style="fill: #04a777; stroke: #ffffff; stroke-width: 0.565685"/>
    <path d="M 205.188854 62.969001 
L 206.956621 61.201234 
L 208.724388 62.969001 
L 210.492155 61.201234 
L 208.724388 59.433467 
L 210.492155 57.6657 
L 208.724388 55.897933 
L 206.956621 57.6657 
L 205.188854 55.897933 
L 203.421087 57.6657 
L 205.188854 59.433467 
L 203.421087 61.201234 
z
" clip-path="url(#pa0db9351dd)" style="fill: #04a777; stroke: #ffffff; stroke-width: 0.565685"/>
    <path d="M 226.735285 67.602727 
L 228.503052 65.83496 
L 230.270819 67.602727 
L 232.038586 65.83496 
L 230.270819 64.067193 
L 232.038586 62.299426 
L 230.270819 60.531659 
L 228.503052 62.299426 
L 226.735285 60.531659 
L 224.967518 62.299426 
L 226.735285 64.067193 
L 224.967518 65.83496 
z
" clip-path="url(#pa0db9351dd)" style="fill: #04a777; stroke: #ffffff; stroke-width: 0.565685"/>
   </g>
   <g id="PathCollection_15"/>
   <g id="PathCollection_16"/>
   <g id="PathCollection_17"/>
   <g id="PathCollection_18"/>
   <g id="PathCollection_19"/>
   <g id="matplotlib.axis_3">
    <g id="xtick_4">
     <g id="line2d_12">
      <g>
       <use xlink:href="#m12fdc3f851" x="227.330169" y="161.615138" style="stroke: #000000; stroke-width: 0.8"/>
      </g>
     </g>
     <g id="text_22">
      <text style="font: 8px 'arial'; text-anchor: middle" x="227.330169" y="174.341388" transform="rotate(-0 227.330169 174.341388)">−5</text>
     </g>
    </g>
    <g id="xtick_5">
     <g id="line2d_13">
      <g>
       <use xlink:href="#m12fdc3f851" x="268.483231" y="161.615138" style="stroke: #000000; stroke-width: 0.8"/>
      </g>
     </g>
     <g id="text_23">
      <text style="font: 8px 'arial'; text-anchor: middle" x="268.483231" y="174.341388" transform="rotate(-0 268.483231 174.341388)">0</text>
     </g>
    </g>
    <g id="xtick_6">
     <g id="line2d_14">
      <g>
       <use xlink:href="#m12fdc3f851" x="309.636293" y="161.615138" style="stroke: #000000; stroke-width: 0.8"/>
      </g>
     </g>
     <g id="text_24">
      <text style="font: 8px 'arial'; text-anchor: middle" x="309.636293" y="174.341388" transform="rotate(-0 309.636293 174.341388)">5</text>
     </g>
    </g>
    <g id="text_25">
     <text style="font: 8px 'arial'; text-anchor: middle" x="256.885039" y="185.657638" transform="rotate(-0 256.885039 185.657638)">Dimension 1</text>
    </g>
   </g>
   <g id="matplotlib.axis_4">
    <g id="ytick_9">
     <g id="line2d_15">
      <g>
       <use xlink:href="#m1be8115c58" x="201.96378" y="155.819461" style="stroke: #000000; stroke-width: 0.8"/>
      </g>
     </g>
     <g id="text_26">
      <text style="font: 8px 'arial'; text-anchor: end" x="194.96378" y="158.682586" transform="rotate(-0 194.96378 158.682586)">−4</text>
     </g>
    </g>
    <g id="ytick_10">
     <g id="line2d_16">
      <g>
       <use xlink:href="#m1be8115c58" x="201.96378" y="126.710635" style="stroke: #000000; stroke-width: 0.8"/>
      </g>
     </g>
     <g id="text_27">
      <text style="font: 8px 'arial'; text-anchor: end" x="194.96378" y="129.57376" transform="rotate(-0 194.96378 129.57376)">−2</text>
     </g>
    </g>
    <g id="ytick_11">
     <g id="line2d_17">
      <g>
       <use xlink:href="#m1be8115c58" x="201.96378" y="97.601808" style="stroke: #000000; stroke-width: 0.8"/>
      </g>
     </g>
     <g id="text_28">
      <text style="font: 8px 'arial'; text-anchor: end" x="194.96378" y="100.464933" transform="rotate(-0 194.96378 100.464933)">0</text>
     </g>
    </g>
    <g id="ytick_12">
     <g id="line2d_18">
      <g>
       <use xlink:href="#m1be8115c58" x="201.96378" y="68.492982" style="stroke: #000000; stroke-width: 0.8"/>
      </g>
     </g>
     <g id="text_29">
      <text style="font: 8px 'arial'; text-anchor: end" x="194.96378" y="71.356107" transform="rotate(-0 194.96378 71.356107)">2</text>
     </g>
    </g>
    <g id="ytick_13">
     <g id="line2d_19">
      <g>
       <use xlink:href="#m1be8115c58" x="201.96378" y="39.384156" style="stroke: #000000; stroke-width: 0.8"/>
      </g>
     </g>
     <g id="text_30">
      <text style="font: 8px 'arial'; text-anchor: end" x="194.96378" y="42.247281" transform="rotate(-0 194.96378 42.247281)">4</text>
     </g>
    </g>
    <g id="text_31">
     <text style="font: 8px 'arial'; text-anchor: middle" x="180.25253" y="95.043484" transform="rotate(-90 180.25253 95.043484)">Dimension 2</text>
    </g>
   </g>
   <g id="patch_6">
    <path d="M 201.96378 161.615138 
L 201.96378 28.471831 
" style="fill: none; stroke: #000000; stroke-width: 0.8; stroke-linejoin: miter; stroke-linecap: square"/>
   </g>
   <g id="patch_7">
    <path d="M 201.96378 161.615138 
L 311.806299 161.615138 
" style="fill: none; stroke: #000000; stroke-width: 0.8; stroke-linejoin: miter; stroke-linecap: square"/>
   </g>
   <g id="text_32">
    <text style="font: 700 12px 'arial'; text-anchor: start" x="171.96378" y="15.789375" transform="rotate(-0 171.96378 15.789375)">B</text>
   </g>
   <g id="legend_4">
    <g id="PathCollection_20">
     <g>
      <use xlink:href="#m69b15e29af" x="214.585039" y="12.462759" style="fill: #04a777; stroke: #04a777"/>
     </g>
    </g>
    <g id="text_33">
     <text style="font: 8px 'arial'; text-anchor: start" x="222.605039" y="14.562759" transform="rotate(-0 222.605039 14.562759)">CRL</text>
    </g>
    <g id="PathCollection_21">
     <g>
      <use xlink:href="#m382a30db0d" x="248.208789" y="12.462759" style="fill: #820263; stroke: #820263"/>
     </g>
    </g>
    <g id="text_34">
     <text style="font: 8px 'arial'; text-anchor: start" x="256.228789" y="14.562759" transform="rotate(-0 256.228789 14.562759)">SOD</text>
    </g>
    <g id="PathCollection_22">
     <g>
      <use xlink:href="#m727726961d" x="283.165039" y="12.462759" style="fill: #fb8b24; stroke: #fb8b24"/>
     </g>
    </g>
    <g id="text_35">
     <text style="font: 8px 'arial'; text-anchor: start" x="291.185039" y="14.562759" transform="rotate(-0 291.185039 14.562759)">TDP</text>
    </g>
   </g>
   <g id="legend_5">
    <g id="PathCollection_23">
     <g>
      <use xlink:href="#m6dbd7ac006" x="203.161914" y="21.78279" style="fill: #333333; stroke: #333333"/>
     </g>
    </g>
    <g id="text_36">
     <text style="font: 8px 'arial'; text-anchor: start" x="211.181914" y="23.88279" transform="rotate(-0 211.181914 23.88279)">Cerebellum</text>
    </g>
    <g id="PathCollection_24">
     <g>
      <use xlink:href="#mf2fe8b6cc5" x="261.685664" y="21.78279" style="fill: #333333; stroke: #333333"/>
     </g>
    </g>
    <g id="text_37">
     <text style="font: 8px 'arial'; text-anchor: start" x="269.705664" y="23.88279" transform="rotate(-0 269.705664 23.88279)">Frontal cortex</text>
    </g>
   </g>
   <g id="legend_6">
    <g id="PathCollection_25">
     <g>
      <use xlink:href="#m6dbd7ac006" x="203.161914" y="21.78279" style="fill: #333333; stroke: #333333"/>
     </g>
    </g>
    <g id="text_38">
     <text style="font: 8px 'arial'; text-anchor: start" x="211.181914" y="23.88279" transform="rotate(-0 211.181914 23.88279)">Cerebellum</text>
    </g>
    <g id="PathCollection_26">
     <g>
      <use xlink:href="#mf2fe8b6cc5" x="261.685664" y="21.78279" style="fill: #333333; stroke: #333333"/>
     </g>
    </g>
    <g id="text_39">
     <text style="font: 8px 'arial'; text-anchor: start" x="269.705664" y="23.88279" transform="rotate(-0 269.705664 23.88279)">Frontal cortex</text>
    </g>
   </g>
  </g>
 </g>
 <defs>
  <clipPath id="pe7848c1b08">
   <rect x="37.2" y="28.471831" width="109.84252" height="133.143307"/>
  </clipPath>
  <clipPath id="pa0db9351dd">
   <rect x="201.96378" y="28.471831" width="109.84252" height="133.143307"/>
  </clipPath>
 </defs>
</svg>
