<?xml version="1.0" encoding="utf-8" standalone="no"?>
<!DOCTYPE svg PUBLIC "-//W3C//DTD SVG 1.1//EN"
  "http://www.w3.org/Graphics/SVG/1.1/DTD/svg11.dtd">
<svg xmlns:xlink="http://www.w3.org/1999/xlink" width="355.181102pt" height="172.913386pt" viewBox="0 0 355.181102 172.913386" xmlns="http://www.w3.org/2000/svg" version="1.1">
 <metadata>
  <rdf:RDF xmlns:dc="http://purl.org/dc/elements/1.1/" xmlns:cc="http://creativecommons.org/ns#" xmlns:rdf="http://www.w3.org/1999/02/22-rdf-syntax-ns#">
   <cc:Work>
    <dc:type rdf:resource="http://purl.org/dc/dcmitype/StillImage"/>
    <dc:date>2025-03-02T20:36:49.667525</dc:date>
    <dc:format>image/svg+xml</dc:format>
    <dc:creator>
     <cc:Agent>
      <dc:title>Matplotlib v3.8.3, https://matplotlib.org/</dc:title>
     </cc:Agent>
    </dc:creator>
   </cc:Work>
  </rdf:RDF>
 </metadata>
 <defs>
  <style type="text/css">*{stroke-linejoin: round; stroke-linecap: butt}</style>
 </defs>
 <g id="figure_1">
  <g id="patch_1">
   <path d="M 0 172.913386 
L 355.181102 172.913386 
L 355.181102 0 
L 0 0 
L 0 172.913386 
z
" style="fill: none"/>
  </g>
  <g id="axes_1">
   <g id="patch_2">
    <path d="M 44.397638 153.892913 
L 91.857182 153.892913 
L 91.857182 20.749606 
L 44.397638 20.749606 
L 44.397638 153.892913 
z
" style="fill: none"/>
   </g>
   <g id="patch_3">
    <path d="M 46.55489 153.892913 
L 58.882044 153.892913 
L 58.882044 106.525696 
L 46.55489 106.525696 
z
" clip-path="url(#p371f0abadc)" style="fill: url(#h0168a14ddc)"/>
   </g>
   <g id="patch_4">
    <path d="M 61.963833 153.892913 
L 74.290987 153.892913 
L 74.290987 53.465646 
L 61.963833 53.465646 
z
" clip-path="url(#p371f0abadc)" style="fill: url(#h2e678ed63a)"/>
   </g>
   <g id="patch_5">
    <path d="M 77.372775 153.892913 
L 89.69993 153.892913 
L 89.69993 107.293874 
L 77.372775 107.293874 
z
" clip-path="url(#p371f0abadc)" style="fill: url(#h56d7259ef9)"/>
   </g>
   <g id="matplotlib.axis_1">
    <g id="xtick_1">
     <g id="line2d_1">
      <defs>
       <path id="md967bf043c" d="M 0 0 
L 0 3.5 
" style="stroke: #000000; stroke-width: 0.8"/>
      </defs>
      <g>
       <use xlink:href="#md967bf043c" x="52.718467" y="153.892913" style="stroke: #000000; stroke-width: 0.8"/>
      </g>
     </g>
     <g id="text_1">
      <text style="font: 8px 'arial'; text-anchor: middle" x="52.718467" y="166.619163" transform="rotate(-0 52.718467 166.619163)">CRL   </text>
     </g>
    </g>
    <g id="xtick_2">
     <g id="line2d_2">
      <g>
       <use xlink:href="#md967bf043c" x="68.12741" y="153.892913" style="stroke: #000000; stroke-width: 0.8"/>
      </g>
     </g>
     <g id="text_2">
      <text style="font: 8px 'arial'; text-anchor: middle" x="68.12741" y="166.619163" transform="rotate(-0 68.12741 166.619163)">SOD</text>
     </g>
    </g>
    <g id="xtick_3">
     <g id="line2d_3">
      <g>
       <use xlink:href="#md967bf043c" x="83.536353" y="153.892913" style="stroke: #000000; stroke-width: 0.8"/>
      </g>
     </g>
     <g id="text_3">
      <text style="font: 8px 'arial'; text-anchor: middle" x="83.536353" y="166.619163" transform="rotate(-0 83.536353 166.619163)">   TDP</text>
     </g>
    </g>
   </g>
   <g id="matplotlib.axis_2">
    <g id="ytick_1">
     <g id="line2d_4">
      <defs>
       <path id="mb01bb4ff38" d="M 0 0 
L -3.5 0 
" style="stroke: #000000; stroke-width: 0.8"/>
      </defs>
      <g>
       <use xlink:href="#mb01bb4ff38" x="44.397638" y="153.892913" style="stroke: #000000; stroke-width: 0.8"/>
      </g>
     </g>
     <g id="text_4">
      <text style="font: 8px 'arial'; text-anchor: end" x="37.397638" y="156.756038" transform="rotate(-0 37.397638 156.756038)">0</text>
     </g>
    </g>
    <g id="ytick_2">
     <g id="line2d_5">
      <g>
       <use xlink:href="#mb01bb4ff38" x="44.397638" y="125.375942" style="stroke: #000000; stroke-width: 0.8"/>
      </g>
     </g>
     <g id="text_5">
      <text style="font: 8px 'arial'; text-anchor: end" x="37.397638" y="128.239067" transform="rotate(-0 37.397638 128.239067)">100</text>
     </g>
    </g>
    <g id="ytick_3">
     <g id="line2d_6">
      <g>
       <use xlink:href="#mb01bb4ff38" x="44.397638" y="96.858971" style="stroke: #000000; stroke-width: 0.8"/>
      </g>
     </g>
     <g id="text_6">
      <text style="font: 8px 'arial'; text-anchor: end" x="37.397638" y="99.722096" transform="rotate(-0 37.397638 99.722096)">200</text>
     </g>
    </g>
    <g id="ytick_4">
     <g id="line2d_7">
      <g>
       <use xlink:href="#mb01bb4ff38" x="44.397638" y="68.342" style="stroke: #000000; stroke-width: 0.8"/>
      </g>
     </g>
     <g id="text_7">
      <text style="font: 8px 'arial'; text-anchor: end" x="37.397638" y="71.205125" transform="rotate(-0 37.397638 71.205125)">300</text>
     </g>
    </g>
    <g id="ytick_5">
     <g id="line2d_8">
      <g>
       <use xlink:href="#mb01bb4ff38" x="44.397638" y="39.825028" style="stroke: #000000; stroke-width: 0.8"/>
      </g>
     </g>
     <g id="text_8">
      <text style="font: 8px 'arial'; text-anchor: end" x="37.397638" y="42.688153" transform="rotate(-0 37.397638 42.688153)">400</text>
     </g>
    </g>
    <g id="text_9">
     <text style="font: 8px 'arial'; text-anchor: middle" x="23.461388" y="87.32126" transform="rotate(-90 23.461388 87.32126)">Number of puncta</text>
    </g>
   </g>
   <g id="line2d_9">
    <path d="M 52.718467 127.776121 
L 52.718467 95.345987 
" clip-path="url(#p371f0abadc)" style="fill: none; stroke: #424242; stroke-linecap: square"/>
   </g>
   <g id="line2d_10">
    <path d="M 51.177573 127.776121 
L 54.259361 127.776121 
" clip-path="url(#p371f0abadc)" style="fill: none; stroke: #424242; stroke-linecap: square"/>
   </g>
   <g id="line2d_11">
    <path d="M 51.177573 95.345987 
L 54.259361 95.345987 
" clip-path="url(#p371f0abadc)" style="fill: none; stroke: #424242; stroke-linecap: square"/>
   </g>
   <g id="line2d_12">
    <path d="M 68.12741 64.381309 
L 68.12741 42.549983 
" clip-path="url(#p371f0abadc)" style="fill: none; stroke: #424242; stroke-linecap: square"/>
   </g>
   <g id="line2d_13">
    <path d="M 66.586515 64.381309 
L 69.668304 64.381309 
" clip-path="url(#p371f0abadc)" style="fill: none; stroke: #424242; stroke-linecap: square"/>
   </g>
   <g id="line2d_14">
    <path d="M 66.586515 42.549983 
L 69.668304 42.549983 
" clip-path="url(#p371f0abadc)" style="fill: none; stroke: #424242; stroke-linecap: square"/>
   </g>
   <g id="line2d_15">
    <path d="M 83.536353 120.045849 
L 83.536353 94.747408 
" clip-path="url(#p371f0abadc)" style="fill: none; stroke: #424242; stroke-linecap: square"/>
   </g>
   <g id="line2d_16">
    <path d="M 81.995458 120.045849 
L 85.077247 120.045849 
" clip-path="url(#p371f0abadc)" style="fill: none; stroke: #424242; stroke-linecap: square"/>
   </g>
   <g id="line2d_17">
    <path d="M 81.995458 94.747408 
L 85.077247 94.747408 
" clip-path="url(#p371f0abadc)" style="fill: none; stroke: #424242; stroke-linecap: square"/>
   </g>
   <g id="line2d_18">
    <path d="M 52.718467 35.535379 
L 52.718467 33.197177 
L 83.536353 33.197177 
L 83.536353 35.535379 
" clip-path="url(#p371f0abadc)" style="fill: none; stroke: #333333; stroke-width: 0.5; stroke-linecap: square"/>
   </g>
   <g id="patch_6">
    <path d="M 44.397638 153.892913 
L 44.397638 20.749606 
" style="fill: none; stroke: #000000; stroke-width: 0.8; stroke-linejoin: miter; stroke-linecap: square"/>
   </g>
   <g id="patch_7">
    <path d="M 44.397638 153.892913 
L 91.857182 153.892913 
" style="fill: none; stroke: #000000; stroke-width: 0.8; stroke-linejoin: miter; stroke-linecap: square"/>
   </g>
   <g id="text_10">
    <text style="font: 700 12px 'arial'; text-anchor: start" x="14.397638" y="13.067151" transform="rotate(-0 14.397638 13.067151)">A</text>
   </g>
   <g id="PathCollection_1">
    <defs>
     <path id="C0_0_c279992c19" d="M 0 2.5 
C 0.663008 2.5 1.29895 2.236584 1.767767 1.767767 
C 2.236584 1.29895 2.5 0.663008 2.5 -0 
C 2.5 -0.663008 2.236584 -1.29895 1.767767 -1.767767 
C 1.29895 -2.236584 0.663008 -2.5 0 -2.5 
C -0.663008 -2.5 -1.29895 -2.236584 -1.767767 -1.767767 
C -2.236584 -1.29895 -2.5 -0.663008 -2.5 0 
C -2.5 0.663008 -2.236584 1.29895 -1.767767 1.767767 
C -1.29895 2.236584 -0.663008 2.5 0 2.5 
z
"/>
    </defs>
    <g clip-path="url(#p371f0abadc)">
     <use xlink:href="#C0_0_c279992c19" x="53.303594" y="95.345987" style="fill: #04a777; stroke: #ffffff"/>
    </g>
    <g clip-path="url(#p371f0abadc)">
     <use xlink:href="#C0_0_c279992c19" x="52.54947" y="127.776121" style="fill: #04a777; stroke: #ffffff"/>
    </g>
    <g clip-path="url(#p371f0abadc)">
     <use xlink:href="#C0_0_c279992c19" x="53.699072" y="96.45498" style="fill: #04a777; stroke: #ffffff"/>
    </g>
   </g>
   <g id="PathCollection_2">
    <defs>
     <path id="C1_0_a109ba9132" d="M 0 2.5 
C 0.663008 2.5 1.29895 2.236584 1.767767 1.767767 
C 2.236584 1.29895 2.5 0.663008 2.5 -0 
C 2.5 -0.663008 2.236584 -1.29895 1.767767 -1.767767 
C 1.29895 -2.236584 0.663008 -2.5 0 -2.5 
C -0.663008 -2.5 -1.29895 -2.236584 -1.767767 -1.767767 
C -2.236584 -1.29895 -2.5 -0.663008 -2.5 0 
C -2.5 0.663008 -2.236584 1.29895 -1.767767 1.767767 
C -1.29895 2.236584 -0.663008 2.5 0 2.5 
z
"/>
    </defs>
    <g clip-path="url(#p371f0abadc)">
     <use xlink:href="#C1_0_a109ba9132" x="68.165583" y="42.549983" style="fill: #820263; stroke: #ffffff"/>
    </g>
    <g clip-path="url(#p371f0abadc)">
     <use xlink:href="#C1_0_a109ba9132" x="68.402979" y="64.381309" style="fill: #820263; stroke: #ffffff"/>
    </g>
   </g>
   <g id="PathCollection_3">
    <defs>
     <path id="C2_0_c5db1342bf" d="M 0 2.5 
C 0.663008 2.5 1.29895 2.236584 1.767767 1.767767 
C 2.236584 1.29895 2.5 0.663008 2.5 -0 
C 2.5 -0.663008 2.236584 -1.29895 1.767767 -1.767767 
C 1.29895 -2.236584 0.663008 -2.5 0 -2.5 
C -0.663008 -2.5 -1.29895 -2.236584 -1.767767 -1.767767 
C -2.236584 -1.29895 -2.5 -0.663008 -2.5 0 
C -2.5 0.663008 -2.236584 1.29895 -1.767767 1.767767 
C -1.29895 2.236584 -0.663008 2.5 0 2.5 
z
"/>
    </defs>
    <g clip-path="url(#p371f0abadc)">
     <use xlink:href="#C2_0_c5db1342bf" x="82.717776" y="100.312693" style="fill: #fb8b24; stroke: #ffffff"/>
    </g>
    <g clip-path="url(#p371f0abadc)">
     <use xlink:href="#C2_0_c5db1342bf" x="84.454435" y="83.598579" style="fill: #fb8b24; stroke: #ffffff"/>
    </g>
    <g clip-path="url(#p371f0abadc)">
     <use xlink:href="#C2_0_c5db1342bf" x="82.922321" y="105.984402" style="fill: #fb8b24; stroke: #ffffff"/>
    </g>
    <g clip-path="url(#p371f0abadc)">
     <use xlink:href="#C2_0_c5db1342bf" x="83.903276" y="126.671427" style="fill: #fb8b24; stroke: #ffffff"/>
    </g>
    <g clip-path="url(#p371f0abadc)">
     <use xlink:href="#C2_0_c5db1342bf" x="84.618715" y="119.902268" style="fill: #fb8b24; stroke: #ffffff"/>
    </g>
   </g>
   <g id="text_11">
    <text style="font: 8px 'arial'; text-anchor: middle" x="68.12741" y="30.607177" transform="rotate(-0 68.12741 30.607177)">ns</text>
   </g>
   <g id="text_12">
    <text style="font: 8px 'arial'; text-anchor: middle" x="68.12741" y="14.749606" transform="rotate(-0 68.12741 14.749606)">Cerebellum</text>
   </g>
   <g id="legend_1"/>
  </g>
  <g id="axes_2">
   <g id="patch_8">
    <path d="M 120.332908 153.892913 
L 167.792452 153.892913 
L 167.792452 20.749606 
L 120.332908 20.749606 
L 120.332908 153.892913 
z
" style="fill: none"/>
   </g>
   <g id="patch_9">
    <path d="M 122.49016 153.892913 
L 134.817314 153.892913 
L 134.817314 67.011872 
L 122.49016 67.011872 
z
" clip-path="url(#p447065b6eb)" style="fill: url(#h0168a14ddc)"/>
   </g>
   <g id="patch_10">
    <path d="M 137.899103 153.892913 
L 150.226257 153.892913 
L 150.226257 77.141152 
L 137.899103 77.141152 
z
" clip-path="url(#p447065b6eb)" style="fill: url(#h2e678ed63a)"/>
   </g>
   <g id="patch_11">
    <path d="M 153.308046 153.892913 
L 165.6352 153.892913 
L 165.6352 77.128946 
L 153.308046 77.128946 
z
" clip-path="url(#p447065b6eb)" style="fill: url(#h56d7259ef9)"/>
   </g>
   <g id="matplotlib.axis_3">
    <g id="xtick_4">
     <g id="line2d_19">
      <g>
       <use xlink:href="#md967bf043c" x="128.653737" y="153.892913" style="stroke: #000000; stroke-width: 0.8"/>
      </g>
     </g>
     <g id="text_13">
      <text style="font: 8px 'arial'; text-anchor: middle" x="128.653737" y="166.619163" transform="rotate(-0 128.653737 166.619163)">CRL   </text>
     </g>
    </g>
    <g id="xtick_5">
     <g id="line2d_20">
      <g>
       <use xlink:href="#md967bf043c" x="144.06268" y="153.892913" style="stroke: #000000; stroke-width: 0.8"/>
      </g>
     </g>
     <g id="text_14">
      <text style="font: 8px 'arial'; text-anchor: middle" x="144.06268" y="166.619163" transform="rotate(-0 144.06268 166.619163)">SOD</text>
     </g>
    </g>
    <g id="xtick_6">
     <g id="line2d_21">
      <g>
       <use xlink:href="#md967bf043c" x="159.471623" y="153.892913" style="stroke: #000000; stroke-width: 0.8"/>
      </g>
     </g>
     <g id="text_15">
      <text style="font: 8px 'arial'; text-anchor: middle" x="159.471623" y="166.619163" transform="rotate(-0 159.471623 166.619163)">   TDP</text>
     </g>
    </g>
   </g>
   <g id="matplotlib.axis_4">
    <g id="ytick_6">
     <g id="line2d_22">
      <g>
       <use xlink:href="#mb01bb4ff38" x="120.332908" y="153.892913" style="stroke: #000000; stroke-width: 0.8"/>
      </g>
     </g>
     <g id="text_16">
      <text style="font: 8px 'arial'; text-anchor: end" x="113.332908" y="156.756038" transform="rotate(-0 113.332908 156.756038)">0</text>
     </g>
    </g>
    <g id="ytick_7">
     <g id="line2d_23">
      <g>
       <use xlink:href="#mb01bb4ff38" x="120.332908" y="124.713722" style="stroke: #000000; stroke-width: 0.8"/>
      </g>
     </g>
     <g id="text_17">
      <text style="font: 8px 'arial'; text-anchor: end" x="113.332908" y="127.576847" transform="rotate(-0 113.332908 127.576847)">50</text>
     </g>
    </g>
    <g id="ytick_8">
     <g id="line2d_24">
      <g>
       <use xlink:href="#mb01bb4ff38" x="120.332908" y="95.534531" style="stroke: #000000; stroke-width: 0.8"/>
      </g>
     </g>
     <g id="text_18">
      <text style="font: 8px 'arial'; text-anchor: end" x="113.332908" y="98.397656" transform="rotate(-0 113.332908 98.397656)">100</text>
     </g>
    </g>
    <g id="ytick_9">
     <g id="line2d_25">
      <g>
       <use xlink:href="#mb01bb4ff38" x="120.332908" y="66.35534" style="stroke: #000000; stroke-width: 0.8"/>
      </g>
     </g>
     <g id="text_19">
      <text style="font: 8px 'arial'; text-anchor: end" x="113.332908" y="69.218465" transform="rotate(-0 113.332908 69.218465)">150</text>
     </g>
    </g>
    <g id="ytick_10">
     <g id="line2d_26">
      <g>
       <use xlink:href="#mb01bb4ff38" x="120.332908" y="37.176149" style="stroke: #000000; stroke-width: 0.8"/>
      </g>
     </g>
     <g id="text_20">
      <text style="font: 8px 'arial'; text-anchor: end" x="113.332908" y="40.039274" transform="rotate(-0 113.332908 40.039274)">200</text>
     </g>
    </g>
    <g id="text_21">
     <text style="font: 8px 'arial'; text-anchor: middle" x="99.396658" y="87.32126" transform="rotate(-90 99.396658 87.32126)">Number of puncta</text>
    </g>
   </g>
   <g id="line2d_27">
    <path d="M 128.653737 86.326875 
L 128.653737 42.549983 
" clip-path="url(#p447065b6eb)" style="fill: none; stroke: #424242; stroke-linecap: square"/>
   </g>
   <g id="line2d_28">
    <path d="M 127.112843 86.326875 
L 130.194631 86.326875 
" clip-path="url(#p447065b6eb)" style="fill: none; stroke: #424242; stroke-linecap: square"/>
   </g>
   <g id="line2d_29">
    <path d="M 127.112843 42.549983 
L 130.194631 42.549983 
" clip-path="url(#p447065b6eb)" style="fill: none; stroke: #424242; stroke-linecap: square"/>
   </g>
   <g id="line2d_30">
    <path d="M 144.06268 77.941195 
L 144.06268 76.341108 
" clip-path="url(#p447065b6eb)" style="fill: none; stroke: #424242; stroke-linecap: square"/>
   </g>
   <g id="line2d_31">
    <path d="M 142.521786 77.941195 
L 145.603574 77.941195 
" clip-path="url(#p447065b6eb)" style="fill: none; stroke: #424242; stroke-linecap: square"/>
   </g>
   <g id="line2d_32">
    <path d="M 142.521786 76.341108 
L 145.603574 76.341108 
" clip-path="url(#p447065b6eb)" style="fill: none; stroke: #424242; stroke-linecap: square"/>
   </g>
   <g id="line2d_33">
    <path d="M 159.471623 80.730955 
L 159.471623 72.897963 
" clip-path="url(#p447065b6eb)" style="fill: none; stroke: #424242; stroke-linecap: square"/>
   </g>
   <g id="line2d_34">
    <path d="M 157.930728 80.730955 
L 161.012517 80.730955 
" clip-path="url(#p447065b6eb)" style="fill: none; stroke: #424242; stroke-linecap: square"/>
   </g>
   <g id="line2d_35">
    <path d="M 157.930728 72.897963 
L 161.012517 72.897963 
" clip-path="url(#p447065b6eb)" style="fill: none; stroke: #424242; stroke-linecap: square"/>
   </g>
   <g id="line2d_36">
    <path d="M 128.653737 35.535379 
L 128.653737 33.197177 
L 159.471623 33.197177 
L 159.471623 35.535379 
" clip-path="url(#p447065b6eb)" style="fill: none; stroke: #333333; stroke-width: 0.5; stroke-linecap: square"/>
   </g>
   <g id="patch_12">
    <path d="M 120.332908 153.892913 
L 120.332908 20.749606 
" style="fill: none; stroke: #000000; stroke-width: 0.8; stroke-linejoin: miter; stroke-linecap: square"/>
   </g>
   <g id="patch_13">
    <path d="M 120.332908 153.892913 
L 167.792452 153.892913 
" style="fill: none; stroke: #000000; stroke-width: 0.8; stroke-linejoin: miter; stroke-linecap: square"/>
   </g>
   <g id="PathCollection_4">
    <defs>
     <path id="C3_0_30ec91cf7f" d="M 0 2.5 
C 0.663008 2.5 1.29895 2.236584 1.767767 1.767767 
C 2.236584 1.29895 2.5 0.663008 2.5 -0 
C 2.5 -0.663008 2.236584 -1.29895 1.767767 -1.767767 
C 1.29895 -2.236584 0.663008 -2.5 0 -2.5 
C -0.663008 -2.5 -1.29895 -2.236584 -1.767767 -1.767767 
C -2.236584 -1.29895 -2.5 -0.663008 -2.5 0 
C -2.5 0.663008 -2.236584 1.29895 -1.767767 1.767767 
C -1.29895 2.236584 -0.663008 2.5 0 2.5 
z
"/>
    </defs>
    <g clip-path="url(#p447065b6eb)">
     <use xlink:href="#C3_0_30ec91cf7f" x="129.24678" y="72.158757" style="fill: #04a777; stroke: #ffffff"/>
    </g>
    <g clip-path="url(#p447065b6eb)">
     <use xlink:href="#C3_0_30ec91cf7f" x="127.562312" y="86.326875" style="fill: #04a777; stroke: #ffffff"/>
    </g>
    <g clip-path="url(#p447065b6eb)">
     <use xlink:href="#C3_0_30ec91cf7f" x="129.706613" y="42.549983" style="fill: #04a777; stroke: #ffffff"/>
    </g>
   </g>
   <g id="PathCollection_5">
    <defs>
     <path id="C4_0_0d31c6ed51" d="M 0 2.5 
C 0.663008 2.5 1.29895 2.236584 1.767767 1.767767 
C 2.236584 1.29895 2.5 0.663008 2.5 -0 
C 2.5 -0.663008 2.236584 -1.29895 1.767767 -1.767767 
C 1.29895 -2.236584 0.663008 -2.5 0 -2.5 
C -0.663008 -2.5 -1.29895 -2.236584 -1.767767 -1.767767 
C -2.236584 -1.29895 -2.5 -0.663008 -2.5 0 
C -2.5 0.663008 -2.236584 1.29895 -1.767767 1.767767 
C -1.29895 2.236584 -0.663008 2.5 0 2.5 
z
"/>
    </defs>
    <g clip-path="url(#p447065b6eb)">
     <use xlink:href="#C4_0_0d31c6ed51" x="145.453156" y="77.941195" style="fill: #820263; stroke: #ffffff"/>
    </g>
    <g clip-path="url(#p447065b6eb)">
     <use xlink:href="#C4_0_0d31c6ed51" x="143.19479" y="76.341108" style="fill: #820263; stroke: #ffffff"/>
    </g>
   </g>
   <g id="PathCollection_6">
    <defs>
     <path id="C5_0_f5751aaf61" d="M 0 2.5 
C 0.663008 2.5 1.29895 2.236584 1.767767 1.767767 
C 2.236584 1.29895 2.5 0.663008 2.5 -0 
C 2.5 -0.663008 2.236584 -1.29895 1.767767 -1.767767 
C 1.29895 -2.236584 0.663008 -2.5 0 -2.5 
C -0.663008 -2.5 -1.29895 -2.236584 -1.767767 -1.767767 
C -2.236584 -1.29895 -2.5 -0.663008 -2.5 0 
C -2.5 0.663008 -2.236584 1.29895 -1.767767 1.767767 
C -1.29895 2.236584 -0.663008 2.5 0 2.5 
z
"/>
    </defs>
    <g clip-path="url(#p447065b6eb)">
     <use xlink:href="#C5_0_f5751aaf61" x="158.824439" y="81.155674" style="fill: #fb8b24; stroke: #ffffff"/>
    </g>
    <g clip-path="url(#p447065b6eb)">
     <use xlink:href="#C5_0_f5751aaf61" x="158.697576" y="69.386734" style="fill: #fb8b24; stroke: #ffffff"/>
    </g>
    <g clip-path="url(#p447065b6eb)">
     <use xlink:href="#C5_0_f5751aaf61" x="159.643771" y="78.772707" style="fill: #fb8b24; stroke: #ffffff"/>
    </g>
    <g clip-path="url(#p447065b6eb)">
     <use xlink:href="#C5_0_f5751aaf61" x="158.927348" y="75.044255" style="fill: #fb8b24; stroke: #ffffff"/>
    </g>
    <g clip-path="url(#p447065b6eb)">
     <use xlink:href="#C5_0_f5751aaf61" x="159.293914" y="81.28536" style="fill: #fb8b24; stroke: #ffffff"/>
    </g>
   </g>
   <g id="text_22">
    <text style="font: 8px 'arial'; text-anchor: middle" x="144.06268" y="30.607177" transform="rotate(-0 144.06268 30.607177)">ns</text>
   </g>
   <g id="text_23">
    <text style="font: 8px 'arial'; text-anchor: middle" x="144.06268" y="14.749606" transform="rotate(-0 144.06268 14.749606)">Frontal cortex</text>
   </g>
   <g id="legend_2"/>
  </g>
  <g id="axes_3">
   <g id="patch_14">
    <path d="M 196.268178 153.892913 
L 243.727722 153.892913 
L 243.727722 20.749606 
L 196.268178 20.749606 
L 196.268178 153.892913 
z
" style="fill: none"/>
   </g>
   <g id="patch_15">
    <path d="M 198.42543 153.892913 
L 210.752584 153.892913 
L 210.752584 88.086392 
L 198.42543 88.086392 
z
" clip-path="url(#pc10e911a1e)" style="fill: #18936f; stroke: #ffffff; stroke-linejoin: miter"/>
   </g>
   <g id="patch_16">
    <path d="M 213.834373 153.892913 
L 226.161527 153.892913 
L 226.161527 53.299264 
L 213.834373 53.299264 
z
" clip-path="url(#pc10e911a1e)" style="fill: #72125b; stroke: #ffffff; stroke-linejoin: miter"/>
   </g>
   <g id="patch_17">
    <path d="M 229.243316 153.892913 
L 241.57047 153.892913 
L 241.57047 87.302093 
L 229.243316 87.302093 
z
" clip-path="url(#pc10e911a1e)" style="fill: #e08c3f; stroke: #ffffff; stroke-linejoin: miter"/>
   </g>
   <g id="matplotlib.axis_5">
    <g id="xtick_7">
     <g id="line2d_37">
      <g>
       <use xlink:href="#md967bf043c" x="204.589007" y="153.892913" style="stroke: #000000; stroke-width: 0.8"/>
      </g>
     </g>
     <g id="text_24">
      <text style="font: 8px 'arial'; text-anchor: middle" x="204.589007" y="166.619163" transform="rotate(-0 204.589007 166.619163)">CRL   </text>
     </g>
    </g>
    <g id="xtick_8">
     <g id="line2d_38">
      <g>
       <use xlink:href="#md967bf043c" x="219.99795" y="153.892913" style="stroke: #000000; stroke-width: 0.8"/>
      </g>
     </g>
     <g id="text_25">
      <text style="font: 8px 'arial'; text-anchor: middle" x="219.99795" y="166.619163" transform="rotate(-0 219.99795 166.619163)">SOD</text>
     </g>
    </g>
    <g id="xtick_9">
     <g id="line2d_39">
      <g>
       <use xlink:href="#md967bf043c" x="235.406893" y="153.892913" style="stroke: #000000; stroke-width: 0.8"/>
      </g>
     </g>
     <g id="text_26">
      <text style="font: 8px 'arial'; text-anchor: middle" x="235.406893" y="166.619163" transform="rotate(-0 235.406893 166.619163)">   TDP</text>
     </g>
    </g>
   </g>
   <g id="matplotlib.axis_6">
    <g id="ytick_11">
     <g id="line2d_40">
      <g>
       <use xlink:href="#mb01bb4ff38" x="196.268178" y="153.892913" style="stroke: #000000; stroke-width: 0.8"/>
      </g>
     </g>
     <g id="text_27">
      <text style="font: 8px 'arial'; text-anchor: end" x="189.268178" y="156.756038" transform="rotate(-0 189.268178 156.756038)">0</text>
     </g>
    </g>
    <g id="ytick_12">
     <g id="line2d_41">
      <g>
       <use xlink:href="#mb01bb4ff38" x="196.268178" y="131.806071" style="stroke: #000000; stroke-width: 0.8"/>
      </g>
     </g>
     <g id="text_28">
      <text style="font: 8px 'arial'; text-anchor: end" x="189.268178" y="134.669196" transform="rotate(-0 189.268178 134.669196)">50</text>
     </g>
    </g>
    <g id="ytick_13">
     <g id="line2d_42">
      <g>
       <use xlink:href="#mb01bb4ff38" x="196.268178" y="109.719228" style="stroke: #000000; stroke-width: 0.8"/>
      </g>
     </g>
     <g id="text_29">
      <text style="font: 8px 'arial'; text-anchor: end" x="189.268178" y="112.582353" transform="rotate(-0 189.268178 112.582353)">100</text>
     </g>
    </g>
    <g id="ytick_14">
     <g id="line2d_43">
      <g>
       <use xlink:href="#mb01bb4ff38" x="196.268178" y="87.632385" style="stroke: #000000; stroke-width: 0.8"/>
      </g>
     </g>
     <g id="text_30">
      <text style="font: 8px 'arial'; text-anchor: end" x="189.268178" y="90.49551" transform="rotate(-0 189.268178 90.49551)">150</text>
     </g>
    </g>
    <g id="ytick_15">
     <g id="line2d_44">
      <g>
       <use xlink:href="#mb01bb4ff38" x="196.268178" y="65.545542" style="stroke: #000000; stroke-width: 0.8"/>
      </g>
     </g>
     <g id="text_31">
      <text style="font: 8px 'arial'; text-anchor: end" x="189.268178" y="68.408667" transform="rotate(-0 189.268178 68.408667)">200</text>
     </g>
    </g>
    <g id="ytick_16">
     <g id="line2d_45">
      <g>
       <use xlink:href="#mb01bb4ff38" x="196.268178" y="43.458699" style="stroke: #000000; stroke-width: 0.8"/>
      </g>
     </g>
     <g id="text_32">
      <text style="font: 8px 'arial'; text-anchor: end" x="189.268178" y="46.321824" transform="rotate(-0 189.268178 46.321824)">250</text>
     </g>
    </g>
    <g id="ytick_17">
     <g id="line2d_46">
      <g>
       <use xlink:href="#mb01bb4ff38" x="196.268178" y="21.371856" style="stroke: #000000; stroke-width: 0.8"/>
      </g>
     </g>
     <g id="text_33">
      <text style="font: 8px 'arial'; text-anchor: end" x="189.268178" y="24.234981" transform="rotate(-0 189.268178 24.234981)">300</text>
     </g>
    </g>
    <g id="text_34">
     <text style="font: 8px 'arial'; text-anchor: middle" x="175.331928" y="87.32126" transform="rotate(-90 175.331928 87.32126)">Number of puncta</text>
    </g>
   </g>
   <g id="line2d_47">
    <path d="M 204.589007 89.60793 
L 204.589007 86.45442 
" clip-path="url(#pc10e911a1e)" style="fill: none; stroke: #424242; stroke-linecap: square"/>
   </g>
   <g id="line2d_48">
    <path d="M 203.048113 89.60793 
L 206.129902 89.60793 
" clip-path="url(#pc10e911a1e)" style="fill: none; stroke: #424242; stroke-linecap: square"/>
   </g>
   <g id="line2d_49">
    <path d="M 203.048113 86.45442 
L 206.129902 86.45442 
" clip-path="url(#pc10e911a1e)" style="fill: none; stroke: #424242; stroke-linecap: square"/>
   </g>
   <g id="line2d_50">
    <path d="M 219.99795 64.048545 
L 219.99795 42.549983 
" clip-path="url(#pc10e911a1e)" style="fill: none; stroke: #424242; stroke-linecap: square"/>
   </g>
   <g id="line2d_51">
    <path d="M 218.457056 64.048545 
L 221.538844 64.048545 
" clip-path="url(#pc10e911a1e)" style="fill: none; stroke: #424242; stroke-linecap: square"/>
   </g>
   <g id="line2d_52">
    <path d="M 218.457056 42.549983 
L 221.538844 42.549983 
" clip-path="url(#pc10e911a1e)" style="fill: none; stroke: #424242; stroke-linecap: square"/>
   </g>
   <g id="line2d_53">
    <path d="M 235.406893 100.76525 
L 235.406893 74.014619 
" clip-path="url(#pc10e911a1e)" style="fill: none; stroke: #424242; stroke-linecap: square"/>
   </g>
   <g id="line2d_54">
    <path d="M 233.865999 100.76525 
L 236.947787 100.76525 
" clip-path="url(#pc10e911a1e)" style="fill: none; stroke: #424242; stroke-linecap: square"/>
   </g>
   <g id="line2d_55">
    <path d="M 233.865999 74.014619 
L 236.947787 74.014619 
" clip-path="url(#pc10e911a1e)" style="fill: none; stroke: #424242; stroke-linecap: square"/>
   </g>
   <g id="line2d_56">
    <path d="M 204.589007 35.535379 
L 204.589007 33.197177 
L 235.406893 33.197177 
L 235.406893 35.535379 
" clip-path="url(#pc10e911a1e)" style="fill: none; stroke: #333333; stroke-width: 0.5; stroke-linecap: square"/>
   </g>
   <g id="patch_18">
    <path d="M 196.268178 153.892913 
L 196.268178 20.749606 
" style="fill: none; stroke: #000000; stroke-width: 0.8; stroke-linejoin: miter; stroke-linecap: square"/>
   </g>
   <g id="patch_19">
    <path d="M 196.268178 153.892913 
L 243.727722 153.892913 
" style="fill: none; stroke: #000000; stroke-width: 0.8; stroke-linejoin: miter; stroke-linecap: square"/>
   </g>
   <g id="text_35">
    <text style="font: 700 12px 'arial'; text-anchor: start" x="171.268178" y="13.067151" transform="rotate(-0 171.268178 13.067151)">B</text>
   </g>
   <g id="PathCollection_7">
    <defs>
     <path id="C6_0_7474877603" d="M 0 2.5 
C 0.663008 2.5 1.29895 2.236584 1.767767 1.767767 
C 2.236584 1.29895 2.5 0.663008 2.5 -0 
C 2.5 -0.663008 2.236584 -1.29895 1.767767 -1.767767 
C 1.29895 -2.236584 0.663008 -2.5 0 -2.5 
C -0.663008 -2.5 -1.29895 -2.236584 -1.767767 -1.767767 
C -2.236584 -1.29895 -2.5 -0.663008 -2.5 0 
C -2.5 0.663008 -2.236584 1.29895 -1.767767 1.767767 
C -1.29895 2.236584 -0.663008 2.5 0 2.5 
z
"/>
    </defs>
    <g clip-path="url(#pc10e911a1e)">
     <use xlink:href="#C6_0_7474877603" x="204.809545" y="86.45442" style="fill: #04a777; stroke: #ffffff"/>
    </g>
    <g clip-path="url(#pc10e911a1e)">
     <use xlink:href="#C6_0_7474877603" x="206.022112" y="88.196826" style="fill: #04a777; stroke: #ffffff"/>
    </g>
    <g clip-path="url(#pc10e911a1e)">
     <use xlink:href="#C6_0_7474877603" x="205.008615" y="89.60793" style="fill: #04a777; stroke: #ffffff"/>
    </g>
   </g>
   <g id="PathCollection_8">
    <defs>
     <path id="C7_0_c8bc849951" d="M 0 2.5 
C 0.663008 2.5 1.29895 2.236584 1.767767 1.767767 
C 2.236584 1.29895 2.5 0.663008 2.5 -0 
C 2.5 -0.663008 2.236584 -1.29895 1.767767 -1.767767 
C 1.29895 -2.236584 0.663008 -2.5 0 -2.5 
C -0.663008 -2.5 -1.29895 -2.236584 -1.767767 -1.767767 
C -2.236584 -1.29895 -2.5 -0.663008 -2.5 0 
C -2.5 0.663008 -2.236584 1.29895 -1.767767 1.767767 
C -1.29895 2.236584 -0.663008 2.5 0 2.5 
z
"/>
    </defs>
    <g clip-path="url(#pc10e911a1e)">
     <use xlink:href="#C7_0_c8bc849951" x="220.957139" y="64.048545" style="fill: #820263; stroke: #ffffff"/>
    </g>
    <g clip-path="url(#pc10e911a1e)">
     <use xlink:href="#C7_0_c8bc849951" x="220.724441" y="42.549983" style="fill: #820263; stroke: #ffffff"/>
    </g>
   </g>
   <g id="PathCollection_9">
    <defs>
     <path id="C8_0_e4a996a635" d="M 0 2.5 
C 0.663008 2.5 1.29895 2.236584 1.767767 1.767767 
C 2.236584 1.29895 2.5 0.663008 2.5 -0 
C 2.5 -0.663008 2.236584 -1.29895 1.767767 -1.767767 
C 1.29895 -2.236584 0.663008 -2.5 0 -2.5 
C -0.663008 -2.5 -1.29895 -2.236584 -1.767767 -1.767767 
C -2.236584 -1.29895 -2.5 -0.663008 -2.5 0 
C -2.5 0.663008 -2.236584 1.29895 -1.767767 1.767767 
C -1.29895 2.236584 -0.663008 2.5 0 2.5 
z
"/>
    </defs>
    <g clip-path="url(#pc10e911a1e)">
     <use xlink:href="#C8_0_e4a996a635" x="234.488753" y="64.723421" style="fill: #fb8b24; stroke: #ffffff"/>
    </g>
    <g clip-path="url(#pc10e911a1e)">
     <use xlink:href="#C8_0_e4a996a635" x="235.008697" y="106.123981" style="fill: #fb8b24; stroke: #ffffff"/>
    </g>
    <g clip-path="url(#pc10e911a1e)">
     <use xlink:href="#C8_0_e4a996a635" x="234.819223" y="100.381401" style="fill: #fb8b24; stroke: #ffffff"/>
    </g>
    <g clip-path="url(#pc10e911a1e)">
     <use xlink:href="#C8_0_e4a996a635" x="234.665191" y="85.07291" style="fill: #fb8b24; stroke: #ffffff"/>
    </g>
    <g clip-path="url(#pc10e911a1e)">
     <use xlink:href="#C8_0_e4a996a635" x="235.437992" y="80.208752" style="fill: #fb8b24; stroke: #ffffff"/>
    </g>
   </g>
   <g id="text_36">
    <text style="font: 8px 'arial'; text-anchor: middle" x="219.99795" y="30.607177" transform="rotate(-0 219.99795 30.607177)">ns</text>
   </g>
   <g id="text_37">
    <text style="font: 8px 'arial'; text-anchor: middle" x="219.99795" y="14.749606" transform="rotate(-0 219.99795 14.749606)">Cerebellum</text>
   </g>
   <g id="legend_3"/>
  </g>
  <g id="axes_4">
   <g id="patch_20">
    <path d="M 272.203448 153.892913 
L 319.662992 153.892913 
L 319.662992 20.749606 
L 272.203448 20.749606 
L 272.203448 153.892913 
z
" style="fill: none"/>
   </g>
   <g id="patch_21">
    <path d="M 274.3607 153.892913 
L 286.687855 153.892913 
L 286.687855 91.849181 
L 274.3607 91.849181 
z
" clip-path="url(#p6b83d39301)" style="fill: #18936f; stroke: #ffffff; stroke-linejoin: miter"/>
   </g>
   <g id="patch_22">
    <path d="M 289.769643 153.892913 
L 302.096797 153.892913 
L 302.096797 53.609657 
L 289.769643 53.609657 
z
" clip-path="url(#p6b83d39301)" style="fill: #72125b; stroke: #ffffff; stroke-linejoin: miter"/>
   </g>
   <g id="patch_23">
    <path d="M 305.178586 153.892913 
L 317.50574 153.892913 
L 317.50574 91.702903 
L 305.178586 91.702903 
z
" clip-path="url(#p6b83d39301)" style="fill: #e08c3f; stroke: #ffffff; stroke-linejoin: miter"/>
   </g>
   <g id="matplotlib.axis_7">
    <g id="xtick_10">
     <g id="line2d_57">
      <g>
       <use xlink:href="#md967bf043c" x="280.524277" y="153.892913" style="stroke: #000000; stroke-width: 0.8"/>
      </g>
     </g>
     <g id="text_38">
      <text style="font: 8px 'arial'; text-anchor: middle" x="280.524277" y="166.619163" transform="rotate(-0 280.524277 166.619163)">CRL   </text>
     </g>
    </g>
    <g id="xtick_11">
     <g id="line2d_58">
      <g>
       <use xlink:href="#md967bf043c" x="295.93322" y="153.892913" style="stroke: #000000; stroke-width: 0.8"/>
      </g>
     </g>
     <g id="text_39">
      <text style="font: 8px 'arial'; text-anchor: middle" x="295.93322" y="166.619163" transform="rotate(-0 295.93322 166.619163)">SOD</text>
     </g>
    </g>
    <g id="xtick_12">
     <g id="line2d_59">
      <g>
       <use xlink:href="#md967bf043c" x="311.342163" y="153.892913" style="stroke: #000000; stroke-width: 0.8"/>
      </g>
     </g>
     <g id="text_40">
      <text style="font: 8px 'arial'; text-anchor: middle" x="311.342163" y="166.619163" transform="rotate(-0 311.342163 166.619163)">   TDP</text>
     </g>
    </g>
   </g>
   <g id="matplotlib.axis_8">
    <g id="ytick_18">
     <g id="line2d_60">
      <g>
       <use xlink:href="#mb01bb4ff38" x="272.203448" y="153.892913" style="stroke: #000000; stroke-width: 0.8"/>
      </g>
     </g>
     <g id="text_41">
      <text style="font: 8px 'arial'; text-anchor: end" x="265.203448" y="156.756038" transform="rotate(-0 265.203448 156.756038)">0</text>
     </g>
    </g>
    <g id="ytick_19">
     <g id="line2d_61">
      <g>
       <use xlink:href="#mb01bb4ff38" x="272.203448" y="121.913135" style="stroke: #000000; stroke-width: 0.8"/>
      </g>
     </g>
     <g id="text_42">
      <text style="font: 8px 'arial'; text-anchor: end" x="265.203448" y="124.77626" transform="rotate(-0 265.203448 124.77626)">50</text>
     </g>
    </g>
    <g id="ytick_20">
     <g id="line2d_62">
      <g>
       <use xlink:href="#mb01bb4ff38" x="272.203448" y="89.933356" style="stroke: #000000; stroke-width: 0.8"/>
      </g>
     </g>
     <g id="text_43">
      <text style="font: 8px 'arial'; text-anchor: end" x="265.203448" y="92.796481" transform="rotate(-0 265.203448 92.796481)">100</text>
     </g>
    </g>
    <g id="ytick_21">
     <g id="line2d_63">
      <g>
       <use xlink:href="#mb01bb4ff38" x="272.203448" y="57.953577" style="stroke: #000000; stroke-width: 0.8"/>
      </g>
     </g>
     <g id="text_44">
      <text style="font: 8px 'arial'; text-anchor: end" x="265.203448" y="60.816702" transform="rotate(-0 265.203448 60.816702)">150</text>
     </g>
    </g>
    <g id="ytick_22">
     <g id="line2d_64">
      <g>
       <use xlink:href="#mb01bb4ff38" x="272.203448" y="25.973798" style="stroke: #000000; stroke-width: 0.8"/>
      </g>
     </g>
     <g id="text_45">
      <text style="font: 8px 'arial'; text-anchor: end" x="265.203448" y="28.836923" transform="rotate(-0 265.203448 28.836923)">200</text>
     </g>
    </g>
    <g id="text_46">
     <text style="font: 8px 'arial'; text-anchor: middle" x="251.267198" y="87.32126" transform="rotate(-90 251.267198 87.32126)">Number of puncta</text>
    </g>
   </g>
   <g id="line2d_65">
    <path d="M 280.524277 107.060304 
L 280.524277 78.509468 
" clip-path="url(#p6b83d39301)" style="fill: none; stroke: #424242; stroke-linecap: square"/>
   </g>
   <g id="line2d_66">
    <path d="M 278.983383 107.060304 
L 282.065172 107.060304 
" clip-path="url(#p6b83d39301)" style="fill: none; stroke: #424242; stroke-linecap: square"/>
   </g>
   <g id="line2d_67">
    <path d="M 278.983383 78.509468 
L 282.065172 78.509468 
" clip-path="url(#p6b83d39301)" style="fill: none; stroke: #424242; stroke-linecap: square"/>
   </g>
   <g id="line2d_68">
    <path d="M 295.93322 64.66933 
L 295.93322 42.549983 
" clip-path="url(#p6b83d39301)" style="fill: none; stroke: #424242; stroke-linecap: square"/>
   </g>
   <g id="line2d_69">
    <path d="M 294.392326 64.66933 
L 297.474114 64.66933 
" clip-path="url(#p6b83d39301)" style="fill: none; stroke: #424242; stroke-linecap: square"/>
   </g>
   <g id="line2d_70">
    <path d="M 294.392326 42.549983 
L 297.474114 42.549983 
" clip-path="url(#p6b83d39301)" style="fill: none; stroke: #424242; stroke-linecap: square"/>
   </g>
   <g id="line2d_71">
    <path d="M 311.342163 103.425269 
L 311.342163 81.546303 
" clip-path="url(#p6b83d39301)" style="fill: none; stroke: #424242; stroke-linecap: square"/>
   </g>
   <g id="line2d_72">
    <path d="M 309.801269 103.425269 
L 312.883057 103.425269 
" clip-path="url(#p6b83d39301)" style="fill: none; stroke: #424242; stroke-linecap: square"/>
   </g>
   <g id="line2d_73">
    <path d="M 309.801269 81.546303 
L 312.883057 81.546303 
" clip-path="url(#p6b83d39301)" style="fill: none; stroke: #424242; stroke-linecap: square"/>
   </g>
   <g id="line2d_74">
    <path d="M 280.524277 35.535379 
L 280.524277 33.197177 
L 311.342163 33.197177 
L 311.342163 35.535379 
" clip-path="url(#p6b83d39301)" style="fill: none; stroke: #333333; stroke-width: 0.5; stroke-linecap: square"/>
   </g>
   <g id="patch_24">
    <path d="M 272.203448 153.892913 
L 272.203448 20.749606 
" style="fill: none; stroke: #000000; stroke-width: 0.8; stroke-linejoin: miter; stroke-linecap: square"/>
   </g>
   <g id="patch_25">
    <path d="M 272.203448 153.892913 
L 319.662992 153.892913 
" style="fill: none; stroke: #000000; stroke-width: 0.8; stroke-linejoin: miter; stroke-linecap: square"/>
   </g>
   <g id="PathCollection_10">
    <defs>
     <path id="C9_0_ea3157ceef" d="M 0 2.5 
C 0.663008 2.5 1.29895 2.236584 1.767767 1.767767 
C 2.236584 1.29895 2.5 0.663008 2.5 -0 
C 2.5 -0.663008 2.236584 -1.29895 1.767767 -1.767767 
C 1.29895 -2.236584 0.663008 -2.5 0 -2.5 
C -0.663008 -2.5 -1.29895 -2.236584 -1.767767 -1.767767 
C -2.236584 -1.29895 -2.5 -0.663008 -2.5 0 
C -2.5 0.663008 -2.236584 1.29895 -1.767767 1.767767 
C -1.29895 2.236584 -0.663008 2.5 0 2.5 
z
"/>
    </defs>
    <g clip-path="url(#p6b83d39301)">
     <use xlink:href="#C9_0_ea3157ceef" x="280.935825" y="101.446076" style="fill: #04a777; stroke: #ffffff"/>
    </g>
    <g clip-path="url(#p6b83d39301)">
     <use xlink:href="#C9_0_ea3157ceef" x="279.911359" y="107.060304" style="fill: #04a777; stroke: #ffffff"/>
    </g>
    <g clip-path="url(#p6b83d39301)">
     <use xlink:href="#C9_0_ea3157ceef" x="280.187935" y="67.041164" style="fill: #04a777; stroke: #ffffff"/>
    </g>
   </g>
   <g id="PathCollection_11">
    <defs>
     <path id="Ca_0_6d3b96c991" d="M 0 2.5 
C 0.663008 2.5 1.29895 2.236584 1.767767 1.767767 
C 2.236584 1.29895 2.5 0.663008 2.5 -0 
C 2.5 -0.663008 2.236584 -1.29895 1.767767 -1.767767 
C 1.29895 -2.236584 0.663008 -2.5 0 -2.5 
C -0.663008 -2.5 -1.29895 -2.236584 -1.767767 -1.767767 
C -2.236584 -1.29895 -2.5 -0.663008 -2.5 0 
C -2.5 0.663008 -2.236584 1.29895 -1.767767 1.767767 
C -1.29895 2.236584 -0.663008 2.5 0 2.5 
z
"/>
    </defs>
    <g clip-path="url(#p6b83d39301)">
     <use xlink:href="#Ca_0_6d3b96c991" x="294.980039" y="64.66933" style="fill: #820263; stroke: #ffffff"/>
    </g>
    <g clip-path="url(#p6b83d39301)">
     <use xlink:href="#Ca_0_6d3b96c991" x="295.680053" y="42.549983" style="fill: #820263; stroke: #ffffff"/>
    </g>
   </g>
   <g id="PathCollection_12">
    <defs>
     <path id="Cb_0_fa37bb1176" d="M 0 2.5 
C 0.663008 2.5 1.29895 2.236584 1.767767 1.767767 
C 2.236584 1.29895 2.5 0.663008 2.5 -0 
C 2.5 -0.663008 2.236584 -1.29895 1.767767 -1.767767 
C 1.29895 -2.236584 0.663008 -2.5 0 -2.5 
C -0.663008 -2.5 -1.29895 -2.236584 -1.767767 -1.767767 
C -2.236584 -1.29895 -2.5 -0.663008 -2.5 0 
C -2.5 0.663008 -2.236584 1.29895 -1.767767 1.767767 
C -1.29895 2.236584 -0.663008 2.5 0 2.5 
z
"/>
    </defs>
    <g clip-path="url(#p6b83d39301)">
     <use xlink:href="#Cb_0_fa37bb1176" x="312.08759" y="94.463824" style="fill: #fb8b24; stroke: #ffffff"/>
    </g>
    <g clip-path="url(#p6b83d39301)">
     <use xlink:href="#Cb_0_fa37bb1176" x="312.42718" y="89.880056" style="fill: #fb8b24; stroke: #ffffff"/>
    </g>
    <g clip-path="url(#p6b83d39301)">
     <use xlink:href="#Cb_0_fa37bb1176" x="310.207745" y="74.476463" style="fill: #fb8b24; stroke: #ffffff"/>
    </g>
    <g clip-path="url(#p6b83d39301)">
     <use xlink:href="#Cb_0_fa37bb1176" x="310.396634" y="111.484173" style="fill: #fb8b24; stroke: #ffffff"/>
    </g>
    <g clip-path="url(#p6b83d39301)">
     <use xlink:href="#Cb_0_fa37bb1176" x="312.238884" y="88.210001" style="fill: #fb8b24; stroke: #ffffff"/>
    </g>
   </g>
   <g id="text_47">
    <text style="font: 8px 'arial'; text-anchor: middle" x="295.93322" y="30.607177" transform="rotate(-0 295.93322 30.607177)">ns</text>
   </g>
   <g id="text_48">
    <text style="font: 8px 'arial'; text-anchor: middle" x="295.93322" y="14.749606" transform="rotate(-0 295.93322 14.749606)">Frontal cortex</text>
   </g>
   <g id="legend_4"/>
  </g>
 </g>
 <defs>
  <clipPath id="p371f0abadc">
   <rect x="44.397638" y="20.749606" width="47.459544" height="133.143307"/>
  </clipPath>
  <clipPath id="p447065b6eb">
   <rect x="120.332908" y="20.749606" width="47.459544" height="133.143307"/>
  </clipPath>
  <clipPath id="pc10e911a1e">
   <rect x="196.268178" y="20.749606" width="47.459544" height="133.143307"/>
  </clipPath>
  <clipPath id="p6b83d39301">
   <rect x="272.203448" y="20.749606" width="47.459544" height="133.143307"/>
  </clipPath>
 </defs>
 <defs>
  <pattern id="h0168a14ddc" patternUnits="userSpaceOnUse" x="0" y="0" width="72" height="72">
   <rect x="0" y="0" width="73" height="73" fill="#18936f"/>
   <path d="M -36 36 
L 36 -36 
M -32 40 
L 40 -32 
M -28 44 
L 44 -28 
M -24 48 
L 48 -24 
M -20 52 
L 52 -20 
M -16 56 
L 56 -16 
M -12 60 
L 60 -12 
M -8 64 
L 64 -8 
M -4 68 
L 68 -4 
M 0 72 
L 72 0 
M 4 76 
L 76 4 
M 8 80 
L 80 8 
M 12 84 
L 84 12 
M 16 88 
L 88 16 
M 20 92 
L 92 20 
M 24 96 
L 96 24 
M 28 100 
L 100 28 
M 32 104 
L 104 32 
M 36 108 
L 108 36 
" style="fill: #025038; stroke: #025038; stroke-width: 1.0; stroke-linecap: butt; stroke-linejoin: miter"/>
  </pattern>
  <pattern id="h2e678ed63a" patternUnits="userSpaceOnUse" x="0" y="0" width="72" height="72">
   <rect x="0" y="0" width="73" height="73" fill="#72125b"/>
   <path d="M -36 36 
L 36 -36 
M -32 40 
L 40 -32 
M -28 44 
L 44 -28 
M -24 48 
L 48 -24 
M -20 52 
L 52 -20 
M -16 56 
L 56 -16 
M -12 60 
L 60 -12 
M -8 64 
L 64 -8 
M -4 68 
L 68 -4 
M 0 72 
L 72 0 
M 4 76 
L 76 4 
M 8 80 
L 80 8 
M 12 84 
L 84 12 
M 16 88 
L 88 16 
M 20 92 
L 92 20 
M 24 96 
L 96 24 
M 28 100 
L 100 28 
M 32 104 
L 104 32 
M 36 108 
L 108 36 
" style="fill: #50013d; stroke: #50013d; stroke-width: 1.0; stroke-linecap: butt; stroke-linejoin: miter"/>
  </pattern>
  <pattern id="h56d7259ef9" patternUnits="userSpaceOnUse" x="0" y="0" width="72" height="72">
   <rect x="0" y="0" width="73" height="73" fill="#e08c3f"/>
   <path d="M -36 36 
L 36 -36 
M -32 40 
L 40 -32 
M -28 44 
L 44 -28 
M -24 48 
L 48 -24 
M -20 52 
L 52 -20 
M -16 56 
L 56 -16 
M -12 60 
L 60 -12 
M -8 64 
L 64 -8 
M -4 68 
L 68 -4 
M 0 72 
L 72 0 
M 4 76 
L 76 4 
M 8 80 
L 80 8 
M 12 84 
L 84 12 
M 16 88 
L 88 16 
M 20 92 
L 92 20 
M 24 96 
L 96 24 
M 28 100 
L 100 28 
M 32 104 
L 104 32 
M 36 108 
L 108 36 
" style="fill: #b45904; stroke: #b45904; stroke-width: 1.0; stroke-linecap: butt; stroke-linejoin: miter"/>
  </pattern>
 </defs>
</svg>
