<?xml version="1.0" encoding="utf-8" standalone="no"?>
<!DOCTYPE svg PUBLIC "-//W3C//DTD SVG 1.1//EN"
  "http://www.w3.org/Graphics/SVG/1.1/DTD/svg11.dtd">
<svg xmlns:xlink="http://www.w3.org/1999/xlink" width="457.407874pt" height="194.447638pt" viewBox="0 0 457.407874 194.447638" xmlns="http://www.w3.org/2000/svg" version="1.1">
 <metadata>
  <rdf:RDF xmlns:dc="http://purl.org/dc/elements/1.1/" xmlns:cc="http://creativecommons.org/ns#" xmlns:rdf="http://www.w3.org/1999/02/22-rdf-syntax-ns#">
   <cc:Work>
    <dc:type rdf:resource="http://purl.org/dc/dcmitype/StillImage"/>
    <dc:date>2025-03-02T19:50:39.906938</dc:date>
    <dc:format>image/svg+xml</dc:format>
    <dc:creator>
     <cc:Agent>
      <dc:title>Matplotlib v3.8.3, https://matplotlib.org/</dc:title>
     </cc:Agent>
    </dc:creator>
   </cc:Work>
  </rdf:RDF>
 </metadata>
 <defs>
  <style type="text/css">*{stroke-linejoin: round; stroke-linecap: butt}</style>
 </defs>
 <g id="figure_1">
  <g id="patch_1">
   <path d="M 0 194.447638 
L 457.407874 194.447638 
L 457.407874 0 
L 0 0 
L 0 194.447638 
z
" style="fill: none"/>
  </g>
  <g id="axes_1">
   <g id="patch_2">
    <path d="M 88.825984 43.4175 
L 44.11657 69.230492 
L 44.11657 120.856476 
L 88.825984 146.669469 
L 133.535398 120.856476 
L 133.535398 69.230492 
L 88.825984 43.4175 
z
" style="fill: none"/>
   </g>
   <g id="PolyCollection_1">
    <path d="M 88.825984 83.803668 
L 88.825984 77.783974 
L 75.301846 87.23532 
L 53.432462 115.477944 
L 88.825984 112.121802 
L 105.809257 104.848781 
L 107.784506 84.097777 
L 88.825984 77.783974 
L 88.825984 83.803668 
L 88.825984 83.803668 
L 99.244815 89.028169 
L 96.812109 99.654275 
L 88.825984 110.833741 
L 66.345892 108.022372 
L 84.006894 92.261181 
L 88.825984 83.803668 
z
" clip-path="url(#p7b3f095f61)" style="fill: #04a777; fill-opacity: 0.25"/>
   </g>
   <g id="PolyCollection_2">
    <path d="M 88.825984 70.176228 
L 88.825984 67.592908 
L 74.140079 86.564573 
L 79.045129 100.690463 
L 88.825984 125.500305 
L 121.661737 114.001215 
L 122.617267 75.534078 
L 88.825984 67.592908 
L 88.825984 70.176228 
L 88.825984 70.176228 
L 110.5704 82.48934 
L 110.015407 107.277203 
L 88.825984 113.721796 
L 81.438124 99.308867 
L 78.914919 89.321328 
L 88.825984 70.176228 
z
" clip-path="url(#p7b3f095f61)" style="fill: #820263; fill-opacity: 0.25"/>
   </g>
   <g id="PolyCollection_3">
    <path d="M 88.825984 76.292995 
L 88.825984 69.49427 
L 71.590261 85.092435 
L 78.268765 101.138698 
L 88.825984 121.528468 
L 122.847365 114.685738 
L 112.683109 81.269567 
L 88.825984 69.49427 
L 88.825984 76.292995 
L 88.825984 76.292995 
L 107.747672 84.119043 
L 107.235653 105.672311 
L 88.825984 117.134114 
L 83.517932 98.10809 
L 76.448224 87.897181 
L 88.825984 76.292995 
z
" clip-path="url(#p7b3f095f61)" style="fill: #fb8b24; fill-opacity: 0.25"/>
   </g>
   <g id="matplotlib.axis_1">
    <g id="xtick_1">
     <g id="line2d_1">
      <path d="M 88.825984 95.043484 
L 88.825984 86.439154 
L 88.825984 77.834823 
L 88.825984 69.230492 
L 88.825984 60.626161 
L 88.825984 52.021831 
L 88.825984 43.4175 
" clip-path="url(#p7b3f095f61)" style="fill: none; stroke: #b0b0b0; stroke-width: 0.8; stroke-linecap: square"/>
     </g>
     <g id="text_1">
      <text style="font: 8px 'arial'" transform="translate(78.377234 27.208)">Bright</text>
      <text style="font: 8px 'arial'" transform="translate(72.259109 35.76325)">&gt;0.9 A.U.</text>
     </g>
    </g>
    <g id="xtick_2">
     <g id="line2d_2">
      <path d="M 88.825984 95.043484 
L 81.374415 90.741319 
L 73.922846 86.439154 
L 66.471277 82.136988 
L 59.019708 77.834823 
L 51.568139 73.532657 
L 44.11657 69.230492 
" clip-path="url(#p7b3f095f61)" style="fill: none; stroke: #b0b0b0; stroke-width: 0.8; stroke-linecap: square"/>
     </g>
     <g id="text_2">
      <text style="font: 8px 'arial'; text-anchor: middle" x="31.992215" y="64.347367" transform="rotate(-0 31.992215 64.347367)">pSER</text>
     </g>
    </g>
    <g id="xtick_3">
     <g id="line2d_3">
      <path d="M 88.825984 95.043484 
L 81.374415 99.34565 
L 73.922846 103.647815 
L 66.471277 107.94998 
L 59.019708 112.252146 
L 51.568139 116.554311 
L 44.11657 120.856476 
" clip-path="url(#p7b3f095f61)" style="fill: none; stroke: #b0b0b0; stroke-width: 0.8; stroke-linecap: square"/>
     </g>
     <g id="text_3">
      <text style="font: 8px 'arial'" transform="translate(19.31909 121.388851)">Dense </text>
      <text style="font: 8px 'arial'" transform="translate(21.87159 129.850351)">&gt;0.01</text>
      <!-- locs/nm$^2$ -->
      <g transform="translate(16.272215 138.460351)">
       <text>
        <tspan style="font: 8px 'Arial'" x="0 1.777344 6.226562 10.226562 14.226562 16.449219 20.898438" y="-0.78125">locs/nm</tspan>
        <tspan style="font: 5.6px 'DejaVu Sans'" x="27.639063" y="-3.84375">2</tspan>
       </text>
      </g>
     </g>
    </g>
    <g id="xtick_4">
     <g id="line2d_4">
      <path d="M 88.825984 95.043484 
L 88.825984 103.647815 
L 88.825984 112.252146 
L 88.825984 120.856476 
L 88.825984 129.460807 
L 88.825984 138.065138 
L 88.825984 146.669469 
" clip-path="url(#p7b3f095f61)" style="fill: none; stroke: #b0b0b0; stroke-width: 0.8; stroke-linecap: square"/>
     </g>
     <g id="text_4">
      <text style="font: 8px 'arial'" transform="translate(75.715359 158.506844)">Fibrillar</text>
      <text style="font: 8px 'arial'" transform="translate(72.482859 166.968344)">&gt;0.9 ecc.</text>
     </g>
    </g>
    <g id="xtick_5">
     <g id="line2d_5">
      <path d="M 88.825984 95.043484 
L 96.277553 99.34565 
L 103.729122 103.647815 
L 111.180691 107.94998 
L 118.63226 112.252146 
L 126.083829 116.554311 
L 133.535398 120.856476 
" clip-path="url(#p7b3f095f61)" style="fill: none; stroke: #b0b0b0; stroke-width: 0.8; stroke-linecap: square"/>
     </g>
     <g id="text_5">
      <text style="font: 8px 'arial'" transform="translate(136.762254 125.646976)">Long</text>
      <text style="font: 8px 'arial'" transform="translate(129.982879 134.202226)">&gt;100 nm</text>
     </g>
    </g>
    <g id="xtick_6">
     <g id="line2d_6">
      <path d="M 88.825984 95.043484 
L 96.277553 90.741319 
L 103.729122 86.439154 
L 111.180691 82.136988 
L 118.63226 77.834823 
L 126.083829 73.532657 
L 133.535398 69.230492 
" clip-path="url(#p7b3f095f61)" style="fill: none; stroke: #b0b0b0; stroke-width: 0.8; stroke-linecap: square"/>
     </g>
     <g id="text_6">
      <text style="font: 8px 'arial'; text-anchor: middle" x="145.659754" y="64.298617" transform="rotate(-0 145.659754 64.298617)">Count</text>
     </g>
    </g>
   </g>
   <g id="matplotlib.axis_2">
    <g id="ytick_1">
     <g id="line2d_7">
      <path d="M 88.825984 95.043484 
L 88.825984 95.043484 
L 88.825984 95.043484 
L 88.825984 95.043484 
L 88.825984 95.043484 
L 88.825984 95.043484 
L 88.825984 95.043484 
" clip-path="url(#p7b3f095f61)" style="fill: none; stroke: #b0b0b0; stroke-width: 0.8; stroke-linecap: square"/>
     </g>
     <g id="text_7">
      <text style="font: 5px 'arial'; text-anchor: start" x="88.825984" y="94.049734" transform="rotate(-0 88.825984 94.049734)">0.0</text>
     </g>
    </g>
    <g id="ytick_2">
     <g id="line2d_8">
      <path d="M 88.825984 77.834823 
L 73.922846 86.439154 
L 73.922846 103.647815 
L 88.825984 112.252146 
L 103.729122 103.647815 
L 103.729122 86.439154 
L 88.825984 77.834823 
" clip-path="url(#p7b3f095f61)" style="fill: none; stroke: #b0b0b0; stroke-width: 0.8; stroke-linecap: square"/>
     </g>
     <g id="text_8">
      <text style="font: 5px 'arial'; text-anchor: start" x="82.240515" y="78.151004" transform="rotate(-0 82.240515 78.151004)">0.2</text>
     </g>
    </g>
    <g id="ytick_3">
     <g id="line2d_9">
      <path d="M 88.825984 60.626161 
L 59.019708 77.834823 
L 59.019708 112.252146 
L 88.825984 129.460807 
L 118.63226 112.252146 
L 118.63226 77.834823 
L 88.825984 60.626161 
" clip-path="url(#p7b3f095f61)" style="fill: none; stroke: #b0b0b0; stroke-width: 0.8; stroke-linecap: square"/>
     </g>
     <g id="text_9">
      <text style="font: 5px 'arial'; text-anchor: start" x="75.655045" y="62.252274" transform="rotate(-0 75.655045 62.252274)">0.4</text>
     </g>
    </g>
    <g id="ytick_4">
     <g id="line2d_10">
      <path d="M 88.825984 43.4175 
L 44.11657 69.230492 
L 44.11657 120.856476 
L 88.825984 146.669469 
L 133.535398 120.856476 
L 133.535398 69.230492 
L 88.825984 43.4175 
" clip-path="url(#p7b3f095f61)" style="fill: none; stroke: #b0b0b0; stroke-width: 0.8; stroke-linecap: square"/>
     </g>
     <g id="text_10">
      <text style="font: 5px 'arial'; text-anchor: start" x="69.069575" y="46.353544" transform="rotate(-0 69.069575 46.353544)">0.6</text>
     </g>
    </g>
   </g>
   <g id="line2d_11">
    <path d="M 88.825984 80.793821 
L 79.65437 89.74825 
L 59.889177 111.750158 
L 88.825984 111.477771 
L 101.310683 102.251528 
L 103.51466 86.562973 
L 88.825984 80.793821 
" clip-path="url(#p7b3f095f61)" style="fill: none; stroke: #04a777; stroke-width: 1.5; stroke-linecap: square"/>
   </g>
   <g id="line2d_12">
    <path d="M 88.825984 68.884568 
L 76.527499 87.942951 
L 80.241627 99.999665 
L 88.825984 119.61105 
L 115.838572 110.639209 
L 116.593834 79.011709 
L 88.825984 68.884568 
" clip-path="url(#p7b3f095f61)" style="fill: none; stroke: #820263; stroke-width: 1.5; stroke-linecap: square"/>
   </g>
   <g id="line2d_13">
    <path d="M 88.825984 72.893633 
L 74.019242 86.494808 
L 80.893349 99.623394 
L 88.825984 119.331291 
L 115.041509 110.179024 
L 110.215391 82.694305 
L 88.825984 72.893633 
" clip-path="url(#p7b3f095f61)" style="fill: none; stroke: #fb8b24; stroke-width: 1.5; stroke-linecap: square"/>
   </g>
   <g id="patch_3">
    <path d="M 88.825984 43.4175 
L 44.11657 69.230492 
L 44.11657 120.856476 
L 88.825984 146.669469 
L 133.535398 120.856476 
L 133.535398 69.230492 
L 88.825984 43.4175 
z
" style="fill: none; stroke: #000000; stroke-width: 0.8; stroke-linejoin: miter; stroke-linecap: square"/>
   </g>
  </g>
  <g id="axes_2">
   <g id="text_11">
    <text style="font: 700 12px 'arial'; text-anchor: start" x="7.2" y="15.789375" transform="rotate(-0 7.2 15.789375)">A</text>
   </g>
   <g id="text_12">
    <text style="font: 8px 'arial'; text-anchor: middle" x="88.825984" y="184.719905" transform="rotate(-0 88.825984 184.719905)">Cerebellum</text>
   </g>
   <g id="legend_1">
    <g id="line2d_14">
     <path d="M 21.531875 158.620758 
L 27.531875 158.620758 
L 33.531875 158.620758 
" style="fill: none; stroke: #04a777; stroke-width: 1.5; stroke-linecap: square"/>
    </g>
    <g id="text_13">
     <text style="font: 8px 'arial'; text-anchor: start" x="35.531875" y="161.420758" transform="rotate(-0 35.531875 161.420758)">CRL</text>
    </g>
    <g id="line2d_15">
     <path d="M 21.531875 169.937008 
L 27.531875 169.937008 
L 33.531875 169.937008 
" style="fill: none; stroke: #820263; stroke-width: 1.5; stroke-linecap: square"/>
    </g>
    <g id="text_14">
     <text style="font: 8px 'arial'; text-anchor: start" x="35.531875" y="172.737008" transform="rotate(-0 35.531875 172.737008)">SOD</text>
    </g>
    <g id="line2d_16">
     <path d="M 21.531875 181.253258 
L 27.531875 181.253258 
L 33.531875 181.253258 
" style="fill: none; stroke: #fb8b24; stroke-width: 1.5; stroke-linecap: square"/>
    </g>
    <g id="text_15">
     <text style="font: 8px 'arial'; text-anchor: start" x="35.531875" y="184.053258" transform="rotate(-0 35.531875 184.053258)">TDP</text>
    </g>
   </g>
   <g id="legend_2">
    <g id="line2d_17">
     <path d="M 21.531875 158.620758 
L 27.531875 158.620758 
L 33.531875 158.620758 
" style="fill: none; stroke: #04a777; stroke-width: 1.5; stroke-linecap: square"/>
    </g>
    <g id="text_16">
     <text style="font: 8px 'arial'; text-anchor: start" x="35.531875" y="161.420758" transform="rotate(-0 35.531875 161.420758)">CRL</text>
    </g>
    <g id="line2d_18">
     <path d="M 21.531875 169.937008 
L 27.531875 169.937008 
L 33.531875 169.937008 
" style="fill: none; stroke: #820263; stroke-width: 1.5; stroke-linecap: square"/>
    </g>
    <g id="text_17">
     <text style="font: 8px 'arial'; text-anchor: start" x="35.531875" y="172.737008" transform="rotate(-0 35.531875 172.737008)">SOD</text>
    </g>
    <g id="line2d_19">
     <path d="M 21.531875 181.253258 
L 27.531875 181.253258 
L 33.531875 181.253258 
" style="fill: none; stroke: #fb8b24; stroke-width: 1.5; stroke-linecap: square"/>
    </g>
    <g id="text_18">
     <text style="font: 8px 'arial'; text-anchor: start" x="35.531875" y="184.053258" transform="rotate(-0 35.531875 184.053258)">TDP</text>
    </g>
   </g>
  </g>
  <g id="axes_3">
   <g id="patch_4">
    <path d="M 243.703937 43.4175 
L 198.994523 69.230492 
L 198.994523 120.856476 
L 243.703937 146.669469 
L 288.413351 120.856476 
L 288.413351 69.230492 
L 243.703937 43.4175 
z
" style="fill: none"/>
   </g>
   <g id="PolyCollection_4">
    <path d="M 243.703937 78.475665 
L 243.703937 58.187068 
L 226.276773 84.981907 
L 214.84698 111.704056 
L 243.703937 112.313936 
L 262.109395 105.66988 
L 286.400408 70.392666 
L 243.703937 58.187068 
L 243.703937 78.475665 
L 243.703937 78.475665 
L 261.950105 84.509054 
L 259.249804 104.018895 
L 243.703937 110.727147 
L 220.606704 108.378678 
L 230.524909 87.434569 
L 243.703937 78.475665 
z
" clip-path="url(#p76c722680c)" style="fill: #04a777; fill-opacity: 0.25"/>
   </g>
   <g id="PolyCollection_5">
    <path d="M 243.703937 69.187991 
L 243.703937 63.552589 
L 227.840332 85.884628 
L 206.800396 116.349754 
L 243.703937 121.100658 
L 273.592293 112.299535 
L 276.080791 76.350699 
L 243.703937 63.552589 
L 243.703937 69.187991 
L 243.703937 69.187991 
L 265.233196 82.613561 
L 269.053868 109.679274 
L 243.703937 112.695776 
L 241.266333 96.450835 
L 232.051651 88.316034 
L 243.703937 69.187991 
z
" clip-path="url(#p76c722680c)" style="fill: #820263; fill-opacity: 0.25"/>
   </g>
   <g id="PolyCollection_6">
    <path d="M 243.703937 82.114666 
L 243.703937 67.403875 
L 223.622557 83.449494 
L 220.785948 108.275192 
L 243.703937 116.569848 
L 281.004142 116.578768 
L 270.480607 79.583967 
L 243.703937 67.403875 
L 243.703937 82.114666 
L 243.703937 82.114666 
L 257.258273 87.217885 
L 264.075254 106.804869 
L 243.703937 111.551758 
L 240.009887 97.176245 
L 238.708897 92.159596 
L 243.703937 82.114666 
z
" clip-path="url(#p76c722680c)" style="fill: #fb8b24; fill-opacity: 0.25"/>
   </g>
   <g id="matplotlib.axis_3">
    <g id="xtick_7">
     <g id="line2d_20">
      <path d="M 243.703937 95.043484 
L 243.703937 86.439154 
L 243.703937 77.834823 
L 243.703937 69.230492 
L 243.703937 60.626161 
L 243.703937 52.021831 
L 243.703937 43.4175 
" clip-path="url(#p76c722680c)" style="fill: none; stroke: #b0b0b0; stroke-width: 0.8; stroke-linecap: square"/>
     </g>
     <g id="text_19">
      <text style="font: 8px 'arial'" transform="translate(233.255187 27.208)">Bright</text>
      <text style="font: 8px 'arial'" transform="translate(227.137062 35.76325)">&gt;0.9 A.U.</text>
     </g>
    </g>
    <g id="xtick_8">
     <g id="line2d_21">
      <path d="M 243.703937 95.043484 
L 236.252368 90.741319 
L 228.800799 86.439154 
L 221.34923 82.136988 
L 213.897661 77.834823 
L 206.446092 73.532657 
L 198.994523 69.230492 
" clip-path="url(#p76c722680c)" style="fill: none; stroke: #b0b0b0; stroke-width: 0.8; stroke-linecap: square"/>
     </g>
     <g id="text_20">
      <text style="font: 8px 'arial'; text-anchor: middle" x="186.870167" y="64.347367" transform="rotate(-0 186.870167 64.347367)">pSER</text>
     </g>
    </g>
    <g id="xtick_9">
     <g id="line2d_22">
      <path d="M 243.703937 95.043484 
L 236.252368 99.34565 
L 228.800799 103.647815 
L 221.34923 107.94998 
L 213.897661 112.252146 
L 206.446092 116.554311 
L 198.994523 120.856476 
" clip-path="url(#p76c722680c)" style="fill: none; stroke: #b0b0b0; stroke-width: 0.8; stroke-linecap: square"/>
     </g>
     <g id="text_21">
      <text style="font: 8px 'arial'" transform="translate(174.197042 121.388851)">Dense </text>
      <text style="font: 8px 'arial'" transform="translate(176.749542 129.850351)">&gt;0.01</text>
      <!-- locs/nm$^2$ -->
      <g transform="translate(171.150167 138.460351)">
       <text>
        <tspan style="font: 8px 'Arial'" x="0 1.777344 6.226562 10.226562 14.226562 16.449219 20.898438" y="-0.78125">locs/nm</tspan>
        <tspan style="font: 5.6px 'DejaVu Sans'" x="27.639063" y="-3.84375">2</tspan>
       </text>
      </g>
     </g>
    </g>
    <g id="xtick_10">
     <g id="line2d_23">
      <path d="M 243.703937 95.043484 
L 243.703937 103.647815 
L 243.703937 112.252146 
L 243.703937 120.856476 
L 243.703937 129.460807 
L 243.703937 138.065138 
L 243.703937 146.669469 
" clip-path="url(#p76c722680c)" style="fill: none; stroke: #b0b0b0; stroke-width: 0.8; stroke-linecap: square"/>
     </g>
     <g id="text_22">
      <text style="font: 8px 'arial'" transform="translate(230.593312 158.506844)">Fibrillar</text>
      <text style="font: 8px 'arial'" transform="translate(227.360812 166.968344)">&gt;0.9 ecc.</text>
     </g>
    </g>
    <g id="xtick_11">
     <g id="line2d_24">
      <path d="M 243.703937 95.043484 
L 251.155506 99.34565 
L 258.607075 103.647815 
L 266.058644 107.94998 
L 273.510213 112.252146 
L 280.961782 116.554311 
L 288.413351 120.856476 
" clip-path="url(#p76c722680c)" style="fill: none; stroke: #b0b0b0; stroke-width: 0.8; stroke-linecap: square"/>
     </g>
     <g id="text_23">
      <text style="font: 8px 'arial'" transform="translate(291.640207 125.646976)">Long</text>
      <text style="font: 8px 'arial'" transform="translate(284.860832 134.202226)">&gt;100 nm</text>
     </g>
    </g>
    <g id="xtick_12">
     <g id="line2d_25">
      <path d="M 243.703937 95.043484 
L 251.155506 90.741319 
L 258.607075 86.439154 
L 266.058644 82.136988 
L 273.510213 77.834823 
L 280.961782 73.532657 
L 288.413351 69.230492 
" clip-path="url(#p76c722680c)" style="fill: none; stroke: #b0b0b0; stroke-width: 0.8; stroke-linecap: square"/>
     </g>
     <g id="text_24">
      <text style="font: 8px 'arial'; text-anchor: middle" x="300.537707" y="64.298617" transform="rotate(-0 300.537707 64.298617)">Count</text>
     </g>
    </g>
   </g>
   <g id="matplotlib.axis_4">
    <g id="ytick_5">
     <g id="line2d_26">
      <path d="M 243.703937 95.043484 
L 243.703937 95.043484 
L 243.703937 95.043484 
L 243.703937 95.043484 
L 243.703937 95.043484 
L 243.703937 95.043484 
L 243.703937 95.043484 
" clip-path="url(#p76c722680c)" style="fill: none; stroke: #b0b0b0; stroke-width: 0.8; stroke-linecap: square"/>
     </g>
     <g id="text_25">
      <text style="font: 5px 'arial'; text-anchor: start" x="243.703937" y="94.049734" transform="rotate(-0 243.703937 94.049734)">0.0</text>
     </g>
    </g>
    <g id="ytick_6">
     <g id="line2d_27">
      <path d="M 243.703937 78.511602 
L 229.386907 86.777543 
L 229.386907 103.309426 
L 243.703937 111.575367 
L 258.020967 103.309426 
L 258.020967 86.777543 
L 243.703937 78.511602 
" clip-path="url(#p76c722680c)" style="fill: none; stroke: #b0b0b0; stroke-width: 0.8; stroke-linecap: square"/>
     </g>
     <g id="text_26">
      <text style="font: 5px 'arial'; text-anchor: start" x="237.377459" y="78.776266" transform="rotate(-0 237.377459 78.776266)">0.2</text>
     </g>
    </g>
    <g id="ytick_7">
     <g id="line2d_28">
      <path d="M 243.703937 61.979719 
L 215.069876 78.511602 
L 215.069876 111.575367 
L 243.703937 128.10725 
L 272.337998 111.575367 
L 272.337998 78.511602 
L 243.703937 61.979719 
" clip-path="url(#p76c722680c)" style="fill: none; stroke: #b0b0b0; stroke-width: 0.8; stroke-linecap: square"/>
     </g>
     <g id="text_27">
      <text style="font: 5px 'arial'; text-anchor: start" x="231.050982" y="63.502798" transform="rotate(-0 231.050982 63.502798)">0.4</text>
     </g>
    </g>
    <g id="ytick_8">
     <g id="line2d_29">
      <path d="M 243.703937 45.447836 
L 200.752846 70.24566 
L 200.752846 119.841308 
L 243.703937 144.639132 
L 286.655028 119.841308 
L 286.655028 70.24566 
L 243.703937 45.447836 
" clip-path="url(#p76c722680c)" style="fill: none; stroke: #b0b0b0; stroke-width: 0.8; stroke-linecap: square"/>
     </g>
     <g id="text_28">
      <text style="font: 5px 'arial'; text-anchor: start" x="224.724504" y="48.22933" transform="rotate(-0 224.724504 48.22933)">0.6</text>
     </g>
    </g>
   </g>
   <g id="line2d_30">
    <path d="M 243.703937 68.331367 
L 228.400841 86.208238 
L 217.726842 110.041367 
L 243.703937 111.520541 
L 260.679599 104.844387 
L 274.175256 77.45086 
L 243.703937 68.331367 
" clip-path="url(#p76c722680c)" style="fill: none; stroke: #04a777; stroke-width: 1.5; stroke-linecap: square"/>
   </g>
   <g id="line2d_31">
    <path d="M 243.703937 66.37029 
L 229.945992 87.100331 
L 224.033365 106.400295 
L 243.703937 116.898217 
L 271.32308 110.989404 
L 270.656994 79.48213 
L 243.703937 66.37029 
" clip-path="url(#p76c722680c)" style="fill: none; stroke: #820263; stroke-width: 1.5; stroke-linecap: square"/>
   </g>
   <g id="line2d_32">
    <path d="M 243.703937 74.759271 
L 231.165727 87.804545 
L 230.397917 102.725718 
L 243.703937 114.060803 
L 272.539698 111.691819 
L 263.86944 83.400926 
L 243.703937 74.759271 
" clip-path="url(#p76c722680c)" style="fill: none; stroke: #fb8b24; stroke-width: 1.5; stroke-linecap: square"/>
   </g>
   <g id="patch_5">
    <path d="M 243.703937 43.4175 
L 198.994523 69.230492 
L 198.994523 120.856476 
L 243.703937 146.669469 
L 288.413351 120.856476 
L 288.413351 69.230492 
L 243.703937 43.4175 
z
" style="fill: none; stroke: #000000; stroke-width: 0.8; stroke-linejoin: miter; stroke-linecap: square"/>
   </g>
  </g>
  <g id="axes_4">
   <g id="text_29">
    <text style="font: 8px 'arial'; text-anchor: middle" x="243.703937" y="184.719905" transform="rotate(-0 243.703937 184.719905)">Frontal cortex</text>
   </g>
  </g>
  <g id="axes_5">
   <g id="patch_6">
    <path d="M 346.955906 161.615138 
L 450.207874 161.615138 
L 450.207874 28.471831 
L 346.955906 28.471831 
L 346.955906 161.615138 
z
" style="fill: none"/>
   </g>
   <g id="PathCollection_1">
    <path d="M 416.144035 122.029695 
C 417.081669 122.029695 417.981027 121.657169 418.644035 120.994161 
C 419.307043 120.331153 419.679569 119.431795 419.679569 118.494161 
C 419.679569 117.556526 419.307043 116.657169 418.644035 115.994161 
C 417.981027 115.331153 417.081669 114.958627 416.144035 114.958627 
C 415.2064 114.958627 414.307043 115.331153 413.644035 115.994161 
C 412.981027 116.657169 412.608501 117.556526 412.608501 118.494161 
C 412.608501 119.431795 412.981027 120.331153 413.644035 120.994161 
C 414.307043 121.657169 415.2064 122.029695 416.144035 122.029695 
z
" clip-path="url(#p64066cf3dc)" style="fill: #820263; stroke: #ffffff; stroke-width: 0.565685"/>
    <path d="M 420.87785 120.011616 
C 421.815485 120.011616 422.714842 119.63909 423.37785 118.976082 
C 424.040858 118.313074 424.413384 117.413716 424.413384 116.476082 
C 424.413384 115.538447 424.040858 114.63909 423.37785 113.976082 
C 422.714842 113.313074 421.815485 112.940548 420.87785 112.940548 
C 419.940216 112.940548 419.040858 113.313074 418.37785 113.976082 
C 417.714842 114.63909 417.342316 115.538447 417.342316 116.476082 
C 417.342316 117.413716 417.714842 118.313074 418.37785 118.976082 
C 419.040858 119.63909 419.940216 120.011616 420.87785 120.011616 
z
" clip-path="url(#p64066cf3dc)" style="fill: #820263; stroke: #ffffff; stroke-width: 0.565685"/>
    <path d="M 426.996417 83.972145 
C 427.934051 83.972145 428.833409 83.599619 429.496417 82.936611 
C 430.159425 82.273604 430.531951 81.374246 430.531951 80.436611 
C 430.531951 79.498977 430.159425 78.599619 429.496417 77.936611 
C 428.833409 77.273604 427.934051 76.901077 426.996417 76.901077 
C 426.058782 76.901077 425.159425 77.273604 424.496417 77.936611 
C 423.833409 78.599619 423.460883 79.498977 423.460883 80.436611 
C 423.460883 81.374246 423.833409 82.273604 424.496417 82.936611 
C 425.159425 83.599619 426.058782 83.972145 426.996417 83.972145 
z
" clip-path="url(#p64066cf3dc)" style="fill: #fb8b24; stroke: #ffffff; stroke-width: 0.565685"/>
    <path d="M 429.724044 109.383433 
C 430.661679 109.383433 431.561036 109.010907 432.224044 108.347899 
C 432.887052 107.684892 433.259578 106.785534 433.259578 105.847899 
C 433.259578 104.910265 432.887052 104.010907 432.224044 103.347899 
C 431.561036 102.684892 430.661679 102.312366 429.724044 102.312366 
C 428.78641 102.312366 427.887052 102.684892 427.224044 103.347899 
C 426.561036 104.010907 426.18851 104.910265 426.18851 105.847899 
C 426.18851 106.785534 426.561036 107.684892 427.224044 108.347899 
C 427.887052 109.010907 428.78641 109.383433 429.724044 109.383433 
z
" clip-path="url(#p64066cf3dc)" style="fill: #fb8b24; stroke: #ffffff; stroke-width: 0.565685"/>
    <path d="M 431.931178 81.574422 
C 432.868813 81.574422 433.768171 81.201895 434.431178 80.538888 
C 435.094186 79.87588 435.466712 78.976522 435.466712 78.038888 
C 435.466712 77.101253 435.094186 76.201895 434.431178 75.538888 
C 433.768171 74.87588 432.868813 74.503354 431.931178 74.503354 
C 430.993544 74.503354 430.094186 74.87588 429.431178 75.538888 
C 428.768171 76.201895 428.395644 77.101253 428.395644 78.038888 
C 428.395644 78.976522 428.768171 79.87588 429.431178 80.538888 
C 430.094186 81.201895 430.993544 81.574422 431.931178 81.574422 
z
" clip-path="url(#p64066cf3dc)" style="fill: #fb8b24; stroke: #ffffff; stroke-width: 0.565685"/>
    <path d="M 436.934548 84.004843 
C 437.872182 84.004843 438.77154 83.632317 439.434548 82.96931 
C 440.097555 82.306302 440.470082 81.406944 440.470082 80.46931 
C 440.470082 79.531675 440.097555 78.632317 439.434548 77.96931 
C 438.77154 77.306302 437.872182 76.933776 436.934548 76.933776 
C 435.996913 76.933776 435.097555 77.306302 434.434548 77.96931 
C 433.77154 78.632317 433.399014 79.531675 433.399014 80.46931 
C 433.399014 81.406944 433.77154 82.306302 434.434548 82.96931 
C 435.097555 83.632317 435.996913 84.004843 436.934548 84.004843 
z
" clip-path="url(#p64066cf3dc)" style="fill: #fb8b24; stroke: #ffffff; stroke-width: 0.565685"/>
    <path d="M 431.324851 87.869736 
C 432.262486 87.869736 433.161843 87.49721 433.824851 86.834202 
C 434.487859 86.171194 434.860385 85.271837 434.860385 84.334202 
C 434.860385 83.396568 434.487859 82.49721 433.824851 81.834202 
C 433.161843 81.171194 432.262486 80.798668 431.324851 80.798668 
C 430.387217 80.798668 429.487859 81.171194 428.824851 81.834202 
C 428.161843 82.49721 427.789317 83.396568 427.789317 84.334202 
C 427.789317 85.271837 428.161843 86.171194 428.824851 86.834202 
C 429.487859 87.49721 430.387217 87.869736 431.324851 87.869736 
z
" clip-path="url(#p64066cf3dc)" style="fill: #fb8b24; stroke: #ffffff; stroke-width: 0.565685"/>
    <path d="M 352.827579 52.410403 
C 353.765214 52.410403 354.664572 52.037876 355.327579 51.374869 
C 355.990587 50.711861 356.363113 49.812503 356.363113 48.874869 
C 356.363113 47.937234 355.990587 47.037876 355.327579 46.374869 
C 354.664572 45.711861 353.765214 45.339335 352.827579 45.339335 
C 351.889945 45.339335 350.990587 45.711861 350.327579 46.374869 
C 349.664572 47.037876 349.292045 47.937234 349.292045 48.874869 
C 349.292045 49.812503 349.664572 50.711861 350.327579 51.374869 
C 350.990587 52.037876 351.889945 52.410403 352.827579 52.410403 
z
" clip-path="url(#p64066cf3dc)" style="fill: #04a777; stroke: #ffffff; stroke-width: 0.565685"/>
    <path d="M 358.52886 60.41268 
C 359.466495 60.41268 360.365853 60.040154 361.02886 59.377146 
C 361.691868 58.714138 362.064394 57.814781 362.064394 56.877146 
C 362.064394 55.939511 361.691868 55.040154 361.02886 54.377146 
C 360.365853 53.714138 359.466495 53.341612 358.52886 53.341612 
C 357.591226 53.341612 356.691868 53.714138 356.02886 54.377146 
C 355.365853 55.040154 354.993326 55.939511 354.993326 56.877146 
C 354.993326 57.814781 355.365853 58.714138 356.02886 59.377146 
C 356.691868 60.040154 357.591226 60.41268 358.52886 60.41268 
z
" clip-path="url(#p64066cf3dc)" style="fill: #04a777; stroke: #ffffff; stroke-width: 0.565685"/>
    <path d="M 356.871455 61.783406 
C 357.80909 61.783406 358.708447 61.41088 359.371455 60.747872 
C 360.034463 60.084865 360.406989 59.185507 360.406989 58.247872 
C 360.406989 57.310238 360.034463 56.41088 359.371455 55.747872 
C 358.708447 55.084865 357.80909 54.712338 356.871455 54.712338 
C 355.933821 54.712338 355.034463 55.084865 354.371455 55.747872 
C 353.708447 56.41088 353.335921 57.310238 353.335921 58.247872 
C 353.335921 59.185507 353.708447 60.084865 354.371455 60.747872 
C 355.034463 61.41088 355.933821 61.783406 356.871455 61.783406 
z
" clip-path="url(#p64066cf3dc)" style="fill: #04a777; stroke: #ffffff; stroke-width: 0.565685"/>
    <path d="M 413.928753 158.671301 
L 415.69652 156.903534 
L 417.464287 158.671301 
L 419.232054 156.903534 
L 417.464287 155.135767 
L 419.232054 153.368 
L 417.464287 151.600233 
L 415.69652 153.368 
L 413.928753 151.600233 
L 412.160986 153.368 
L 413.928753 155.135767 
L 412.160986 156.903534 
z
" clip-path="url(#p64066cf3dc)" style="fill: #820263; stroke: #ffffff; stroke-width: 0.565685"/>
    <path d="M 410.756358 152.577231 
L 412.524125 150.809464 
L 414.291892 152.577231 
L 416.059659 150.809464 
L 414.291892 149.041697 
L 416.059659 147.27393 
L 414.291892 145.506163 
L 412.524125 147.27393 
L 410.756358 145.506163 
L 408.988591 147.27393 
L 410.756358 149.041697 
L 408.988591 150.809464 
z
" clip-path="url(#p64066cf3dc)" style="fill: #820263; stroke: #ffffff; stroke-width: 0.565685"/>
    <path d="M 446.671854 46.692672 
L 448.439621 44.924905 
L 450.207388 46.692672 
L 451.975155 44.924905 
L 450.207388 43.157138 
L 451.975155 41.389371 
L 450.207388 39.621604 
L 448.439621 41.389371 
L 446.671854 39.621604 
L 444.904087 41.389371 
L 446.671854 43.157138 
L 444.904087 44.924905 
z
" clip-path="url(#p64066cf3dc)" style="fill: #fb8b24; stroke: #ffffff; stroke-width: 0.565685"/>
    <path d="M 448.473996 48.514128 
L 450.241763 46.746361 
L 452.00953 48.514128 
L 453.777297 46.746361 
L 452.00953 44.978594 
L 453.777297 43.210827 
L 452.00953 41.44306 
L 450.241763 43.210827 
L 448.473996 41.44306 
L 446.70623 43.210827 
L 448.473996 44.978594 
L 446.70623 46.746361 
z
" clip-path="url(#p64066cf3dc)" style="fill: #fb8b24; stroke: #ffffff; stroke-width: 0.565685"/>
    <path d="M 445.454323 41.768772 
L 447.22209 40.001005 
L 448.989857 41.768772 
L 450.757624 40.001005 
L 448.989857 38.233238 
L 450.757624 36.465471 
L 448.989857 34.697704 
L 447.22209 36.465471 
L 445.454323 34.697704 
L 443.686556 36.465471 
L 445.454323 38.233238 
L 443.686556 40.001005 
z
" clip-path="url(#p64066cf3dc)" style="fill: #fb8b24; stroke: #ffffff; stroke-width: 0.565685"/>
    <path d="M 443.158166 48.862232 
L 444.925933 47.094465 
L 446.6937 48.862232 
L 448.461467 47.094465 
L 446.6937 45.326698 
L 448.461467 43.558931 
L 446.6937 41.791164 
L 444.925933 43.558931 
L 443.158166 41.791164 
L 441.390399 43.558931 
L 443.158166 45.326698 
L 441.390399 47.094465 
z
" clip-path="url(#p64066cf3dc)" style="fill: #fb8b24; stroke: #ffffff; stroke-width: 0.565685"/>
    <path d="M 446.154235 37.805075 
L 447.922002 36.037308 
L 449.689769 37.805075 
L 451.457536 36.037308 
L 449.689769 34.269541 
L 451.457536 32.501774 
L 449.689769 30.734007 
L 447.922002 32.501774 
L 446.154235 30.734007 
L 444.386468 32.501774 
L 446.154235 34.269541 
L 444.386468 36.037308 
z
" clip-path="url(#p64066cf3dc)" style="fill: #fb8b24; stroke: #ffffff; stroke-width: 0.565685"/>
    <path d="M 406.921999 49.708956 
L 408.689766 47.941189 
L 410.457533 49.708956 
L 412.225299 47.941189 
L 410.457533 46.173422 
L 412.225299 44.405655 
L 410.457533 42.637888 
L 408.689766 44.405655 
L 406.921999 42.637888 
L 405.154232 44.405655 
L 406.921999 46.173422 
L 405.154232 47.941189 
z
" clip-path="url(#p64066cf3dc)" style="fill: #04a777; stroke: #ffffff; stroke-width: 0.565685"/>
    <path d="M 405.632753 42.685374 
L 407.400519 40.917607 
L 409.168286 42.685374 
L 410.936053 40.917607 
L 409.168286 39.14984 
L 410.936053 37.382073 
L 409.168286 35.614306 
L 407.400519 37.382073 
L 405.632753 35.614306 
L 403.864986 37.382073 
L 405.632753 39.14984 
L 403.864986 40.917607 
z
" clip-path="url(#p64066cf3dc)" style="fill: #04a777; stroke: #ffffff; stroke-width: 0.565685"/>
    <path d="M 405.048861 37.031222 
L 406.816628 35.263455 
L 408.584395 37.031222 
L 410.352162 35.263455 
L 408.584395 33.495688 
L 410.352162 31.727921 
L 408.584395 29.960154 
L 406.816628 31.727921 
L 405.048861 29.960154 
L 403.281094 31.727921 
L 405.048861 33.495688 
L 403.281094 35.263455 
z
" clip-path="url(#p64066cf3dc)" style="fill: #04a777; stroke: #ffffff; stroke-width: 0.565685"/>
   </g>
   <g id="PathCollection_2"/>
   <g id="PathCollection_3"/>
   <g id="PathCollection_4"/>
   <g id="PathCollection_5"/>
   <g id="PathCollection_6"/>
   <g id="matplotlib.axis_5">
    <g id="xtick_13">
     <g id="line2d_33">
      <defs>
       <path id="mf0a65a5a95" d="M 0 0 
L 0 3.5 
" style="stroke: #000000; stroke-width: 0.8"/>
      </defs>
      <g>
       <use xlink:href="#mf0a65a5a95" x="363.258848" y="161.615138" style="stroke: #000000; stroke-width: 0.8"/>
      </g>
     </g>
     <g id="text_30">
      <text style="font: 8px 'arial'; text-anchor: middle" x="363.258848" y="174.341388" transform="rotate(-0 363.258848 174.341388)">−20</text>
     </g>
    </g>
    <g id="xtick_14">
     <g id="line2d_34">
      <g>
       <use xlink:href="#mf0a65a5a95" x="390.430419" y="161.615138" style="stroke: #000000; stroke-width: 0.8"/>
      </g>
     </g>
     <g id="text_31">
      <text style="font: 8px 'arial'; text-anchor: middle" x="390.430419" y="174.341388" transform="rotate(-0 390.430419 174.341388)">−10</text>
     </g>
    </g>
    <g id="xtick_15">
     <g id="line2d_35">
      <g>
       <use xlink:href="#mf0a65a5a95" x="417.601989" y="161.615138" style="stroke: #000000; stroke-width: 0.8"/>
      </g>
     </g>
     <g id="text_32">
      <text style="font: 8px 'arial'; text-anchor: middle" x="417.601989" y="174.341388" transform="rotate(-0 417.601989 174.341388)">0</text>
     </g>
    </g>
    <g id="xtick_16">
     <g id="line2d_36">
      <g>
       <use xlink:href="#mf0a65a5a95" x="444.77356" y="161.615138" style="stroke: #000000; stroke-width: 0.8"/>
      </g>
     </g>
     <g id="text_33">
      <text style="font: 8px 'arial'; text-anchor: middle" x="444.77356" y="174.341388" transform="rotate(-0 444.77356 174.341388)">10</text>
     </g>
    </g>
    <g id="text_34">
     <text style="font: 8px 'arial'; text-anchor: middle" x="398.58189" y="185.657638" transform="rotate(-0 398.58189 185.657638)">Dimension 1</text>
    </g>
   </g>
   <g id="matplotlib.axis_6">
    <g id="ytick_9">
     <g id="line2d_37">
      <defs>
       <path id="m59c6b5d4c9" d="M 0 0 
L -3.5 0 
" style="stroke: #000000; stroke-width: 0.8"/>
      </defs>
      <g>
       <use xlink:href="#m59c6b5d4c9" x="346.955906" y="146.821437" style="stroke: #000000; stroke-width: 0.8"/>
      </g>
     </g>
     <g id="text_35">
      <text style="font: 8px 'arial'; text-anchor: end" x="339.955906" y="149.684562" transform="rotate(-0 339.955906 149.684562)">-10</text>
     </g>
    </g>
    <g id="ytick_10">
     <g id="line2d_38">
      <g>
       <use xlink:href="#m59c6b5d4c9" x="346.955906" y="109.837185" style="stroke: #000000; stroke-width: 0.8"/>
      </g>
     </g>
     <g id="text_36">
      <text style="font: 8px 'arial'; text-anchor: end" x="339.955906" y="112.70031" transform="rotate(-0 339.955906 112.70031)">-5</text>
     </g>
    </g>
    <g id="ytick_11">
     <g id="line2d_39">
      <g>
       <use xlink:href="#m59c6b5d4c9" x="346.955906" y="72.852933" style="stroke: #000000; stroke-width: 0.8"/>
      </g>
     </g>
     <g id="text_37">
      <text style="font: 8px 'arial'; text-anchor: end" x="339.955906" y="75.716058" transform="rotate(-0 339.955906 75.716058)">0</text>
     </g>
    </g>
    <g id="ytick_12">
     <g id="line2d_40">
      <g>
       <use xlink:href="#m59c6b5d4c9" x="346.955906" y="35.868681" style="stroke: #000000; stroke-width: 0.8"/>
      </g>
     </g>
     <g id="text_38">
      <text style="font: 8px 'arial'; text-anchor: end" x="339.955906" y="38.731806" transform="rotate(-0 339.955906 38.731806)">5</text>
     </g>
    </g>
    <g id="text_39">
     <text style="font: 8px 'arial'; text-anchor: middle" x="327.804656" y="95.043484" transform="rotate(-90 327.804656 95.043484)">Dimension 2</text>
    </g>
   </g>
   <g id="patch_7">
    <path d="M 346.955906 161.615138 
L 346.955906 28.471831 
" style="fill: none; stroke: #000000; stroke-width: 0.8; stroke-linejoin: miter; stroke-linecap: square"/>
   </g>
   <g id="patch_8">
    <path d="M 346.955906 161.615138 
L 450.207874 161.615138 
" style="fill: none; stroke: #000000; stroke-width: 0.8; stroke-linejoin: miter; stroke-linecap: square"/>
   </g>
   <g id="text_40">
    <text style="font: 700 12px 'arial'; text-anchor: start" x="316.955906" y="15.789375" transform="rotate(-0 316.955906 15.789375)">B</text>
   </g>
   <g id="legend_3">
    <g id="PathCollection_7">
     <defs>
      <path id="m46572e1ae5" d="M 0 3 
C 0.795609 3 1.55874 2.683901 2.12132 2.12132 
C 2.683901 1.55874 3 0.795609 3 0 
C 3 -0.795609 2.683901 -1.55874 2.12132 -2.12132 
C 1.55874 -2.683901 0.795609 -3 0 -3 
C -0.795609 -3 -1.55874 -2.683901 -2.12132 -2.12132 
C -2.683901 -1.55874 -3 -0.795609 -3 0 
C -3 0.795609 -2.683901 1.55874 -2.12132 2.12132 
C -1.55874 2.683901 -0.795609 3 0 3 
z
" style="stroke: #04a777"/>
     </defs>
     <g>
      <use xlink:href="#m46572e1ae5" x="356.28189" y="12.462759" style="fill: #04a777; stroke: #04a777"/>
     </g>
    </g>
    <g id="text_41">
     <text style="font: 8px 'arial'; text-anchor: start" x="364.30189" y="14.562759" transform="rotate(-0 364.30189 14.562759)">CRL</text>
    </g>
    <g id="PathCollection_8">
     <defs>
      <path id="m3371f6363d" d="M 0 3 
C 0.795609 3 1.55874 2.683901 2.12132 2.12132 
C 2.683901 1.55874 3 0.795609 3 0 
C 3 -0.795609 2.683901 -1.55874 2.12132 -2.12132 
C 1.55874 -2.683901 0.795609 -3 0 -3 
C -0.795609 -3 -1.55874 -2.683901 -2.12132 -2.12132 
C -2.683901 -1.55874 -3 -0.795609 -3 0 
C -3 0.795609 -2.683901 1.55874 -2.12132 2.12132 
C -1.55874 2.683901 -0.795609 3 0 3 
z
" style="stroke: #820263"/>
     </defs>
     <g>
      <use xlink:href="#m3371f6363d" x="389.90564" y="12.462759" style="fill: #820263; stroke: #820263"/>
     </g>
    </g>
    <g id="text_42">
     <text style="font: 8px 'arial'; text-anchor: start" x="397.92564" y="14.562759" transform="rotate(-0 397.92564 14.562759)">SOD</text>
    </g>
    <g id="PathCollection_9">
     <defs>
      <path id="m29ee49051c" d="M 0 3 
C 0.795609 3 1.55874 2.683901 2.12132 2.12132 
C 2.683901 1.55874 3 0.795609 3 0 
C 3 -0.795609 2.683901 -1.55874 2.12132 -2.12132 
C 1.55874 -2.683901 0.795609 -3 0 -3 
C -0.795609 -3 -1.55874 -2.683901 -2.12132 -2.12132 
C -2.683901 -1.55874 -3 -0.795609 -3 0 
C -3 0.795609 -2.683901 1.55874 -2.12132 2.12132 
C -1.55874 2.683901 -0.795609 3 0 3 
z
" style="stroke: #fb8b24"/>
     </defs>
     <g>
      <use xlink:href="#m29ee49051c" x="424.86189" y="12.462759" style="fill: #fb8b24; stroke: #fb8b24"/>
     </g>
    </g>
    <g id="text_43">
     <text style="font: 8px 'arial'; text-anchor: start" x="432.88189" y="14.562759" transform="rotate(-0 432.88189 14.562759)">TDP</text>
    </g>
   </g>
   <g id="legend_4">
    <g id="PathCollection_10">
     <defs>
      <path id="m4ca248a8e6" d="M 0 3 
C 0.795609 3 1.55874 2.683901 2.12132 2.12132 
C 2.683901 1.55874 3 0.795609 3 0 
C 3 -0.795609 2.683901 -1.55874 2.12132 -2.12132 
C 1.55874 -2.683901 0.795609 -3 0 -3 
C -0.795609 -3 -1.55874 -2.683901 -2.12132 -2.12132 
C -2.683901 -1.55874 -3 -0.795609 -3 0 
C -3 0.795609 -2.683901 1.55874 -2.12132 2.12132 
C -1.55874 2.683901 -0.795609 3 0 3 
z
" style="stroke: #333333"/>
     </defs>
     <g>
      <use xlink:href="#m4ca248a8e6" x="339.696166" y="21.78279" style="fill: #333333; stroke: #333333"/>
     </g>
    </g>
    <g id="text_44">
     <text style="font: 8px 'arial'; text-anchor: start" x="347.716166" y="23.88279" transform="rotate(-0 347.716166 23.88279)">Cerebellum</text>
    </g>
    <g id="PathCollection_11">
     <defs>
      <path id="ma4d79a5e4c" d="M -1.5 3 
L 0 1.5 
L 1.5 3 
L 3 1.5 
L 1.5 0 
L 3 -1.5 
L 1.5 -3 
L 0 -1.5 
L -1.5 -3 
L -3 -1.5 
L -1.5 0 
L -3 1.5 
z
" style="stroke: #333333"/>
     </defs>
     <g>
      <use xlink:href="#ma4d79a5e4c" x="398.219916" y="21.78279" style="fill: #333333; stroke: #333333"/>
     </g>
    </g>
    <g id="text_45">
     <text style="font: 8px 'arial'; text-anchor: start" x="406.239916" y="23.88279" transform="rotate(-0 406.239916 23.88279)">Frontal cortex</text>
    </g>
   </g>
   <g id="legend_5">
    <g id="PathCollection_12">
     <g>
      <use xlink:href="#m4ca248a8e6" x="339.696166" y="21.78279" style="fill: #333333; stroke: #333333"/>
     </g>
    </g>
    <g id="text_46">
     <text style="font: 8px 'arial'; text-anchor: start" x="347.716166" y="23.88279" transform="rotate(-0 347.716166 23.88279)">Cerebellum</text>
    </g>
    <g id="PathCollection_13">
     <g>
      <use xlink:href="#ma4d79a5e4c" x="398.219916" y="21.78279" style="fill: #333333; stroke: #333333"/>
     </g>
    </g>
    <g id="text_47">
     <text style="font: 8px 'arial'; text-anchor: start" x="406.239916" y="23.88279" transform="rotate(-0 406.239916 23.88279)">Frontal cortex</text>
    </g>
   </g>
  </g>
 </g>
 <defs>
  <clipPath id="p7b3f095f61">
   <path d="M 88.825984 43.4175 
L 44.11657 69.230492 
L 44.11657 120.856476 
L 88.825984 146.669469 
L 133.535398 120.856476 
L 133.535398 69.230492 
z
"/>
  </clipPath>
  <clipPath id="p76c722680c">
   <path d="M 243.703937 43.4175 
L 198.994523 69.230492 
L 198.994523 120.856476 
L 243.703937 146.669469 
L 288.413351 120.856476 
L 288.413351 69.230492 
z
"/>
  </clipPath>
  <clipPath id="p64066cf3dc">
   <rect x="346.955906" y="28.471831" width="103.251969" height="133.143307"/>
  </clipPath>
 </defs>
</svg>
