<?xml version="1.0" encoding="utf-8" standalone="no"?>
<!DOCTYPE svg PUBLIC "-//W3C//DTD SVG 1.1//EN"
  "http://www.w3.org/Graphics/SVG/1.1/DTD/svg11.dtd">
<svg xmlns:xlink="http://www.w3.org/1999/xlink" width="355.181102pt" height="345.826772pt" viewBox="0 0 355.181102 345.826772" xmlns="http://www.w3.org/2000/svg" version="1.1">
 <metadata>
  <rdf:RDF xmlns:dc="http://purl.org/dc/elements/1.1/" xmlns:cc="http://creativecommons.org/ns#" xmlns:rdf="http://www.w3.org/1999/02/22-rdf-syntax-ns#">
   <cc:Work>
    <dc:type rdf:resource="http://purl.org/dc/dcmitype/StillImage"/>
    <dc:date>2025-03-02T20:12:25.092709</dc:date>
    <dc:format>image/svg+xml</dc:format>
    <dc:creator>
     <cc:Agent>
      <dc:title>Matplotlib v3.8.3, https://matplotlib.org/</dc:title>
     </cc:Agent>
    </dc:creator>
   </cc:Work>
  </rdf:RDF>
 </metadata>
 <defs>
  <style type="text/css">*{stroke-linejoin: round; stroke-linecap: butt}</style>
 </defs>
 <g id="figure_1">
  <g id="patch_1">
   <path d="M 0 345.826772 
L 355.181102 345.826772 
L 355.181102 0 
L 0 0 
L 0 345.826772 
z
" style="fill: none"/>
  </g>
  <g id="axes_1">
   <g id="patch_2">
    <path d="M 44.397638 154.812665 
L 91.857182 154.812665 
L 91.857182 41.499213 
L 44.397638 41.499213 
L 44.397638 154.812665 
z
" style="fill: none"/>
   </g>
   <g id="patch_3">
    <path d="M 46.55489 154.812665 
L 58.882044 154.812665 
L 58.882044 107.56613 
L 46.55489 107.56613 
z
" clip-path="url(#p2736037914)" style="fill: url(#h4a11dcc0e4)"/>
   </g>
   <g id="patch_4">
    <path d="M 61.963833 154.812665 
L 74.290987 154.812665 
L 74.290987 92.518262 
L 61.963833 92.518262 
z
" clip-path="url(#p2736037914)" style="fill: url(#h97987f5d54)"/>
   </g>
   <g id="patch_5">
    <path d="M 77.372775 154.812665 
L 89.69993 154.812665 
L 89.69993 100.124055 
L 77.372775 100.124055 
z
" clip-path="url(#p2736037914)" style="fill: url(#hb30d9d4d4e)"/>
   </g>
   <g id="matplotlib.axis_1">
    <g id="xtick_1">
     <g id="line2d_1">
      <defs>
       <path id="m2ed8e52733" d="M 0 0 
L 0 3.5 
" style="stroke: #000000; stroke-width: 0.8"/>
      </defs>
      <g>
       <use xlink:href="#m2ed8e52733" x="52.718467" y="154.812665" style="stroke: #000000; stroke-width: 0.8"/>
      </g>
     </g>
     <g id="text_1">
      <text style="font: 8px 'arial'; text-anchor: middle" x="52.718467" y="167.538915" transform="rotate(-0 52.718467 167.538915)">CRL   </text>
     </g>
    </g>
    <g id="xtick_2">
     <g id="line2d_2">
      <g>
       <use xlink:href="#m2ed8e52733" x="68.12741" y="154.812665" style="stroke: #000000; stroke-width: 0.8"/>
      </g>
     </g>
     <g id="text_2">
      <text style="font: 8px 'arial'; text-anchor: middle" x="68.12741" y="167.538915" transform="rotate(-0 68.12741 167.538915)">SOD</text>
     </g>
    </g>
    <g id="xtick_3">
     <g id="line2d_3">
      <g>
       <use xlink:href="#m2ed8e52733" x="83.536353" y="154.812665" style="stroke: #000000; stroke-width: 0.8"/>
      </g>
     </g>
     <g id="text_3">
      <text style="font: 8px 'arial'; text-anchor: middle" x="83.536353" y="167.538915" transform="rotate(-0 83.536353 167.538915)">   TDP</text>
     </g>
    </g>
   </g>
   <g id="matplotlib.axis_2">
    <g id="ytick_1">
     <g id="line2d_4">
      <defs>
       <path id="mdd9971cd5f" d="M 0 0 
L -3.5 0 
" style="stroke: #000000; stroke-width: 0.8"/>
      </defs>
      <g>
       <use xlink:href="#mdd9971cd5f" x="44.397638" y="154.812665" style="stroke: #000000; stroke-width: 0.8"/>
      </g>
     </g>
     <g id="text_4">
      <text style="font: 8px 'arial'; text-anchor: end" x="37.397638" y="157.67579" transform="rotate(-0 37.397638 157.67579)">0</text>
     </g>
    </g>
    <g id="ytick_2">
     <g id="line2d_5">
      <g>
       <use xlink:href="#mdd9971cd5f" x="44.397638" y="130.383931" style="stroke: #000000; stroke-width: 0.8"/>
      </g>
     </g>
     <g id="text_5">
      <text style="font: 8px 'arial'; text-anchor: end" x="37.397638" y="133.247056" transform="rotate(-0 37.397638 133.247056)">200</text>
     </g>
    </g>
    <g id="ytick_3">
     <g id="line2d_6">
      <g>
       <use xlink:href="#mdd9971cd5f" x="44.397638" y="105.955197" style="stroke: #000000; stroke-width: 0.8"/>
      </g>
     </g>
     <g id="text_6">
      <text style="font: 8px 'arial'; text-anchor: end" x="37.397638" y="108.818322" transform="rotate(-0 37.397638 108.818322)">400</text>
     </g>
    </g>
    <g id="ytick_4">
     <g id="line2d_7">
      <g>
       <use xlink:href="#mdd9971cd5f" x="44.397638" y="81.526463" style="stroke: #000000; stroke-width: 0.8"/>
      </g>
     </g>
     <g id="text_7">
      <text style="font: 8px 'arial'; text-anchor: end" x="37.397638" y="84.389588" transform="rotate(-0 37.397638 84.389588)">600</text>
     </g>
    </g>
    <g id="ytick_5">
     <g id="line2d_8">
      <g>
       <use xlink:href="#mdd9971cd5f" x="44.397638" y="57.097729" style="stroke: #000000; stroke-width: 0.8"/>
      </g>
     </g>
     <g id="text_8">
      <text style="font: 8px 'arial'; text-anchor: end" x="37.397638" y="59.960854" transform="rotate(-0 37.397638 59.960854)">800</text>
     </g>
    </g>
    <g id="text_9">
     <text style="font: 8px 'arial'; text-anchor: middle" x="23.461388" y="98.155939" transform="rotate(-90 23.461388 98.155939)">Number of puncta</text>
    </g>
   </g>
   <g id="line2d_9">
    <path d="M 52.718467 115.096912 
L 52.718467 96.53908 
" clip-path="url(#p2736037914)" style="fill: none; stroke: #424242; stroke-linecap: square"/>
   </g>
   <g id="line2d_10">
    <path d="M 51.177573 115.096912 
L 54.259361 115.096912 
" clip-path="url(#p2736037914)" style="fill: none; stroke: #424242; stroke-linecap: square"/>
   </g>
   <g id="line2d_11">
    <path d="M 51.177573 96.53908 
L 54.259361 96.53908 
" clip-path="url(#p2736037914)" style="fill: none; stroke: #424242; stroke-linecap: square"/>
   </g>
   <g id="line2d_12">
    <path d="M 68.12741 124.044172 
L 68.12741 60.992353 
" clip-path="url(#p2736037914)" style="fill: none; stroke: #424242; stroke-linecap: square"/>
   </g>
   <g id="line2d_13">
    <path d="M 66.586515 124.044172 
L 69.668304 124.044172 
" clip-path="url(#p2736037914)" style="fill: none; stroke: #424242; stroke-linecap: square"/>
   </g>
   <g id="line2d_14">
    <path d="M 66.586515 60.992353 
L 69.668304 60.992353 
" clip-path="url(#p2736037914)" style="fill: none; stroke: #424242; stroke-linecap: square"/>
   </g>
   <g id="line2d_15">
    <path d="M 83.536353 111.539022 
L 83.536353 87.732724 
" clip-path="url(#p2736037914)" style="fill: none; stroke: #424242; stroke-linecap: square"/>
   </g>
   <g id="line2d_16">
    <path d="M 81.995458 111.539022 
L 85.077247 111.539022 
" clip-path="url(#p2736037914)" style="fill: none; stroke: #424242; stroke-linecap: square"/>
   </g>
   <g id="line2d_17">
    <path d="M 81.995458 87.732724 
L 85.077247 87.732724 
" clip-path="url(#p2736037914)" style="fill: none; stroke: #424242; stroke-linecap: square"/>
   </g>
   <g id="line2d_18">
    <path d="M 52.718467 55.081673 
L 52.718467 53.111446 
L 83.536353 53.111446 
L 83.536353 55.081673 
" clip-path="url(#p2736037914)" style="fill: none; stroke: #333333; stroke-width: 0.5; stroke-linecap: square"/>
   </g>
   <g id="line2d_19">
    <path d="M 44.397638 151.572041 
L 91.857182 151.572041 
" clip-path="url(#p2736037914)" style="fill: none; stroke-dasharray: 5.55,2.4; stroke-dashoffset: 0; stroke: #d3d3d3; stroke-width: 1.5"/>
   </g>
   <g id="patch_6">
    <path d="M 44.397638 154.812665 
L 44.397638 41.499213 
" style="fill: none; stroke: #000000; stroke-width: 0.8; stroke-linejoin: miter; stroke-linecap: square"/>
   </g>
   <g id="patch_7">
    <path d="M 44.397638 154.812665 
L 91.857182 154.812665 
" style="fill: none; stroke: #000000; stroke-width: 0.8; stroke-linejoin: miter; stroke-linecap: square"/>
   </g>
   <g id="text_10">
    <text style="font: 700 12px 'arial'; text-anchor: start" x="9.397638" y="35.799742" transform="rotate(-0 9.397638 35.799742)">A</text>
   </g>
   <g id="PathCollection_1">
    <defs>
     <path id="C0_0_6821173ccd" d="M 0 2.5 
C 0.663008 2.5 1.29895 2.236584 1.767767 1.767767 
C 2.236584 1.29895 2.5 0.663008 2.5 -0 
C 2.5 -0.663008 2.236584 -1.29895 1.767767 -1.767767 
C 1.29895 -2.236584 0.663008 -2.5 0 -2.5 
C -0.663008 -2.5 -1.29895 -2.236584 -1.767767 -1.767767 
C -2.236584 -1.29895 -2.5 -0.663008 -2.5 0 
C -2.5 0.663008 -2.236584 1.29895 -1.767767 1.767767 
C -1.29895 2.236584 -0.663008 2.5 0 2.5 
z
"/>
    </defs>
    <g clip-path="url(#p2736037914)">
     <use xlink:href="#C0_0_6821173ccd" x="53.106875" y="111.062398" style="fill: #04a777; stroke: #ffffff"/>
    </g>
    <g clip-path="url(#p2736037914)">
     <use xlink:href="#C0_0_6821173ccd" x="52.943177" y="115.096912" style="fill: #04a777; stroke: #ffffff"/>
    </g>
    <g clip-path="url(#p2736037914)">
     <use xlink:href="#C0_0_6821173ccd" x="51.207234" y="96.53908" style="fill: #04a777; stroke: #ffffff"/>
    </g>
   </g>
   <g id="PathCollection_2">
    <defs>
     <path id="C1_0_dda15c9bde" d="M 0 2.5 
C 0.663008 2.5 1.29895 2.236584 1.767767 1.767767 
C 2.236584 1.29895 2.5 0.663008 2.5 -0 
C 2.5 -0.663008 2.236584 -1.29895 1.767767 -1.767767 
C 1.29895 -2.236584 0.663008 -2.5 0 -2.5 
C -0.663008 -2.5 -1.29895 -2.236584 -1.767767 -1.767767 
C -2.236584 -1.29895 -2.5 -0.663008 -2.5 0 
C -2.5 0.663008 -2.236584 1.29895 -1.767767 1.767767 
C -1.29895 2.236584 -0.663008 2.5 0 2.5 
z
"/>
    </defs>
    <g clip-path="url(#p2736037914)">
     <use xlink:href="#C1_0_dda15c9bde" x="69.655682" y="60.992353" style="fill: #820263; stroke: #ffffff"/>
    </g>
    <g clip-path="url(#p2736037914)">
     <use xlink:href="#C1_0_dda15c9bde" x="69.15977" y="124.044172" style="fill: #820263; stroke: #ffffff"/>
    </g>
   </g>
   <g id="PathCollection_3">
    <defs>
     <path id="C2_0_59195acab6" d="M 0 2.5 
C 0.663008 2.5 1.29895 2.236584 1.767767 1.767767 
C 2.236584 1.29895 2.5 0.663008 2.5 -0 
C 2.5 -0.663008 2.236584 -1.29895 1.767767 -1.767767 
C 1.29895 -2.236584 0.663008 -2.5 0 -2.5 
C -0.663008 -2.5 -1.29895 -2.236584 -1.767767 -1.767767 
C -2.236584 -1.29895 -2.5 -0.663008 -2.5 0 
C -2.5 0.663008 -2.236584 1.29895 -1.767767 1.767767 
C -1.29895 2.236584 -0.663008 2.5 0 2.5 
z
"/>
    </defs>
    <g clip-path="url(#p2736037914)">
     <use xlink:href="#C2_0_59195acab6" x="82.937509" y="105.507327" style="fill: #fb8b24; stroke: #ffffff"/>
    </g>
    <g clip-path="url(#p2736037914)">
     <use xlink:href="#C2_0_59195acab6" x="83.986334" y="93.719557" style="fill: #fb8b24; stroke: #ffffff"/>
    </g>
    <g clip-path="url(#p2736037914)">
     <use xlink:href="#C2_0_59195acab6" x="84.33116" y="121.181937" style="fill: #fb8b24; stroke: #ffffff"/>
    </g>
    <g clip-path="url(#p2736037914)">
     <use xlink:href="#C2_0_59195acab6" x="82.524921" y="100.39921" style="fill: #fb8b24; stroke: #ffffff"/>
    </g>
    <g clip-path="url(#p2736037914)">
     <use xlink:href="#C2_0_59195acab6" x="81.998753" y="79.812246" style="fill: #fb8b24; stroke: #ffffff"/>
    </g>
   </g>
   <g id="text_11">
    <text style="font: 8px 'arial'; text-anchor: middle" x="68.12741" y="50.521446" transform="rotate(-0 68.12741 50.521446)">ns</text>
   </g>
   <g id="text_12">
    <text style="font: 8px 'arial'; text-anchor: middle" x="68.12741" y="35.499213" transform="rotate(-0 68.12741 35.499213)">Cerebellum</text>
   </g>
   <g id="legend_1"/>
  </g>
  <g id="axes_2">
   <g id="patch_8">
    <path d="M 120.332908 154.812665 
L 167.792452 154.812665 
L 167.792452 41.499213 
L 120.332908 41.499213 
L 120.332908 154.812665 
z
" style="fill: none"/>
   </g>
   <g id="patch_9">
    <path d="M 122.49016 154.812665 
L 134.817314 154.812665 
L 134.817314 75.834048 
L 122.49016 75.834048 
z
" clip-path="url(#p4cbf101d97)" style="fill: url(#h4a11dcc0e4)"/>
   </g>
   <g id="patch_10">
    <path d="M 137.899103 154.812665 
L 150.226257 154.812665 
L 150.226257 116.463987 
L 137.899103 116.463987 
z
" clip-path="url(#p4cbf101d97)" style="fill: url(#h97987f5d54)"/>
   </g>
   <g id="patch_11">
    <path d="M 153.308046 154.812665 
L 165.6352 154.812665 
L 165.6352 105.101505 
L 153.308046 105.101505 
z
" clip-path="url(#p4cbf101d97)" style="fill: url(#hb30d9d4d4e)"/>
   </g>
   <g id="matplotlib.axis_3">
    <g id="xtick_4">
     <g id="line2d_20">
      <g>
       <use xlink:href="#m2ed8e52733" x="128.653737" y="154.812665" style="stroke: #000000; stroke-width: 0.8"/>
      </g>
     </g>
     <g id="text_13">
      <text style="font: 8px 'arial'; text-anchor: middle" x="128.653737" y="167.538915" transform="rotate(-0 128.653737 167.538915)">CRL   </text>
     </g>
    </g>
    <g id="xtick_5">
     <g id="line2d_21">
      <g>
       <use xlink:href="#m2ed8e52733" x="144.06268" y="154.812665" style="stroke: #000000; stroke-width: 0.8"/>
      </g>
     </g>
     <g id="text_14">
      <text style="font: 8px 'arial'; text-anchor: middle" x="144.06268" y="167.538915" transform="rotate(-0 144.06268 167.538915)">SOD</text>
     </g>
    </g>
    <g id="xtick_6">
     <g id="line2d_22">
      <g>
       <use xlink:href="#m2ed8e52733" x="159.471623" y="154.812665" style="stroke: #000000; stroke-width: 0.8"/>
      </g>
     </g>
     <g id="text_15">
      <text style="font: 8px 'arial'; text-anchor: middle" x="159.471623" y="167.538915" transform="rotate(-0 159.471623 167.538915)">   TDP</text>
     </g>
    </g>
   </g>
   <g id="matplotlib.axis_4">
    <g id="ytick_6">
     <g id="line2d_23">
      <g>
       <use xlink:href="#mdd9971cd5f" x="120.332908" y="154.812665" style="stroke: #000000; stroke-width: 0.8"/>
      </g>
     </g>
     <g id="text_16">
      <text style="font: 8px 'arial'; text-anchor: end" x="113.332908" y="157.67579" transform="rotate(-0 113.332908 157.67579)">0</text>
     </g>
    </g>
    <g id="ytick_7">
     <g id="line2d_24">
      <g>
       <use xlink:href="#mdd9971cd5f" x="120.332908" y="136.198257" style="stroke: #000000; stroke-width: 0.8"/>
      </g>
     </g>
     <g id="text_17">
      <text style="font: 8px 'arial'; text-anchor: end" x="113.332908" y="139.061382" transform="rotate(-0 113.332908 139.061382)">100</text>
     </g>
    </g>
    <g id="ytick_8">
     <g id="line2d_25">
      <g>
       <use xlink:href="#mdd9971cd5f" x="120.332908" y="117.583849" style="stroke: #000000; stroke-width: 0.8"/>
      </g>
     </g>
     <g id="text_18">
      <text style="font: 8px 'arial'; text-anchor: end" x="113.332908" y="120.446974" transform="rotate(-0 113.332908 120.446974)">200</text>
     </g>
    </g>
    <g id="ytick_9">
     <g id="line2d_26">
      <g>
       <use xlink:href="#mdd9971cd5f" x="120.332908" y="98.969441" style="stroke: #000000; stroke-width: 0.8"/>
      </g>
     </g>
     <g id="text_19">
      <text style="font: 8px 'arial'; text-anchor: end" x="113.332908" y="101.832566" transform="rotate(-0 113.332908 101.832566)">300</text>
     </g>
    </g>
    <g id="ytick_10">
     <g id="line2d_27">
      <g>
       <use xlink:href="#mdd9971cd5f" x="120.332908" y="80.355033" style="stroke: #000000; stroke-width: 0.8"/>
      </g>
     </g>
     <g id="text_20">
      <text style="font: 8px 'arial'; text-anchor: end" x="113.332908" y="83.218158" transform="rotate(-0 113.332908 83.218158)">400</text>
     </g>
    </g>
    <g id="ytick_11">
     <g id="line2d_28">
      <g>
       <use xlink:href="#mdd9971cd5f" x="120.332908" y="61.740625" style="stroke: #000000; stroke-width: 0.8"/>
      </g>
     </g>
     <g id="text_21">
      <text style="font: 8px 'arial'; text-anchor: end" x="113.332908" y="64.60375" transform="rotate(-0 113.332908 64.60375)">500</text>
     </g>
    </g>
    <g id="ytick_12">
     <g id="line2d_29">
      <g>
       <use xlink:href="#mdd9971cd5f" x="120.332908" y="43.126217" style="stroke: #000000; stroke-width: 0.8"/>
      </g>
     </g>
     <g id="text_22">
      <text style="font: 8px 'arial'; text-anchor: end" x="113.332908" y="45.989342" transform="rotate(-0 113.332908 45.989342)">600</text>
     </g>
    </g>
   </g>
   <g id="line2d_30">
    <path d="M 128.653737 87.363179 
L 128.653737 60.992353 
" clip-path="url(#p4cbf101d97)" style="fill: none; stroke: #424242; stroke-linecap: square"/>
   </g>
   <g id="line2d_31">
    <path d="M 127.112843 87.363179 
L 130.194631 87.363179 
" clip-path="url(#p4cbf101d97)" style="fill: none; stroke: #424242; stroke-linecap: square"/>
   </g>
   <g id="line2d_32">
    <path d="M 127.112843 60.992353 
L 130.194631 60.992353 
" clip-path="url(#p4cbf101d97)" style="fill: none; stroke: #424242; stroke-linecap: square"/>
   </g>
   <g id="line2d_33">
    <path d="M 144.06268 128.570203 
L 144.06268 104.35777 
" clip-path="url(#p4cbf101d97)" style="fill: none; stroke: #424242; stroke-linecap: square"/>
   </g>
   <g id="line2d_34">
    <path d="M 142.521786 128.570203 
L 145.603574 128.570203 
" clip-path="url(#p4cbf101d97)" style="fill: none; stroke: #424242; stroke-linecap: square"/>
   </g>
   <g id="line2d_35">
    <path d="M 142.521786 104.35777 
L 145.603574 104.35777 
" clip-path="url(#p4cbf101d97)" style="fill: none; stroke: #424242; stroke-linecap: square"/>
   </g>
   <g id="line2d_36">
    <path d="M 159.471623 108.795373 
L 159.471623 100.21619 
" clip-path="url(#p4cbf101d97)" style="fill: none; stroke: #424242; stroke-linecap: square"/>
   </g>
   <g id="line2d_37">
    <path d="M 157.930728 108.795373 
L 161.012517 108.795373 
" clip-path="url(#p4cbf101d97)" style="fill: none; stroke: #424242; stroke-linecap: square"/>
   </g>
   <g id="line2d_38">
    <path d="M 157.930728 100.21619 
L 161.012517 100.21619 
" clip-path="url(#p4cbf101d97)" style="fill: none; stroke: #424242; stroke-linecap: square"/>
   </g>
   <g id="line2d_39">
    <path d="M 128.653737 55.081673 
L 128.653737 53.111446 
L 159.471623 53.111446 
L 159.471623 55.081673 
" clip-path="url(#p4cbf101d97)" style="fill: none; stroke: #333333; stroke-width: 0.5; stroke-linecap: square"/>
   </g>
   <g id="line2d_40">
    <path d="M 120.332908 149.87403 
L 167.792452 149.87403 
" clip-path="url(#p4cbf101d97)" style="fill: none; stroke-dasharray: 5.55,2.4; stroke-dashoffset: 0; stroke: #d3d3d3; stroke-width: 1.5"/>
   </g>
   <g id="patch_12">
    <path d="M 120.332908 154.812665 
L 120.332908 41.499213 
" style="fill: none; stroke: #000000; stroke-width: 0.8; stroke-linejoin: miter; stroke-linecap: square"/>
   </g>
   <g id="patch_13">
    <path d="M 120.332908 154.812665 
L 167.792452 154.812665 
" style="fill: none; stroke: #000000; stroke-width: 0.8; stroke-linejoin: miter; stroke-linecap: square"/>
   </g>
   <g id="PathCollection_4">
    <defs>
     <path id="C3_0_71498eb512" d="M 0 2.5 
C 0.663008 2.5 1.29895 2.236584 1.767767 1.767767 
C 2.236584 1.29895 2.5 0.663008 2.5 -0 
C 2.5 -0.663008 2.236584 -1.29895 1.767767 -1.767767 
C 1.29895 -2.236584 0.663008 -2.5 0 -2.5 
C -0.663008 -2.5 -1.29895 -2.236584 -1.767767 -1.767767 
C -2.236584 -1.29895 -2.5 -0.663008 -2.5 0 
C -2.5 0.663008 -2.236584 1.29895 -1.767767 1.767767 
C -1.29895 2.236584 -0.663008 2.5 0 2.5 
z
"/>
    </defs>
    <g clip-path="url(#p4cbf101d97)">
     <use xlink:href="#C3_0_71498eb512" x="127.918623" y="60.992353" style="fill: #04a777; stroke: #ffffff"/>
    </g>
    <g clip-path="url(#p4cbf101d97)">
     <use xlink:href="#C3_0_71498eb512" x="128.992126" y="79.146612" style="fill: #04a777; stroke: #ffffff"/>
    </g>
    <g clip-path="url(#p4cbf101d97)">
     <use xlink:href="#C3_0_71498eb512" x="128.354756" y="87.363179" style="fill: #04a777; stroke: #ffffff"/>
    </g>
   </g>
   <g id="PathCollection_5">
    <defs>
     <path id="C4_0_bd3bfc248f" d="M 0 2.5 
C 0.663008 2.5 1.29895 2.236584 1.767767 1.767767 
C 2.236584 1.29895 2.5 0.663008 2.5 -0 
C 2.5 -0.663008 2.236584 -1.29895 1.767767 -1.767767 
C 1.29895 -2.236584 0.663008 -2.5 0 -2.5 
C -0.663008 -2.5 -1.29895 -2.236584 -1.767767 -1.767767 
C -2.236584 -1.29895 -2.5 -0.663008 -2.5 0 
C -2.5 0.663008 -2.236584 1.29895 -1.767767 1.767767 
C -1.29895 2.236584 -0.663008 2.5 0 2.5 
z
"/>
    </defs>
    <g clip-path="url(#p4cbf101d97)">
     <use xlink:href="#C4_0_bd3bfc248f" x="145.229797" y="104.35777" style="fill: #820263; stroke: #ffffff"/>
    </g>
    <g clip-path="url(#p4cbf101d97)">
     <use xlink:href="#C4_0_bd3bfc248f" x="145.353856" y="128.570203" style="fill: #820263; stroke: #ffffff"/>
    </g>
   </g>
   <g id="PathCollection_6">
    <defs>
     <path id="C5_0_18e8d20cfd" d="M 0 2.5 
C 0.663008 2.5 1.29895 2.236584 1.767767 1.767767 
C 2.236584 1.29895 2.5 0.663008 2.5 -0 
C 2.5 -0.663008 2.236584 -1.29895 1.767767 -1.767767 
C 1.29895 -2.236584 0.663008 -2.5 0 -2.5 
C -0.663008 -2.5 -1.29895 -2.236584 -1.767767 -1.767767 
C -2.236584 -1.29895 -2.5 -0.663008 -2.5 0 
C -2.5 0.663008 -2.236584 1.29895 -1.767767 1.767767 
C -1.29895 2.236584 -0.663008 2.5 0 2.5 
z
"/>
    </defs>
    <g clip-path="url(#p4cbf101d97)">
     <use xlink:href="#C5_0_18e8d20cfd" x="159.885553" y="102.647104" style="fill: #fb8b24; stroke: #ffffff"/>
    </g>
    <g clip-path="url(#p4cbf101d97)">
     <use xlink:href="#C5_0_18e8d20cfd" x="158.450151" y="96.569819" style="fill: #fb8b24; stroke: #ffffff"/>
    </g>
    <g clip-path="url(#p4cbf101d97)">
     <use xlink:href="#C5_0_18e8d20cfd" x="158.605828" y="108.532556" style="fill: #fb8b24; stroke: #ffffff"/>
    </g>
    <g clip-path="url(#p4cbf101d97)">
     <use xlink:href="#C5_0_18e8d20cfd" x="159.005711" y="108.604341" style="fill: #fb8b24; stroke: #ffffff"/>
    </g>
    <g clip-path="url(#p4cbf101d97)">
     <use xlink:href="#C5_0_18e8d20cfd" x="159.320072" y="109.153705" style="fill: #fb8b24; stroke: #ffffff"/>
    </g>
   </g>
   <g id="text_23">
    <text style="font: 8px 'arial'; text-anchor: middle" x="144.06268" y="50.521446" transform="rotate(-0 144.06268 50.521446)">**</text>
   </g>
   <g id="text_24">
    <text style="font: 8px 'arial'; text-anchor: middle" x="144.06268" y="35.499213" transform="rotate(-0 144.06268 35.499213)">Frontal cortex</text>
   </g>
   <g id="legend_2"/>
  </g>
  <g id="axes_3">
   <g id="patch_14">
    <path d="M 196.268178 154.812665 
L 243.727722 154.812665 
L 243.727722 41.499213 
L 196.268178 41.499213 
L 196.268178 154.812665 
z
" style="fill: none"/>
   </g>
   <g id="patch_15">
    <path d="M 198.42543 154.812665 
L 210.752584 154.812665 
L 210.752584 116.222003 
L 198.42543 116.222003 
z
" clip-path="url(#p6dc8a3f722)" style="fill: url(#h4a11dcc0e4)"/>
   </g>
   <g id="patch_16">
    <path d="M 213.834373 154.812665 
L 226.161527 154.812665 
L 226.161527 99.356304 
L 213.834373 99.356304 
z
" clip-path="url(#p6dc8a3f722)" style="fill: url(#h97987f5d54)"/>
   </g>
   <g id="patch_17">
    <path d="M 229.243316 154.812665 
L 241.57047 154.812665 
L 241.57047 88.563337 
L 229.243316 88.563337 
z
" clip-path="url(#p6dc8a3f722)" style="fill: url(#hb30d9d4d4e)"/>
   </g>
   <g id="matplotlib.axis_5">
    <g id="xtick_7">
     <g id="line2d_41">
      <g>
       <use xlink:href="#m2ed8e52733" x="204.589007" y="154.812665" style="stroke: #000000; stroke-width: 0.8"/>
      </g>
     </g>
     <g id="text_25">
      <text style="font: 8px 'arial'; text-anchor: middle" x="204.589007" y="167.538915" transform="rotate(-0 204.589007 167.538915)">CRL   </text>
     </g>
    </g>
    <g id="xtick_8">
     <g id="line2d_42">
      <g>
       <use xlink:href="#m2ed8e52733" x="219.99795" y="154.812665" style="stroke: #000000; stroke-width: 0.8"/>
      </g>
     </g>
     <g id="text_26">
      <text style="font: 8px 'arial'; text-anchor: middle" x="219.99795" y="167.538915" transform="rotate(-0 219.99795 167.538915)">SOD</text>
     </g>
    </g>
    <g id="xtick_9">
     <g id="line2d_43">
      <g>
       <use xlink:href="#m2ed8e52733" x="235.406893" y="154.812665" style="stroke: #000000; stroke-width: 0.8"/>
      </g>
     </g>
     <g id="text_27">
      <text style="font: 8px 'arial'; text-anchor: middle" x="235.406893" y="167.538915" transform="rotate(-0 235.406893 167.538915)">   TDP</text>
     </g>
    </g>
   </g>
   <g id="matplotlib.axis_6">
    <g id="ytick_13">
     <g id="line2d_44">
      <g>
       <use xlink:href="#mdd9971cd5f" x="196.268178" y="154.812665" style="stroke: #000000; stroke-width: 0.8"/>
      </g>
     </g>
     <g id="text_28">
      <text style="font: 8px 'arial'; text-anchor: end" x="189.268178" y="157.67579" transform="rotate(-0 189.268178 157.67579)">0.0</text>
     </g>
    </g>
    <g id="ytick_14">
     <g id="line2d_45">
      <g>
       <use xlink:href="#mdd9971cd5f" x="196.268178" y="133.923043" style="stroke: #000000; stroke-width: 0.8"/>
      </g>
     </g>
     <g id="text_29">
      <text style="font: 8px 'arial'; text-anchor: end" x="189.268178" y="136.786168" transform="rotate(-0 189.268178 136.786168)">0.5</text>
     </g>
    </g>
    <g id="ytick_15">
     <g id="line2d_46">
      <g>
       <use xlink:href="#mdd9971cd5f" x="196.268178" y="113.03342" style="stroke: #000000; stroke-width: 0.8"/>
      </g>
     </g>
     <g id="text_30">
      <text style="font: 8px 'arial'; text-anchor: end" x="189.268178" y="115.896545" transform="rotate(-0 189.268178 115.896545)">1.0</text>
     </g>
    </g>
    <g id="ytick_16">
     <g id="line2d_47">
      <g>
       <use xlink:href="#mdd9971cd5f" x="196.268178" y="92.143797" style="stroke: #000000; stroke-width: 0.8"/>
      </g>
     </g>
     <g id="text_31">
      <text style="font: 8px 'arial'; text-anchor: end" x="189.268178" y="95.006922" transform="rotate(-0 189.268178 95.006922)">1.5</text>
     </g>
    </g>
    <g id="ytick_17">
     <g id="line2d_48">
      <g>
       <use xlink:href="#mdd9971cd5f" x="196.268178" y="71.254174" style="stroke: #000000; stroke-width: 0.8"/>
      </g>
     </g>
     <g id="text_32">
      <text style="font: 8px 'arial'; text-anchor: end" x="189.268178" y="74.117299" transform="rotate(-0 189.268178 74.117299)">2.0</text>
     </g>
    </g>
    <g id="ytick_18">
     <g id="line2d_49">
      <g>
       <use xlink:href="#mdd9971cd5f" x="196.268178" y="50.364552" style="stroke: #000000; stroke-width: 0.8"/>
      </g>
     </g>
     <g id="text_33">
      <text style="font: 8px 'arial'; text-anchor: end" x="189.268178" y="53.227677" transform="rotate(-0 189.268178 53.227677)">2.5</text>
     </g>
    </g>
    <g id="text_34">
     <text style="font: 8px 'arial'; text-anchor: middle" x="177.464428" y="98.155939" transform="rotate(-90 177.464428 98.155939)">Intensity (AU)</text>
    </g>
   </g>
   <g id="line2d_50">
    <path d="M 204.589007 126.558507 
L 204.589007 102.48368 
" clip-path="url(#p6dc8a3f722)" style="fill: none; stroke: #424242; stroke-linecap: square"/>
   </g>
   <g id="line2d_51">
    <path d="M 203.048113 126.558507 
L 206.129902 126.558507 
" clip-path="url(#p6dc8a3f722)" style="fill: none; stroke: #424242; stroke-linecap: square"/>
   </g>
   <g id="line2d_52">
    <path d="M 203.048113 102.48368 
L 206.129902 102.48368 
" clip-path="url(#p6dc8a3f722)" style="fill: none; stroke: #424242; stroke-linecap: square"/>
   </g>
   <g id="line2d_53">
    <path d="M 219.99795 102.402184 
L 219.99795 96.310423 
" clip-path="url(#p6dc8a3f722)" style="fill: none; stroke: #424242; stroke-linecap: square"/>
   </g>
   <g id="line2d_54">
    <path d="M 218.457056 102.402184 
L 221.538844 102.402184 
" clip-path="url(#p6dc8a3f722)" style="fill: none; stroke: #424242; stroke-linecap: square"/>
   </g>
   <g id="line2d_55">
    <path d="M 218.457056 96.310423 
L 221.538844 96.310423 
" clip-path="url(#p6dc8a3f722)" style="fill: none; stroke: #424242; stroke-linecap: square"/>
   </g>
   <g id="line2d_56">
    <path d="M 235.406893 105.158203 
L 235.406893 71.96847 
" clip-path="url(#p6dc8a3f722)" style="fill: none; stroke: #424242; stroke-linecap: square"/>
   </g>
   <g id="line2d_57">
    <path d="M 233.865999 105.158203 
L 236.947787 105.158203 
" clip-path="url(#p6dc8a3f722)" style="fill: none; stroke: #424242; stroke-linecap: square"/>
   </g>
   <g id="line2d_58">
    <path d="M 233.865999 71.96847 
L 236.947787 71.96847 
" clip-path="url(#p6dc8a3f722)" style="fill: none; stroke: #424242; stroke-linecap: square"/>
   </g>
   <g id="line2d_59">
    <path d="M 204.589007 55.081673 
L 204.589007 53.111446 
L 235.406893 53.111446 
L 235.406893 55.081673 
" clip-path="url(#p6dc8a3f722)" style="fill: none; stroke: #333333; stroke-width: 0.5; stroke-linecap: square"/>
   </g>
   <g id="patch_18">
    <path d="M 196.268178 154.812665 
L 196.268178 41.499213 
" style="fill: none; stroke: #000000; stroke-width: 0.8; stroke-linejoin: miter; stroke-linecap: square"/>
   </g>
   <g id="patch_19">
    <path d="M 196.268178 154.812665 
L 243.727722 154.812665 
" style="fill: none; stroke: #000000; stroke-width: 0.8; stroke-linejoin: miter; stroke-linecap: square"/>
   </g>
   <g id="text_35">
    <text style="font: 700 12px 'arial'; text-anchor: start" x="171.268178" y="35.799742" transform="rotate(-0 171.268178 35.799742)">B</text>
   </g>
   <g id="PathCollection_7">
    <defs>
     <path id="C6_0_11db9703f2" d="M 0 2.5 
C 0.663008 2.5 1.29895 2.236584 1.767767 1.767767 
C 2.236584 1.29895 2.5 0.663008 2.5 -0 
C 2.5 -0.663008 2.236584 -1.29895 1.767767 -1.767767 
C 1.29895 -2.236584 0.663008 -2.5 0 -2.5 
C -0.663008 -2.5 -1.29895 -2.236584 -1.767767 -1.767767 
C -2.236584 -1.29895 -2.5 -0.663008 -2.5 0 
C -2.5 0.663008 -2.236584 1.29895 -1.767767 1.767767 
C -1.29895 2.236584 -0.663008 2.5 0 2.5 
z
"/>
    </defs>
    <g clip-path="url(#p6dc8a3f722)">
     <use xlink:href="#C6_0_11db9703f2" x="203.933814" y="119.623821" style="fill: #04a777; stroke: #ffffff"/>
    </g>
    <g clip-path="url(#p6dc8a3f722)">
     <use xlink:href="#C6_0_11db9703f2" x="204.018749" y="126.558507" style="fill: #04a777; stroke: #ffffff"/>
    </g>
    <g clip-path="url(#p6dc8a3f722)">
     <use xlink:href="#C6_0_11db9703f2" x="203.47255" y="102.48368" style="fill: #04a777; stroke: #ffffff"/>
    </g>
   </g>
   <g id="PathCollection_8">
    <defs>
     <path id="C7_0_28d5838c76" d="M 0 2.5 
C 0.663008 2.5 1.29895 2.236584 1.767767 1.767767 
C 2.236584 1.29895 2.5 0.663008 2.5 -0 
C 2.5 -0.663008 2.236584 -1.29895 1.767767 -1.767767 
C 1.29895 -2.236584 0.663008 -2.5 0 -2.5 
C -0.663008 -2.5 -1.29895 -2.236584 -1.767767 -1.767767 
C -2.236584 -1.29895 -2.5 -0.663008 -2.5 0 
C -2.5 0.663008 -2.236584 1.29895 -1.767767 1.767767 
C -1.29895 2.236584 -0.663008 2.5 0 2.5 
z
"/>
    </defs>
    <g clip-path="url(#p6dc8a3f722)">
     <use xlink:href="#C7_0_28d5838c76" x="220.947523" y="96.310423" style="fill: #820263; stroke: #ffffff"/>
    </g>
    <g clip-path="url(#p6dc8a3f722)">
     <use xlink:href="#C7_0_28d5838c76" x="220.783385" y="102.402184" style="fill: #820263; stroke: #ffffff"/>
    </g>
   </g>
   <g id="PathCollection_9">
    <defs>
     <path id="C8_0_fe37fb3ae3" d="M 0 2.5 
C 0.663008 2.5 1.29895 2.236584 1.767767 1.767767 
C 2.236584 1.29895 2.5 0.663008 2.5 -0 
C 2.5 -0.663008 2.236584 -1.29895 1.767767 -1.767767 
C 1.29895 -2.236584 0.663008 -2.5 0 -2.5 
C -0.663008 -2.5 -1.29895 -2.236584 -1.767767 -1.767767 
C -2.236584 -1.29895 -2.5 -0.663008 -2.5 0 
C -2.5 0.663008 -2.236584 1.29895 -1.767767 1.767767 
C -1.29895 2.236584 -0.663008 2.5 0 2.5 
z
"/>
    </defs>
    <g clip-path="url(#p6dc8a3f722)">
     <use xlink:href="#C8_0_fe37fb3ae3" x="235.625065" y="71.976633" style="fill: #fb8b24; stroke: #ffffff"/>
    </g>
    <g clip-path="url(#p6dc8a3f722)">
     <use xlink:href="#C8_0_fe37fb3ae3" x="235.17253" y="60.992353" style="fill: #fb8b24; stroke: #ffffff"/>
    </g>
    <g clip-path="url(#p6dc8a3f722)">
     <use xlink:href="#C8_0_fe37fb3ae3" x="236.594922" y="93.90438" style="fill: #fb8b24; stroke: #ffffff"/>
    </g>
    <g clip-path="url(#p6dc8a3f722)">
     <use xlink:href="#C8_0_fe37fb3ae3" x="236.196407" y="117.228673" style="fill: #fb8b24; stroke: #ffffff"/>
    </g>
    <g clip-path="url(#p6dc8a3f722)">
     <use xlink:href="#C8_0_fe37fb3ae3" x="235.742285" y="98.714645" style="fill: #fb8b24; stroke: #ffffff"/>
    </g>
   </g>
   <g id="text_36">
    <text style="font: 8px 'arial'; text-anchor: middle" x="219.99795" y="50.521446" transform="rotate(-0 219.99795 50.521446)">ns</text>
   </g>
   <g id="text_37">
    <text style="font: 8px 'arial'; text-anchor: middle" x="219.99795" y="35.499213" transform="rotate(-0 219.99795 35.499213)">Cerebellum</text>
   </g>
   <g id="legend_3"/>
  </g>
  <g id="axes_4">
   <g id="patch_20">
    <path d="M 272.203448 154.812665 
L 319.662992 154.812665 
L 319.662992 41.499213 
L 272.203448 41.499213 
L 272.203448 154.812665 
z
" style="fill: none"/>
   </g>
   <g id="patch_21">
    <path d="M 274.3607 154.812665 
L 286.687855 154.812665 
L 286.687855 67.768919 
L 274.3607 67.768919 
z
" clip-path="url(#p7e12e8a22e)" style="fill: url(#h4a11dcc0e4)"/>
   </g>
   <g id="patch_22">
    <path d="M 289.769643 154.812665 
L 302.096797 154.812665 
L 302.096797 73.944633 
L 289.769643 73.944633 
z
" clip-path="url(#p7e12e8a22e)" style="fill: url(#h97987f5d54)"/>
   </g>
   <g id="patch_23">
    <path d="M 305.178586 154.812665 
L 317.50574 154.812665 
L 317.50574 71.88241 
L 305.178586 71.88241 
z
" clip-path="url(#p7e12e8a22e)" style="fill: url(#hb30d9d4d4e)"/>
   </g>
   <g id="matplotlib.axis_7">
    <g id="xtick_10">
     <g id="line2d_60">
      <g>
       <use xlink:href="#m2ed8e52733" x="280.524277" y="154.812665" style="stroke: #000000; stroke-width: 0.8"/>
      </g>
     </g>
     <g id="text_38">
      <text style="font: 8px 'arial'; text-anchor: middle" x="280.524277" y="167.538915" transform="rotate(-0 280.524277 167.538915)">CRL   </text>
     </g>
    </g>
    <g id="xtick_11">
     <g id="line2d_61">
      <g>
       <use xlink:href="#m2ed8e52733" x="295.93322" y="154.812665" style="stroke: #000000; stroke-width: 0.8"/>
      </g>
     </g>
     <g id="text_39">
      <text style="font: 8px 'arial'; text-anchor: middle" x="295.93322" y="167.538915" transform="rotate(-0 295.93322 167.538915)">SOD</text>
     </g>
    </g>
    <g id="xtick_12">
     <g id="line2d_62">
      <g>
       <use xlink:href="#m2ed8e52733" x="311.342163" y="154.812665" style="stroke: #000000; stroke-width: 0.8"/>
      </g>
     </g>
     <g id="text_40">
      <text style="font: 8px 'arial'; text-anchor: middle" x="311.342163" y="167.538915" transform="rotate(-0 311.342163 167.538915)">   TDP</text>
     </g>
    </g>
   </g>
   <g id="matplotlib.axis_8">
    <g id="ytick_19">
     <g id="line2d_63">
      <g>
       <use xlink:href="#mdd9971cd5f" x="272.203448" y="154.812665" style="stroke: #000000; stroke-width: 0.8"/>
      </g>
     </g>
     <g id="text_41">
      <text style="font: 8px 'arial'; text-anchor: end" x="265.203448" y="157.67579" transform="rotate(-0 265.203448 157.67579)">0.0</text>
     </g>
    </g>
    <g id="ytick_20">
     <g id="line2d_64">
      <g>
       <use xlink:href="#mdd9971cd5f" x="272.203448" y="137.863248" style="stroke: #000000; stroke-width: 0.8"/>
      </g>
     </g>
     <g id="text_42">
      <text style="font: 8px 'arial'; text-anchor: end" x="265.203448" y="140.726373" transform="rotate(-0 265.203448 140.726373)">0.2</text>
     </g>
    </g>
    <g id="ytick_21">
     <g id="line2d_65">
      <g>
       <use xlink:href="#mdd9971cd5f" x="272.203448" y="120.91383" style="stroke: #000000; stroke-width: 0.8"/>
      </g>
     </g>
     <g id="text_43">
      <text style="font: 8px 'arial'; text-anchor: end" x="265.203448" y="123.776955" transform="rotate(-0 265.203448 123.776955)">0.4</text>
     </g>
    </g>
    <g id="ytick_22">
     <g id="line2d_66">
      <g>
       <use xlink:href="#mdd9971cd5f" x="272.203448" y="103.964412" style="stroke: #000000; stroke-width: 0.8"/>
      </g>
     </g>
     <g id="text_44">
      <text style="font: 8px 'arial'; text-anchor: end" x="265.203448" y="106.827537" transform="rotate(-0 265.203448 106.827537)">0.6</text>
     </g>
    </g>
    <g id="ytick_23">
     <g id="line2d_67">
      <g>
       <use xlink:href="#mdd9971cd5f" x="272.203448" y="87.014994" style="stroke: #000000; stroke-width: 0.8"/>
      </g>
     </g>
     <g id="text_45">
      <text style="font: 8px 'arial'; text-anchor: end" x="265.203448" y="89.878119" transform="rotate(-0 265.203448 89.878119)">0.8</text>
     </g>
    </g>
    <g id="ytick_24">
     <g id="line2d_68">
      <g>
       <use xlink:href="#mdd9971cd5f" x="272.203448" y="70.065577" style="stroke: #000000; stroke-width: 0.8"/>
      </g>
     </g>
     <g id="text_46">
      <text style="font: 8px 'arial'; text-anchor: end" x="265.203448" y="72.928702" transform="rotate(-0 265.203448 72.928702)">1.0</text>
     </g>
    </g>
    <g id="ytick_25">
     <g id="line2d_69">
      <g>
       <use xlink:href="#mdd9971cd5f" x="272.203448" y="53.116159" style="stroke: #000000; stroke-width: 0.8"/>
      </g>
     </g>
     <g id="text_47">
      <text style="font: 8px 'arial'; text-anchor: end" x="265.203448" y="55.979284" transform="rotate(-0 265.203448 55.979284)">1.2</text>
     </g>
    </g>
   </g>
   <g id="line2d_70">
    <path d="M 280.524277 75.474896 
L 280.524277 60.992353 
" clip-path="url(#p7e12e8a22e)" style="fill: none; stroke: #424242; stroke-linecap: square"/>
   </g>
   <g id="line2d_71">
    <path d="M 278.983383 75.474896 
L 282.065172 75.474896 
" clip-path="url(#p7e12e8a22e)" style="fill: none; stroke: #424242; stroke-linecap: square"/>
   </g>
   <g id="line2d_72">
    <path d="M 278.983383 60.992353 
L 282.065172 60.992353 
" clip-path="url(#p7e12e8a22e)" style="fill: none; stroke: #424242; stroke-linecap: square"/>
   </g>
   <g id="line2d_73">
    <path d="M 295.93322 74.475466 
L 295.93322 73.413801 
" clip-path="url(#p7e12e8a22e)" style="fill: none; stroke: #424242; stroke-linecap: square"/>
   </g>
   <g id="line2d_74">
    <path d="M 294.392326 74.475466 
L 297.474114 74.475466 
" clip-path="url(#p7e12e8a22e)" style="fill: none; stroke: #424242; stroke-linecap: square"/>
   </g>
   <g id="line2d_75">
    <path d="M 294.392326 73.413801 
L 297.474114 73.413801 
" clip-path="url(#p7e12e8a22e)" style="fill: none; stroke: #424242; stroke-linecap: square"/>
   </g>
   <g id="line2d_76">
    <path d="M 311.342163 78.103264 
L 311.342163 65.661556 
" clip-path="url(#p7e12e8a22e)" style="fill: none; stroke: #424242; stroke-linecap: square"/>
   </g>
   <g id="line2d_77">
    <path d="M 309.801269 78.103264 
L 312.883057 78.103264 
" clip-path="url(#p7e12e8a22e)" style="fill: none; stroke: #424242; stroke-linecap: square"/>
   </g>
   <g id="line2d_78">
    <path d="M 309.801269 65.661556 
L 312.883057 65.661556 
" clip-path="url(#p7e12e8a22e)" style="fill: none; stroke: #424242; stroke-linecap: square"/>
   </g>
   <g id="line2d_79">
    <path d="M 280.524277 55.081673 
L 280.524277 53.111446 
L 311.342163 53.111446 
L 311.342163 55.081673 
" clip-path="url(#p7e12e8a22e)" style="fill: none; stroke: #333333; stroke-width: 0.5; stroke-linecap: square"/>
   </g>
   <g id="patch_24">
    <path d="M 272.203448 154.812665 
L 272.203448 41.499213 
" style="fill: none; stroke: #000000; stroke-width: 0.8; stroke-linejoin: miter; stroke-linecap: square"/>
   </g>
   <g id="patch_25">
    <path d="M 272.203448 154.812665 
L 319.662992 154.812665 
" style="fill: none; stroke: #000000; stroke-width: 0.8; stroke-linejoin: miter; stroke-linecap: square"/>
   </g>
   <g id="PathCollection_10">
    <defs>
     <path id="C9_0_d27f3b3f4d" d="M 0 2.5 
C 0.663008 2.5 1.29895 2.236584 1.767767 1.767767 
C 2.236584 1.29895 2.5 0.663008 2.5 -0 
C 2.5 -0.663008 2.236584 -1.29895 1.767767 -1.767767 
C 1.29895 -2.236584 0.663008 -2.5 0 -2.5 
C -0.663008 -2.5 -1.29895 -2.236584 -1.767767 -1.767767 
C -2.236584 -1.29895 -2.5 -0.663008 -2.5 0 
C -2.5 0.663008 -2.236584 1.29895 -1.767767 1.767767 
C -1.29895 2.236584 -0.663008 2.5 0 2.5 
z
"/>
    </defs>
    <g clip-path="url(#p7e12e8a22e)">
     <use xlink:href="#C9_0_d27f3b3f4d" x="280.162106" y="60.992353" style="fill: #04a777; stroke: #ffffff"/>
    </g>
    <g clip-path="url(#p7e12e8a22e)">
     <use xlink:href="#C9_0_d27f3b3f4d" x="279.720304" y="66.839506" style="fill: #04a777; stroke: #ffffff"/>
    </g>
    <g clip-path="url(#p7e12e8a22e)">
     <use xlink:href="#C9_0_d27f3b3f4d" x="280.628641" y="75.474896" style="fill: #04a777; stroke: #ffffff"/>
    </g>
   </g>
   <g id="PathCollection_11">
    <defs>
     <path id="Ca_0_17ad3a87b3" d="M 0 2.5 
C 0.663008 2.5 1.29895 2.236584 1.767767 1.767767 
C 2.236584 1.29895 2.5 0.663008 2.5 -0 
C 2.5 -0.663008 2.236584 -1.29895 1.767767 -1.767767 
C 1.29895 -2.236584 0.663008 -2.5 0 -2.5 
C -0.663008 -2.5 -1.29895 -2.236584 -1.767767 -1.767767 
C -2.236584 -1.29895 -2.5 -0.663008 -2.5 0 
C -2.5 0.663008 -2.236584 1.29895 -1.767767 1.767767 
C -1.29895 2.236584 -0.663008 2.5 0 2.5 
z
"/>
    </defs>
    <g clip-path="url(#p7e12e8a22e)">
     <use xlink:href="#Ca_0_17ad3a87b3" x="297.453751" y="74.475466" style="fill: #820263; stroke: #ffffff"/>
    </g>
    <g clip-path="url(#p7e12e8a22e)">
     <use xlink:href="#Ca_0_17ad3a87b3" x="294.543471" y="73.413801" style="fill: #820263; stroke: #ffffff"/>
    </g>
   </g>
   <g id="PathCollection_12">
    <defs>
     <path id="Cb_0_793d4576f1" d="M 0 2.5 
C 0.663008 2.5 1.29895 2.236584 1.767767 1.767767 
C 2.236584 1.29895 2.5 0.663008 2.5 -0 
C 2.5 -0.663008 2.236584 -1.29895 1.767767 -1.767767 
C 1.29895 -2.236584 0.663008 -2.5 0 -2.5 
C -0.663008 -2.5 -1.29895 -2.236584 -1.767767 -1.767767 
C -2.236584 -1.29895 -2.5 -0.663008 -2.5 0 
C -2.5 0.663008 -2.236584 1.29895 -1.767767 1.767767 
C -1.29895 2.236584 -0.663008 2.5 0 2.5 
z
"/>
    </defs>
    <g clip-path="url(#p7e12e8a22e)">
     <use xlink:href="#Cb_0_793d4576f1" x="310.975627" y="61.363549" style="fill: #fb8b24; stroke: #ffffff"/>
    </g>
    <g clip-path="url(#p7e12e8a22e)">
     <use xlink:href="#Cb_0_793d4576f1" x="312.813846" y="66.232946" style="fill: #fb8b24; stroke: #ffffff"/>
    </g>
    <g clip-path="url(#p7e12e8a22e)">
     <use xlink:href="#Cb_0_793d4576f1" x="310.805428" y="79.292872" style="fill: #fb8b24; stroke: #ffffff"/>
    </g>
    <g clip-path="url(#p7e12e8a22e)">
     <use xlink:href="#Cb_0_793d4576f1" x="311.366664" y="79.407895" style="fill: #fb8b24; stroke: #ffffff"/>
    </g>
    <g clip-path="url(#p7e12e8a22e)">
     <use xlink:href="#Cb_0_793d4576f1" x="311.861936" y="73.114786" style="fill: #fb8b24; stroke: #ffffff"/>
    </g>
   </g>
   <g id="text_48">
    <text style="font: 8px 'arial'; text-anchor: middle" x="295.93322" y="50.521446" transform="rotate(-0 295.93322 50.521446)">ns</text>
   </g>
   <g id="text_49">
    <text style="font: 8px 'arial'; text-anchor: middle" x="295.93322" y="35.499213" transform="rotate(-0 295.93322 35.499213)">Frontal cortex</text>
   </g>
   <g id="legend_4"/>
  </g>
  <g id="axes_5">
   <g id="patch_26">
    <path d="M 44.397638 307.785827 
L 167.792452 307.785827 
L 167.792452 194.472374 
L 44.397638 194.472374 
L 44.397638 307.785827 
z
" style="fill: none"/>
   </g>
   <g id="PolyCollection_1">
    <path d="M 47.744596 861.022097 
L 46.496135 861.022097 
L 47.158413 854.356599 
L 47.486706 847.691102 
L 47.558296 841.025605 
L 47.547569 834.360108 
L 47.516252 827.69461 
L 47.501414 821.029113 
L 47.484873 814.363616 
L 47.472992 807.698119 
L 47.461205 801.032621 
L 47.459952 794.367124 
L 47.454354 787.701627 
L 47.453251 781.03613 
L 47.458187 774.370633 
L 47.466229 767.705135 
L 47.474312 761.039638 
L 47.499975 754.374141 
L 47.532236 747.708644 
L 47.575107 741.043146 
L 47.640954 734.377649 
L 47.694183 727.712152 
L 47.751749 721.046655 
L 47.815188 714.381158 
L 47.881245 707.71566 
L 47.956405 701.050163 
L 48.031902 694.384666 
L 48.078396 687.719169 
L 48.139973 681.053671 
L 48.190609 674.388174 
L 48.234815 667.722677 
L 48.271114 661.05718 
L 48.306938 654.391683 
L 48.348773 647.726185 
L 48.389185 641.060688 
L 48.429432 634.395191 
L 48.469346 627.729694 
L 48.506917 621.064196 
L 48.543345 614.398699 
L 48.576877 607.733202 
L 48.625066 601.067705 
L 48.670331 594.402207 
L 48.714807 587.73671 
L 48.751309 581.071213 
L 48.802398 574.405716 
L 48.844469 567.740219 
L 48.886745 561.074721 
L 48.937609 554.409224 
L 48.990639 547.743727 
L 49.044862 541.07823 
L 49.106771 534.412732 
L 49.165698 527.747235 
L 49.222135 521.081738 
L 49.296125 514.416241 
L 49.367529 507.750744 
L 49.430018 501.085246 
L 49.51034 494.419749 
L 49.582122 487.754252 
L 49.650538 481.088755 
L 49.715099 474.423257 
L 49.795866 467.75776 
L 49.863513 461.092263 
L 49.965317 454.426766 
L 50.049836 447.761269 
L 50.135536 441.095771 
L 50.22761 434.430274 
L 50.348024 427.764777 
L 50.460711 421.09928 
L 50.593838 414.433782 
L 50.736097 407.768285 
L 50.851757 401.102788 
L 50.978788 394.437291 
L 51.108558 387.771793 
L 51.267585 381.106296 
L 51.422678 374.440799 
L 51.579341 367.775302 
L 51.764317 361.109805 
L 51.957144 354.444307 
L 52.14998 347.77881 
L 52.378232 341.113313 
L 52.635036 334.447816 
L 52.885458 327.782318 
L 53.136128 321.116821 
L 53.423641 314.451324 
L 53.709899 307.785827 
L 54.019017 301.12033 
L 54.414342 294.454832 
L 54.91066 287.789335 
L 55.414164 281.123838 
L 55.983582 274.458341 
L 56.602779 267.792843 
L 57.374076 261.127346 
L 58.306939 254.461849 
L 59.705718 247.796352 
L 61.14873 241.130855 
L 63.202003 234.465357 
L 65.518692 227.79986 
L 68.984358 221.134363 
L 74.541698 214.468866 
L 88.069812 207.803368 
L 260.187016 201.137871 
L 322.323759 201.137871 
L 322.323759 201.137871 
L 119.005075 207.803368 
L 100.595843 214.468866 
L 91.179547 221.134363 
L 85.159464 227.79986 
L 80.943603 234.465357 
L 77.703945 241.130855 
L 74.967654 247.796352 
L 72.931523 254.461849 
L 71.268142 261.127346 
L 69.783299 267.792843 
L 68.503735 274.458341 
L 67.454528 281.123838 
L 66.411078 287.789335 
L 65.531695 294.454832 
L 64.767779 301.12033 
L 64.093148 307.785827 
L 63.459573 314.451324 
L 62.802889 321.116821 
L 62.270863 327.782318 
L 61.775249 334.447816 
L 61.293359 341.113313 
L 60.827652 347.77881 
L 60.413245 354.444307 
L 59.99424 361.109805 
L 59.626761 367.775302 
L 59.265913 374.440799 
L 58.905568 381.106296 
L 58.55509 387.771793 
L 58.238507 394.437291 
L 57.949008 401.102788 
L 57.65218 407.768285 
L 57.36825 414.433782 
L 57.103983 421.09928 
L 56.853881 427.764777 
L 56.625996 434.430274 
L 56.406065 441.095771 
L 56.19756 447.761269 
L 56.004245 454.426766 
L 55.818364 461.092263 
L 55.608925 467.75776 
L 55.416936 474.423257 
L 55.23831 481.088755 
L 55.068318 487.754252 
L 54.894082 494.419749 
L 54.739449 501.085246 
L 54.571895 507.750744 
L 54.414476 514.416241 
L 54.263615 521.081738 
L 54.121586 527.747235 
L 53.9814 534.412732 
L 53.854328 541.07823 
L 53.713913 547.743727 
L 53.585777 554.409224 
L 53.459978 561.074721 
L 53.335825 567.740219 
L 53.208791 574.405716 
L 53.090007 581.071213 
L 52.976818 587.73671 
L 52.863201 594.402207 
L 52.746284 601.067705 
L 52.640649 607.733202 
L 52.523792 614.398699 
L 52.41721 621.064196 
L 52.304478 627.729694 
L 52.198947 634.395191 
L 52.099927 641.060688 
L 52.000745 647.726185 
L 51.901725 654.391683 
L 51.80145 661.05718 
L 51.698901 667.722677 
L 51.601546 674.388174 
L 51.50446 681.053671 
L 51.400746 687.719169 
L 51.298842 694.384666 
L 51.194704 701.050163 
L 51.089541 707.71566 
L 50.979962 714.381158 
L 50.879782 721.046655 
L 50.771975 727.712152 
L 50.657421 734.377649 
L 50.542785 741.043146 
L 50.419334 747.708644 
L 50.308122 754.374141 
L 50.205358 761.039638 
L 50.08729 767.705135 
L 49.976257 774.370633 
L 49.857009 781.03613 
L 49.745628 787.701627 
L 49.620161 794.367124 
L 49.502215 801.032621 
L 49.359033 807.698119 
L 49.204414 814.363616 
L 49.038239 821.029113 
L 48.84058 827.69461 
L 48.553097 834.360108 
L 48.289074 841.025605 
L 48.109625 847.691102 
L 47.960324 854.356599 
L 47.744596 861.022097 
z
" clip-path="url(#pef736ea310)" style="fill: #04a777; fill-opacity: 0.3; stroke: #04a777; stroke-opacity: 0.3"/>
   </g>
   <g id="PolyCollection_2">
    <path d="M 48.47292 861.022097 
L 47.708625 861.022097 
L 47.660856 854.356599 
L 47.731941 847.691102 
L 47.863268 841.025605 
L 48.102852 834.360108 
L 48.464361 827.69461 
L 48.729203 821.029113 
L 48.92247 814.363616 
L 49.063373 807.698119 
L 49.179794 801.032621 
L 49.296115 794.367124 
L 49.401071 787.701627 
L 49.501211 781.03613 
L 49.61123 774.370633 
L 49.719046 767.705135 
L 49.813349 761.039638 
L 49.898306 754.374141 
L 49.999015 747.708644 
L 50.086451 741.043146 
L 50.171343 734.377649 
L 50.257365 727.712152 
L 50.355387 721.046655 
L 50.444827 714.381158 
L 50.522849 707.71566 
L 50.610773 701.050163 
L 50.709211 694.384666 
L 50.800912 687.719169 
L 50.904527 681.053671 
L 50.996939 674.388174 
L 51.102828 667.722677 
L 51.190883 661.05718 
L 51.288267 654.391683 
L 51.398111 647.726185 
L 51.500202 641.060688 
L 51.603638 634.395191 
L 51.702221 627.729694 
L 51.809375 621.064196 
L 51.904745 614.398699 
L 52.021604 607.733202 
L 52.125617 601.067705 
L 52.235037 594.402207 
L 52.362425 587.73671 
L 52.470417 581.071213 
L 52.58654 574.405716 
L 52.723828 567.740219 
L 52.851532 561.074721 
L 52.992598 554.409224 
L 53.122968 547.743727 
L 53.273935 541.07823 
L 53.415038 534.412732 
L 53.57979 527.747235 
L 53.751247 521.081738 
L 53.900028 514.416241 
L 54.068361 507.750744 
L 54.213073 501.085246 
L 54.369655 494.419749 
L 54.556207 487.754252 
L 54.753519 481.088755 
L 54.926132 474.423257 
L 55.127363 467.75776 
L 55.345502 461.092263 
L 55.564187 454.426766 
L 55.806203 447.761269 
L 56.039984 441.095771 
L 56.29045 434.430274 
L 56.562554 427.764777 
L 56.838088 421.09928 
L 57.157703 414.433782 
L 57.452566 407.768285 
L 57.720518 401.102788 
L 58.024003 394.437291 
L 58.396262 387.771793 
L 58.736411 381.106296 
L 59.077955 374.440799 
L 59.544958 367.775302 
L 59.983351 361.109805 
L 60.471287 354.444307 
L 60.916127 347.77881 
L 61.438214 341.113313 
L 62.040565 334.447816 
L 62.637611 327.782318 
L 63.254125 321.116821 
L 63.987822 314.451324 
L 64.70989 307.785827 
L 65.501734 301.12033 
L 66.461675 294.454832 
L 67.426818 287.789335 
L 68.544301 281.123838 
L 69.746761 274.458341 
L 71.175508 267.792843 
L 72.911229 261.127346 
L 74.753877 254.461849 
L 77.253687 247.796352 
L 80.260111 241.130855 
L 83.698395 234.465357 
L 87.684265 227.79986 
L 93.000647 221.134363 
L 99.89281 214.468866 
L 115.66126 207.803368 
L 321.054996 201.137871 
L 333.795327 201.137871 
L 333.795327 201.137871 
L 123.389051 207.803368 
L 105.234559 214.468866 
L 95.248076 221.134363 
L 88.314637 227.79986 
L 84.0873 234.465357 
L 81.003243 241.130855 
L 78.726011 247.796352 
L 76.998282 254.461849 
L 75.484918 261.127346 
L 74.134191 267.792843 
L 72.71177 274.458341 
L 71.532746 281.123838 
L 70.712134 287.789335 
L 69.856948 294.454832 
L 69.033512 301.12033 
L 68.250865 307.785827 
L 67.628716 314.451324 
L 67.009544 321.116821 
L 66.394352 327.782318 
L 65.844212 334.447816 
L 65.388811 341.113313 
L 64.892365 347.77881 
L 64.399186 354.444307 
L 63.95252 361.109805 
L 63.490155 367.775302 
L 63.094151 374.440799 
L 62.729619 381.106296 
L 62.358576 387.771793 
L 62.015971 394.437291 
L 61.672556 401.102788 
L 61.322814 407.768285 
L 60.961545 414.433782 
L 60.649295 421.09928 
L 60.338399 427.764777 
L 60.05852 434.430274 
L 59.769785 441.095771 
L 59.486874 447.761269 
L 59.216191 454.426766 
L 58.95044 461.092263 
L 58.675609 467.75776 
L 58.430187 474.423257 
L 58.180971 481.088755 
L 57.930942 487.754252 
L 57.694704 494.419749 
L 57.440293 501.085246 
L 57.194441 507.750744 
L 56.967402 514.416241 
L 56.753465 521.081738 
L 56.557732 527.747235 
L 56.391479 534.412732 
L 56.180712 541.07823 
L 55.997257 547.743727 
L 55.797125 554.409224 
L 55.593925 561.074721 
L 55.41478 567.740219 
L 55.225666 574.405716 
L 55.039854 581.071213 
L 54.858667 587.73671 
L 54.695084 594.402207 
L 54.520561 601.067705 
L 54.345686 607.733202 
L 54.18093 614.398699 
L 54.020476 621.064196 
L 53.863485 627.729694 
L 53.695892 634.395191 
L 53.522094 641.060688 
L 53.370053 647.726185 
L 53.22256 654.391683 
L 53.075562 661.05718 
L 52.940572 667.722677 
L 52.789367 674.388174 
L 52.651463 681.053671 
L 52.520136 687.719169 
L 52.389683 694.384666 
L 52.261168 701.050163 
L 52.144052 707.71566 
L 52.009718 714.381158 
L 51.896372 721.046655 
L 51.784827 727.712152 
L 51.659368 734.377649 
L 51.55027 741.043146 
L 51.430542 747.708644 
L 51.316854 754.374141 
L 51.20915 761.039638 
L 51.108797 767.705135 
L 51.00466 774.370633 
L 50.892054 781.03613 
L 50.780062 787.701627 
L 50.664644 794.367124 
L 50.564857 801.032621 
L 50.450774 807.698119 
L 50.332443 814.363616 
L 50.217967 821.029113 
L 50.108238 827.69461 
L 49.982237 834.360108 
L 49.829761 841.025605 
L 49.62762 847.691102 
L 49.337709 854.356599 
L 48.47292 861.022097 
z
" clip-path="url(#pef736ea310)" style="fill: #820263; fill-opacity: 0.3; stroke: #820263; stroke-opacity: 0.3"/>
   </g>
   <g id="PolyCollection_3">
    <path d="M 48.609949 861.022097 
L 47.27249 861.022097 
L 47.68358 854.356599 
L 47.81002 847.691102 
L 47.902676 841.025605 
L 48.016855 834.360108 
L 48.17454 827.69461 
L 48.356408 821.029113 
L 48.509176 814.363616 
L 48.659184 807.698119 
L 48.826939 801.032621 
L 49.00091 794.367124 
L 49.154845 787.701627 
L 49.287539 781.03613 
L 49.40582 774.370633 
L 49.524205 767.705135 
L 49.632534 761.039638 
L 49.735057 754.374141 
L 49.833163 747.708644 
L 49.939499 741.043146 
L 50.037425 734.377649 
L 50.139561 727.712152 
L 50.245773 721.046655 
L 50.351824 714.381158 
L 50.453131 707.71566 
L 50.554335 701.050163 
L 50.655982 694.384666 
L 50.756525 687.719169 
L 50.870447 681.053671 
L 50.98572 674.388174 
L 51.091713 667.722677 
L 51.202008 661.05718 
L 51.324493 654.391683 
L 51.445612 647.726185 
L 51.569603 641.060688 
L 51.685571 634.395191 
L 51.813883 627.729694 
L 51.941536 621.064196 
L 52.073517 614.398699 
L 52.198181 607.733202 
L 52.332883 601.067705 
L 52.469701 594.402207 
L 52.606028 587.73671 
L 52.744865 581.071213 
L 52.883324 574.405716 
L 53.024679 567.740219 
L 53.168173 561.074721 
L 53.304176 554.409224 
L 53.458663 547.743727 
L 53.619315 541.07823 
L 53.774418 534.412732 
L 53.939152 527.747235 
L 54.101665 521.081738 
L 54.277241 514.416241 
L 54.464519 507.750744 
L 54.64417 501.085246 
L 54.814909 494.419749 
L 55.003459 487.754252 
L 55.195584 481.088755 
L 55.397642 474.423257 
L 55.617738 467.75776 
L 55.837017 461.092263 
L 56.067311 454.426766 
L 56.30844 447.761269 
L 56.568308 441.095771 
L 56.812278 434.430274 
L 57.095553 427.764777 
L 57.378682 421.09928 
L 57.697281 414.433782 
L 58.013698 407.768285 
L 58.344274 401.102788 
L 58.688134 394.437291 
L 59.06644 387.771793 
L 59.438904 381.106296 
L 59.826853 374.440799 
L 60.242092 367.775302 
L 60.680511 361.109805 
L 61.134676 354.444307 
L 61.622122 347.77881 
L 62.102694 341.113313 
L 62.636262 334.447816 
L 63.227267 327.782318 
L 63.861434 321.116821 
L 64.514018 314.451324 
L 65.197148 307.785827 
L 65.984475 301.12033 
L 66.774582 294.454832 
L 67.607461 287.789335 
L 68.570053 281.123838 
L 69.707287 274.458341 
L 70.905656 267.792843 
L 72.318664 261.127346 
L 73.761178 254.461849 
L 75.763512 247.796352 
L 77.892958 241.130855 
L 80.617791 234.465357 
L 84.140995 227.79986 
L 88.649327 221.134363 
L 96.755341 214.468866 
L 112.163464 207.803368 
L 284.997029 201.137871 
L 376.996121 201.137871 
L 376.996121 201.137871 
L 143.092901 207.803368 
L 123.164368 214.468866 
L 113.784261 221.134363 
L 107.511014 227.79986 
L 102.961137 234.465357 
L 99.215744 241.130855 
L 96.300323 247.796352 
L 93.853545 254.461849 
L 91.857968 261.127346 
L 90.123862 267.792843 
L 88.60743 274.458341 
L 87.298839 281.123838 
L 86.071635 287.789335 
L 84.918371 294.454832 
L 83.88166 301.12033 
L 82.917954 307.785827 
L 81.983353 314.451324 
L 81.112982 321.116821 
L 80.250884 327.782318 
L 79.47422 334.447816 
L 78.742463 341.113313 
L 78.024872 347.77881 
L 77.349634 354.444307 
L 76.636984 361.109805 
L 75.99486 367.775302 
L 75.330208 374.440799 
L 74.69269 381.106296 
L 74.106194 387.771793 
L 73.523852 394.437291 
L 72.925823 401.102788 
L 72.294766 407.768285 
L 71.704491 414.433782 
L 71.083583 421.09928 
L 70.479887 427.764777 
L 69.902272 434.430274 
L 69.354709 441.095771 
L 68.770244 447.761269 
L 68.201579 454.426766 
L 67.635325 461.092263 
L 67.072904 467.75776 
L 66.526784 474.423257 
L 65.95284 481.088755 
L 65.418162 487.754252 
L 64.865165 494.419749 
L 64.349773 501.085246 
L 63.839997 507.750744 
L 63.338832 514.416241 
L 62.848259 521.081738 
L 62.380455 527.747235 
L 61.933394 534.412732 
L 61.491518 541.07823 
L 61.089976 547.743727 
L 60.718908 554.409224 
L 60.351784 561.074721 
L 59.997584 567.740219 
L 59.648199 574.405716 
L 59.302065 581.071213 
L 58.972629 587.73671 
L 58.635004 594.402207 
L 58.323984 601.067705 
L 58.030198 607.733202 
L 57.739762 614.398699 
L 57.459768 621.064196 
L 57.198287 627.729694 
L 56.928661 634.395191 
L 56.685544 641.060688 
L 56.441054 647.726185 
L 56.207294 654.391683 
L 55.962046 661.05718 
L 55.737641 667.722677 
L 55.499143 674.388174 
L 55.27451 681.053671 
L 55.047929 687.719169 
L 54.820718 694.384666 
L 54.592931 701.050163 
L 54.360768 707.71566 
L 54.152426 714.381158 
L 53.944339 721.046655 
L 53.744016 727.712152 
L 53.536799 734.377649 
L 53.340794 741.043146 
L 53.134357 747.708644 
L 52.926423 754.374141 
L 52.713019 761.039638 
L 52.501989 767.705135 
L 52.297995 774.370633 
L 52.090028 781.03613 
L 51.871959 787.701627 
L 51.65246 794.367124 
L 51.444445 801.032621 
L 51.204622 807.698119 
L 50.964932 814.363616 
L 50.702188 821.029113 
L 50.433076 827.69461 
L 50.142076 834.360108 
L 49.842827 841.025605 
L 49.490681 847.691102 
L 49.076292 854.356599 
L 48.609949 861.022097 
z
" clip-path="url(#pef736ea310)" style="fill: #fb8b24; fill-opacity: 0.3; stroke: #fb8b24; stroke-opacity: 0.3"/>
   </g>
   <g id="matplotlib.axis_9">
    <g id="xtick_13">
     <g id="line2d_80">
      <g>
       <use xlink:href="#m2ed8e52733" x="44.397638" y="307.785827" style="stroke: #000000; stroke-width: 0.8"/>
      </g>
     </g>
     <g id="text_50">
      <text style="font: 8px 'arial'; text-anchor: middle" x="44.397638" y="320.512077" transform="rotate(-0 44.397638 320.512077)">0.0</text>
     </g>
    </g>
    <g id="xtick_14">
     <g id="line2d_81">
      <g>
       <use xlink:href="#m2ed8e52733" x="72.441914" y="307.785827" style="stroke: #000000; stroke-width: 0.8"/>
      </g>
     </g>
     <g id="text_51">
      <text style="font: 8px 'arial'; text-anchor: middle" x="72.441914" y="320.512077" transform="rotate(-0 72.441914 320.512077)">2.5</text>
     </g>
    </g>
    <g id="xtick_15">
     <g id="line2d_82">
      <g>
       <use xlink:href="#m2ed8e52733" x="100.48619" y="307.785827" style="stroke: #000000; stroke-width: 0.8"/>
      </g>
     </g>
     <g id="text_52">
      <text style="font: 8px 'arial'; text-anchor: middle" x="100.48619" y="320.512077" transform="rotate(-0 100.48619 320.512077)">5.0</text>
     </g>
    </g>
    <g id="xtick_16">
     <g id="line2d_83">
      <g>
       <use xlink:href="#m2ed8e52733" x="128.530466" y="307.785827" style="stroke: #000000; stroke-width: 0.8"/>
      </g>
     </g>
     <g id="text_53">
      <text style="font: 8px 'arial'; text-anchor: middle" x="128.530466" y="320.512077" transform="rotate(-0 128.530466 320.512077)">7.5</text>
     </g>
    </g>
    <g id="xtick_17">
     <g id="line2d_84">
      <g>
       <use xlink:href="#m2ed8e52733" x="156.574741" y="307.785827" style="stroke: #000000; stroke-width: 0.8"/>
      </g>
     </g>
     <g id="text_54">
      <text style="font: 8px 'arial'; text-anchor: middle" x="156.574741" y="320.512077" transform="rotate(-0 156.574741 320.512077)">10.0</text>
     </g>
    </g>
    <g id="text_55">
     <text style="font: 8px 'arial'; text-anchor: middle" x="106.095045" y="331.925827" transform="rotate(-0 106.095045 331.925827)">Intensity (AU)</text>
    </g>
   </g>
   <g id="matplotlib.axis_10">
    <g id="ytick_26">
     <g id="line2d_85">
      <g>
       <use xlink:href="#mdd9971cd5f" x="44.397638" y="301.12033" style="stroke: #000000; stroke-width: 0.8"/>
      </g>
     </g>
     <g id="text_56">
      <text style="font: 8px 'arial'; text-anchor: end" x="37.397638" y="303.983455" transform="rotate(-0 37.397638 303.983455)">0.850</text>
     </g>
    </g>
    <g id="ytick_27">
     <g id="line2d_86">
      <g>
       <use xlink:href="#mdd9971cd5f" x="44.397638" y="284.456586" style="stroke: #000000; stroke-width: 0.8"/>
      </g>
     </g>
     <g id="text_57">
      <text style="font: 8px 'arial'; text-anchor: end" x="37.397638" y="287.319711" transform="rotate(-0 37.397638 287.319711)">0.875</text>
     </g>
    </g>
    <g id="ytick_28">
     <g id="line2d_87">
      <g>
       <use xlink:href="#mdd9971cd5f" x="44.397638" y="267.792843" style="stroke: #000000; stroke-width: 0.8"/>
      </g>
     </g>
     <g id="text_58">
      <text style="font: 8px 'arial'; text-anchor: end" x="37.397638" y="270.655968" transform="rotate(-0 37.397638 270.655968)">0.900</text>
     </g>
    </g>
    <g id="ytick_29">
     <g id="line2d_88">
      <g>
       <use xlink:href="#mdd9971cd5f" x="44.397638" y="251.1291" style="stroke: #000000; stroke-width: 0.8"/>
      </g>
     </g>
     <g id="text_59">
      <text style="font: 8px 'arial'; text-anchor: end" x="37.397638" y="253.992225" transform="rotate(-0 37.397638 253.992225)">0.925</text>
     </g>
    </g>
    <g id="ytick_30">
     <g id="line2d_89">
      <g>
       <use xlink:href="#mdd9971cd5f" x="44.397638" y="234.465357" style="stroke: #000000; stroke-width: 0.8"/>
      </g>
     </g>
     <g id="text_60">
      <text style="font: 8px 'arial'; text-anchor: end" x="37.397638" y="237.328482" transform="rotate(-0 37.397638 237.328482)">0.950</text>
     </g>
    </g>
    <g id="ytick_31">
     <g id="line2d_90">
      <g>
       <use xlink:href="#mdd9971cd5f" x="44.397638" y="217.801614" style="stroke: #000000; stroke-width: 0.8"/>
      </g>
     </g>
     <g id="text_61">
      <text style="font: 8px 'arial'; text-anchor: end" x="37.397638" y="220.664739" transform="rotate(-0 37.397638 220.664739)">0.975</text>
     </g>
    </g>
    <g id="ytick_32">
     <g id="line2d_91">
      <g>
       <use xlink:href="#mdd9971cd5f" x="44.397638" y="201.137871" style="stroke: #000000; stroke-width: 0.8"/>
      </g>
     </g>
     <g id="text_62">
      <text style="font: 8px 'arial'; text-anchor: end" x="37.397638" y="204.000996" transform="rotate(-0 37.397638 204.000996)">1.000</text>
     </g>
    </g>
    <g id="text_63">
     <text style="font: 8px 'arial'; text-anchor: middle" x="11.790138" y="251.1291" transform="rotate(-90 11.790138 251.1291)">Proportion</text>
    </g>
   </g>
   <g id="line2d_92">
    <path d="M 56.538375 346.826772 
L 56.835796 341.113313 
L 57.205142 334.447816 
L 57.578161 327.782318 
L 57.969508 321.116821 
L 58.441607 314.451324 
L 58.901523 307.785827 
L 59.393398 301.12033 
L 59.973018 294.454832 
L 60.660869 287.789335 
L 61.434346 281.123838 
L 62.243659 274.458341 
L 63.193039 267.792843 
L 64.321109 261.127346 
L 65.619231 254.461849 
L 67.336686 247.796352 
L 69.426338 241.130855 
L 72.072803 234.465357 
L 75.339078 227.79986 
L 80.081953 221.134363 
L 87.568771 214.468866 
L 103.537444 207.803368 
L 291.255388 201.137871 
" clip-path="url(#pef736ea310)" style="fill: none; stroke: #04a777; stroke-width: 1.5; stroke-linecap: square"/>
   </g>
   <g id="line2d_93">
    <path d="M 62.976985 346.826772 
L 63.413512 341.113313 
L 63.942388 334.447816 
L 64.515982 327.782318 
L 65.131835 321.116821 
L 65.808269 314.451324 
L 66.480377 307.785827 
L 67.267623 301.12033 
L 68.159312 294.454832 
L 69.069476 287.789335 
L 70.038523 281.123838 
L 71.229265 274.458341 
L 72.65485 267.792843 
L 74.198073 261.127346 
L 75.87608 254.461849 
L 77.989849 247.796352 
L 80.631677 241.130855 
L 83.892847 234.465357 
L 87.999451 227.79986 
L 94.124361 221.134363 
L 102.563684 214.468866 
L 119.525155 207.803368 
L 327.425161 201.137871 
" clip-path="url(#pef736ea310)" style="fill: none; stroke: #820263; stroke-width: 1.5; stroke-linecap: square"/>
   </g>
   <g id="line2d_94">
    <path d="M 69.909064 346.826772 
L 70.422579 341.113313 
L 71.055241 334.447816 
L 71.739075 327.782318 
L 72.487208 321.116821 
L 73.248686 314.451324 
L 74.057551 307.785827 
L 74.933067 301.12033 
L 75.846476 294.454832 
L 76.839548 287.789335 
L 77.934446 281.123838 
L 79.157358 274.458341 
L 80.514759 267.792843 
L 82.088316 261.127346 
L 83.807361 254.461849 
L 86.031918 247.796352 
L 88.554351 241.130855 
L 91.789464 234.465357 
L 95.826004 227.79986 
L 101.216794 221.134363 
L 109.959854 214.468866 
L 127.628182 207.803368 
L 330.996575 201.137871 
" clip-path="url(#pef736ea310)" style="fill: none; stroke: #fb8b24; stroke-width: 1.5; stroke-linecap: square"/>
   </g>
   <g id="line2d_95">
    <path d="M 122.92161 282.456937 
L 120.678068 282.456937 
L 120.678068 299.453955 
L 122.92161 299.453955 
" clip-path="url(#pef736ea310)" style="fill: none; stroke: #000000; stroke-width: 0.5; stroke-linecap: square"/>
   </g>
   <g id="patch_27">
    <path d="M 44.397638 307.785827 
L 44.397638 194.472374 
" style="fill: none; stroke: #000000; stroke-width: 0.8; stroke-linejoin: miter; stroke-linecap: square"/>
   </g>
   <g id="patch_28">
    <path d="M 44.397638 307.785827 
L 167.792452 307.785827 
" style="fill: none; stroke: #000000; stroke-width: 0.8; stroke-linejoin: miter; stroke-linecap: square"/>
   </g>
   <g id="text_64">
    <text style="font: 700 12px 'arial'; text-anchor: start" x="9.397638" y="188.772904" transform="rotate(-0 9.397638 188.772904)">C</text>
   </g>
   <g id="text_65">
    <text style="font: 8px 'arial'" transform="translate(120.95136 295.626071) rotate(-90)">***</text>
   </g>
   <g id="text_66">
    <text style="font: 8px 'arial'; text-anchor: middle" x="106.095045" y="188.472374" transform="rotate(-0 106.095045 188.472374)">Cerebellum</text>
   </g>
   <g id="legend_5">
    <g id="line2d_96">
     <path d="M 129.031202 283.563327 
L 132.031202 283.563327 
L 135.031202 283.563327 
" style="fill: none; stroke: #04a777; stroke-width: 1.5; stroke-linecap: square"/>
    </g>
    <g id="text_67">
     <text style="font: 8px 'arial'; text-anchor: start" x="136.631202" y="286.363327" transform="rotate(-0 136.631202 286.363327)">Control</text>
    </g>
    <g id="line2d_97">
     <path d="M 129.031202 291.679577 
L 132.031202 291.679577 
L 135.031202 291.679577 
" style="fill: none; stroke: #820263; stroke-width: 1.5; stroke-linecap: square"/>
    </g>
    <g id="text_68">
     <text style="font: 8px 'arial'; text-anchor: start" x="136.631202" y="294.479577" transform="rotate(-0 136.631202 294.479577)">SOD1</text>
    </g>
    <g id="line2d_98">
     <path d="M 129.031202 299.795827 
L 132.031202 299.795827 
L 135.031202 299.795827 
" style="fill: none; stroke: #fb8b24; stroke-width: 1.5; stroke-linecap: square"/>
    </g>
    <g id="text_69">
     <text style="font: 8px 'arial'; text-anchor: start" x="136.631202" y="302.595827" transform="rotate(-0 136.631202 302.595827)">TDP-43</text>
    </g>
   </g>
  </g>
  <g id="axes_6">
   <g id="patch_29">
    <path d="M 196.268178 307.785827 
L 319.662992 307.785827 
L 319.662992 194.472374 
L 196.268178 194.472374 
L 196.268178 307.785827 
z
" style="fill: none"/>
   </g>
   <g id="PolyCollection_4">
    <path d="M 198.081394 861.022097 
L 198.04836 861.022097 
L 198.193258 854.356599 
L 198.364884 847.691102 
L 198.628092 841.025605 
L 199.055922 834.360108 
L 199.494975 827.69461 
L 199.615909 821.029113 
L 199.699725 814.363616 
L 199.81105 807.698119 
L 199.963984 801.032621 
L 200.15314 794.367124 
L 200.372348 787.701627 
L 200.480634 781.03613 
L 200.53947 774.370633 
L 200.58363 767.705135 
L 200.632901 761.039638 
L 200.680165 754.374141 
L 200.734176 747.708644 
L 200.787337 741.043146 
L 200.843062 734.377649 
L 200.908115 727.712152 
L 200.977537 721.046655 
L 201.048318 714.381158 
L 201.119568 707.71566 
L 201.19493 701.050163 
L 201.280378 694.384666 
L 201.360271 687.719169 
L 201.444372 681.053671 
L 201.518604 674.388174 
L 201.576792 667.722677 
L 201.63463 661.05718 
L 201.683588 654.391683 
L 201.727331 647.726185 
L 201.770441 641.060688 
L 201.815197 634.395191 
L 201.865928 627.729694 
L 201.923113 621.064196 
L 201.9851 614.398699 
L 202.051131 607.733202 
L 202.127789 601.067705 
L 202.210338 594.402207 
L 202.305397 587.73671 
L 202.41797 581.071213 
L 202.527433 574.405716 
L 202.642368 567.740219 
L 202.756311 561.074721 
L 202.885664 554.409224 
L 203.024408 547.743727 
L 203.166525 541.07823 
L 203.317616 534.412732 
L 203.478707 527.747235 
L 203.640042 521.081738 
L 203.802288 514.416241 
L 203.974642 507.750744 
L 204.154605 501.085246 
L 204.326609 494.419749 
L 204.513586 487.754252 
L 204.719898 481.088755 
L 204.909928 474.423257 
L 205.120485 467.75776 
L 205.324146 461.092263 
L 205.537637 454.426766 
L 205.733479 447.761269 
L 205.942485 441.095771 
L 206.150875 434.430274 
L 206.372398 427.764777 
L 206.596122 421.09928 
L 206.82503 414.433782 
L 207.077641 407.768285 
L 207.328841 401.102788 
L 207.579542 394.437291 
L 207.846414 387.771793 
L 208.138229 381.106296 
L 208.442511 374.440799 
L 208.761331 367.775302 
L 209.135582 361.109805 
L 209.525837 354.444307 
L 209.904871 347.77881 
L 210.312494 341.113313 
L 210.742819 334.447816 
L 211.218784 327.782318 
L 211.76208 321.116821 
L 212.342243 314.451324 
L 213.027356 307.785827 
L 213.75708 301.12033 
L 214.58809 294.454832 
L 215.470333 287.789335 
L 216.437046 281.123838 
L 217.621666 274.458341 
L 218.945101 267.792843 
L 220.321057 261.127346 
L 221.875131 254.461849 
L 223.757008 247.796352 
L 225.785044 241.130855 
L 228.469803 234.465357 
L 231.881065 227.79986 
L 236.390423 221.134363 
L 244.070798 214.468866 
L 257.743972 207.803368 
L 498.869752 201.137871 
L 564.940578 201.137871 
L 564.940578 201.137871 
L 281.345743 207.803368 
L 258.834131 214.468866 
L 247.969675 221.134363 
L 241.172257 227.79986 
L 236.290305 234.465357 
L 232.563668 241.130855 
L 229.768424 247.796352 
L 227.182793 254.461849 
L 225.043172 261.127346 
L 223.322629 267.792843 
L 221.819706 274.458341 
L 220.560009 281.123838 
L 219.436835 287.789335 
L 218.368953 294.454832 
L 217.418819 301.12033 
L 216.512313 307.785827 
L 215.697057 314.451324 
L 214.981638 321.116821 
L 214.33532 327.782318 
L 213.688306 334.447816 
L 213.106674 341.113313 
L 212.572543 347.77881 
L 212.04017 354.444307 
L 211.510719 361.109805 
L 211.013769 367.775302 
L 210.536766 374.440799 
L 210.093927 381.106296 
L 209.664355 387.771793 
L 209.225712 394.437291 
L 208.838455 401.102788 
L 208.447356 407.768285 
L 208.075065 414.433782 
L 207.731457 421.09928 
L 207.406864 427.764777 
L 207.100667 434.430274 
L 206.823806 441.095771 
L 206.533402 447.761269 
L 206.267536 454.426766 
L 206.01109 461.092263 
L 205.778415 467.75776 
L 205.563435 474.423257 
L 205.343454 481.088755 
L 205.141761 487.754252 
L 204.952964 494.419749 
L 204.770224 501.085246 
L 204.610964 507.750744 
L 204.440954 514.416241 
L 204.279961 521.081738 
L 204.124208 527.747235 
L 203.979466 534.412732 
L 203.832793 541.07823 
L 203.700945 547.743727 
L 203.575314 554.409224 
L 203.434653 561.074721 
L 203.306201 567.740219 
L 203.180949 574.405716 
L 203.058248 581.071213 
L 202.94186 587.73671 
L 202.829763 594.402207 
L 202.71321 601.067705 
L 202.60141 607.733202 
L 202.488902 614.398699 
L 202.377718 621.064196 
L 202.27183 627.729694 
L 202.16183 634.395191 
L 202.066721 641.060688 
L 201.982738 647.726185 
L 201.911964 654.391683 
L 201.846541 661.05718 
L 201.796005 667.722677 
L 201.747535 674.388174 
L 201.701127 681.053671 
L 201.660508 687.719169 
L 201.609035 694.384666 
L 201.544365 701.050163 
L 201.45877 707.71566 
L 201.373322 714.381158 
L 201.287537 721.046655 
L 201.208395 727.712152 
L 201.129759 734.377649 
L 201.054849 741.043146 
L 200.985862 747.708644 
L 200.911542 754.374141 
L 200.832593 761.039638 
L 200.763088 767.705135 
L 200.701571 774.370633 
L 200.651665 781.03613 
L 200.61926 787.701627 
L 200.613187 794.367124 
L 200.575703 801.032621 
L 200.44927 807.698119 
L 200.194733 814.363616 
L 199.885557 821.029113 
L 199.651329 827.69461 
L 199.594944 834.360108 
L 199.227148 841.025605 
L 198.660371 847.691102 
L 198.253621 854.356599 
L 198.081394 861.022097 
z
" clip-path="url(#p3573e60820)" style="fill: #04a777; fill-opacity: 0.3; stroke: #04a777; stroke-opacity: 0.3"/>
   </g>
   <g id="PolyCollection_5">
    <path d="M 198.574317 861.022097 
L 198.106821 861.022097 
L 198.495126 854.356599 
L 199.259825 847.691102 
L 199.641543 841.025605 
L 199.7378 834.360108 
L 199.812081 827.69461 
L 199.884109 821.029113 
L 199.959967 814.363616 
L 200.06101 807.698119 
L 200.228746 801.032621 
L 200.392723 794.367124 
L 200.471491 787.701627 
L 200.511603 781.03613 
L 200.549914 774.370633 
L 200.577006 767.705135 
L 200.603323 761.039638 
L 200.625413 754.374141 
L 200.653744 747.708644 
L 200.683283 741.043146 
L 200.70998 734.377649 
L 200.740839 727.712152 
L 200.772786 721.046655 
L 200.806483 714.381158 
L 200.842403 707.71566 
L 200.881686 701.050163 
L 200.931136 694.384666 
L 200.977859 687.719169 
L 201.038105 681.053671 
L 201.096029 674.388174 
L 201.168689 667.722677 
L 201.248656 661.05718 
L 201.337988 654.391683 
L 201.425079 647.726185 
L 201.507441 641.060688 
L 201.57316 634.395191 
L 201.624106 627.729694 
L 201.678354 621.064196 
L 201.74559 614.398699 
L 201.827131 607.733202 
L 201.915086 601.067705 
L 201.953915 594.402207 
L 201.960338 587.73671 
L 201.969984 581.071213 
L 201.975251 574.405716 
L 201.980915 567.740219 
L 201.979821 561.074721 
L 201.976643 554.409224 
L 201.978742 547.743727 
L 201.98185 541.07823 
L 201.984177 534.412732 
L 201.986666 527.747235 
L 201.991476 521.081738 
L 201.997711 514.416241 
L 202.003929 507.750744 
L 202.012272 501.085246 
L 202.026131 494.419749 
L 202.039012 487.754252 
L 202.056763 481.088755 
L 202.075816 474.423257 
L 202.093404 467.75776 
L 202.118973 461.092263 
L 202.144235 454.426766 
L 202.179735 447.761269 
L 202.223073 441.095771 
L 202.268572 434.430274 
L 202.313598 427.764777 
L 202.366085 421.09928 
L 202.444845 414.433782 
L 202.521823 407.768285 
L 202.593447 401.102788 
L 202.691778 394.437291 
L 202.796909 387.771793 
L 202.924744 381.106296 
L 203.069184 374.440799 
L 203.201731 367.775302 
L 203.364812 361.109805 
L 203.53969 354.444307 
L 203.765928 347.77881 
L 203.999294 341.113313 
L 204.247251 334.447816 
L 204.588098 327.782318 
L 204.965829 321.116821 
L 205.362234 314.451324 
L 205.81615 307.785827 
L 206.365602 301.12033 
L 206.925921 294.454832 
L 207.542648 287.789335 
L 208.255766 281.123838 
L 209.148893 274.458341 
L 210.088306 267.792843 
L 211.31716 261.127346 
L 212.6588 254.461849 
L 214.504228 247.796352 
L 216.692488 241.130855 
L 219.429266 234.465357 
L 223.752583 227.79986 
L 228.91238 221.134363 
L 237.841362 214.468866 
L 258.427447 207.803368 
L 471.119821 201.137871 
L 660.538331 201.137871 
L 660.538331 201.137871 
L 271.327209 207.803368 
L 252.102897 214.468866 
L 241.814843 221.134363 
L 235.87031 227.79986 
L 231.845155 234.465357 
L 228.700675 241.130855 
L 226.055128 247.796352 
L 223.792069 254.461849 
L 222.137234 261.127346 
L 220.513957 267.792843 
L 219.179176 274.458341 
L 218.013946 281.123838 
L 216.971929 287.789335 
L 216.103802 294.454832 
L 215.251854 301.12033 
L 214.487472 307.785827 
L 213.841249 314.451324 
L 213.213733 321.116821 
L 212.648594 327.782318 
L 212.105015 334.447816 
L 211.512219 341.113313 
L 211.00756 347.77881 
L 210.551043 354.444307 
L 210.116694 361.109805 
L 209.688725 367.775302 
L 209.246295 374.440799 
L 208.89369 381.106296 
L 208.525462 387.771793 
L 208.147087 394.437291 
L 207.826904 401.102788 
L 207.477846 407.768285 
L 207.180883 414.433782 
L 206.903485 421.09928 
L 206.624115 427.764777 
L 206.344287 434.430274 
L 206.086652 441.095771 
L 205.864682 447.761269 
L 205.644397 454.426766 
L 205.416888 461.092263 
L 205.214094 467.75776 
L 205.006402 474.423257 
L 204.790878 481.088755 
L 204.612735 487.754252 
L 204.42492 494.419749 
L 204.252001 501.085246 
L 204.0661 507.750744 
L 203.87969 514.416241 
L 203.707727 521.081738 
L 203.539866 527.747235 
L 203.366802 534.412732 
L 203.203552 541.07823 
L 203.043338 547.743727 
L 202.886747 554.409224 
L 202.72782 561.074721 
L 202.556344 567.740219 
L 202.407342 574.405716 
L 202.272387 581.071213 
L 202.145725 587.73671 
L 202.012273 594.402207 
L 201.939539 601.067705 
L 201.920813 607.733202 
L 201.894219 614.398699 
L 201.857747 621.064196 
L 201.807713 627.729694 
L 201.741171 634.395191 
L 201.672572 641.060688 
L 201.60045 647.726185 
L 201.533067 654.391683 
L 201.476966 661.05718 
L 201.421396 667.722677 
L 201.36487 674.388174 
L 201.315888 681.053671 
L 201.266691 687.719169 
L 201.211904 694.384666 
L 201.16551 701.050163 
L 201.12153 707.71566 
L 201.079665 714.381158 
L 201.038768 721.046655 
L 201.000568 727.712152 
L 200.962484 734.377649 
L 200.929967 741.043146 
L 200.900358 747.708644 
L 200.870268 754.374141 
L 200.838897 761.039638 
L 200.810409 767.705135 
L 200.784711 774.370633 
L 200.756645 781.03613 
L 200.722405 787.701627 
L 200.691605 794.367124 
L 200.656441 801.032621 
L 200.519347 807.698119 
L 200.238269 814.363616 
L 200.044878 821.029113 
L 199.920103 827.69461 
L 199.829419 834.360108 
L 199.744854 841.025605 
L 199.622858 847.691102 
L 199.16115 854.356599 
L 198.574317 861.022097 
z
" clip-path="url(#p3573e60820)" style="fill: #820263; fill-opacity: 0.3; stroke: #820263; stroke-opacity: 0.3"/>
   </g>
   <g id="PolyCollection_6">
    <path d="M 199.235145 861.022097 
L 197.891226 861.022097 
L 198.104362 854.356599 
L 198.447227 847.691102 
L 198.905172 841.025605 
L 199.225226 834.360108 
L 199.397423 827.69461 
L 199.464455 821.029113 
L 199.526572 814.363616 
L 199.606574 807.698119 
L 199.729509 801.032621 
L 199.894522 794.367124 
L 200.077395 787.701627 
L 200.227105 781.03613 
L 200.363549 774.370633 
L 200.434759 767.705135 
L 200.474392 761.039638 
L 200.502557 754.374141 
L 200.530204 747.708644 
L 200.56258 741.043146 
L 200.602764 734.377649 
L 200.645373 727.712152 
L 200.693775 721.046655 
L 200.740508 714.381158 
L 200.792032 707.71566 
L 200.848238 701.050163 
L 200.90058 694.384666 
L 200.960236 687.719169 
L 201.016703 681.053671 
L 201.062051 674.388174 
L 201.107678 667.722677 
L 201.149155 661.05718 
L 201.193265 654.391683 
L 201.240856 647.726185 
L 201.288477 641.060688 
L 201.338412 634.395191 
L 201.39694 627.729694 
L 201.454864 621.064196 
L 201.517417 614.398699 
L 201.58132 607.733202 
L 201.643142 601.067705 
L 201.710551 594.402207 
L 201.785305 587.73671 
L 201.858623 581.071213 
L 201.939557 574.405716 
L 202.021397 567.740219 
L 202.107832 561.074721 
L 202.201583 554.409224 
L 202.309282 547.743727 
L 202.419301 541.07823 
L 202.535028 534.412732 
L 202.654451 527.747235 
L 202.788547 521.081738 
L 202.928183 514.416241 
L 203.079563 507.750744 
L 203.217984 501.085246 
L 203.369862 494.419749 
L 203.536001 487.754252 
L 203.708342 481.088755 
L 203.88776 474.423257 
L 204.068823 467.75776 
L 204.263973 461.092263 
L 204.466515 454.426766 
L 204.68861 447.761269 
L 204.913982 441.095771 
L 205.14851 434.430274 
L 205.394513 427.764777 
L 205.674395 421.09928 
L 205.944183 414.433782 
L 206.226476 407.768285 
L 206.551399 401.102788 
L 206.875687 394.437291 
L 207.219427 387.771793 
L 207.589305 381.106296 
L 207.969777 374.440799 
L 208.367617 367.775302 
L 208.776205 361.109805 
L 209.214011 354.444307 
L 209.680378 347.77881 
L 210.188364 341.113313 
L 210.730447 334.447816 
L 211.284725 327.782318 
L 211.90034 321.116821 
L 212.519741 314.451324 
L 213.210495 307.785827 
L 213.984401 301.12033 
L 214.826408 294.454832 
L 215.717541 287.789335 
L 216.743397 281.123838 
L 217.903275 274.458341 
L 219.185397 267.792843 
L 220.677605 261.127346 
L 222.479881 254.461849 
L 224.684463 247.796352 
L 227.172272 241.130855 
L 230.595939 234.465357 
L 235.011648 227.79986 
L 241.007606 221.134363 
L 250.713586 214.468866 
L 269.998919 207.803368 
L 504.523954 201.137871 
L 651.146109 201.137871 
L 651.146109 201.137871 
L 287.983925 207.803368 
L 263.737019 214.468866 
L 251.945715 221.134363 
L 244.617071 227.79986 
L 239.343797 234.465357 
L 235.503019 241.130855 
L 232.205702 247.796352 
L 229.529168 254.461849 
L 227.374336 261.127346 
L 225.528683 267.792843 
L 223.825122 274.458341 
L 222.472305 281.123838 
L 221.154598 287.789335 
L 220.08897 294.454832 
L 219.04772 301.12033 
L 218.122985 307.785827 
L 217.250731 314.451324 
L 216.482957 321.116821 
L 215.653766 327.782318 
L 214.92399 334.447816 
L 214.285669 341.113313 
L 213.667021 347.77881 
L 213.106367 354.444307 
L 212.56615 361.109805 
L 212.09448 367.775302 
L 211.645394 374.440799 
L 211.210049 381.106296 
L 210.805045 387.771793 
L 210.432229 394.437291 
L 210.084763 401.102788 
L 209.73022 407.768285 
L 209.405941 414.433782 
L 209.090623 421.09928 
L 208.793832 427.764777 
L 208.510506 434.430274 
L 208.221182 441.095771 
L 207.946798 447.761269 
L 207.690487 454.426766 
L 207.450064 461.092263 
L 207.206231 467.75776 
L 206.971726 474.423257 
L 206.747143 481.088755 
L 206.535097 487.754252 
L 206.32859 494.419749 
L 206.129889 501.085246 
L 205.929329 507.750744 
L 205.742476 514.416241 
L 205.549219 521.081738 
L 205.363307 527.747235 
L 205.186277 534.412732 
L 205.007954 541.07823 
L 204.833858 547.743727 
L 204.66598 554.409224 
L 204.494018 561.074721 
L 204.328922 567.740219 
L 204.169737 574.405716 
L 204.007071 581.071213 
L 203.850185 587.73671 
L 203.697025 594.402207 
L 203.551612 601.067705 
L 203.410902 607.733202 
L 203.267633 614.398699 
L 203.122899 621.064196 
L 202.994204 627.729694 
L 202.868368 634.395191 
L 202.73243 641.060688 
L 202.607675 647.726185 
L 202.4913 654.391683 
L 202.37835 661.05718 
L 202.263788 667.722677 
L 202.155789 674.388174 
L 202.046238 681.053671 
L 201.927756 687.719169 
L 201.821388 694.384666 
L 201.717086 701.050163 
L 201.619054 707.71566 
L 201.533407 714.381158 
L 201.461578 721.046655 
L 201.394114 727.712152 
L 201.328727 734.377649 
L 201.264621 741.043146 
L 201.187181 747.708644 
L 201.110202 754.374141 
L 201.032979 761.039638 
L 200.959797 767.705135 
L 200.896679 774.370633 
L 200.834203 781.03613 
L 200.761228 787.701627 
L 200.632809 794.367124 
L 200.521274 801.032621 
L 200.439578 807.698119 
L 200.374608 814.363616 
L 200.317086 821.029113 
L 200.252364 827.69461 
L 200.132795 834.360108 
L 199.897581 841.025605 
L 199.708565 847.691102 
L 199.492361 854.356599 
L 199.235145 861.022097 
z
" clip-path="url(#p3573e60820)" style="fill: #fb8b24; fill-opacity: 0.3; stroke: #fb8b24; stroke-opacity: 0.3"/>
   </g>
   <g id="matplotlib.axis_11">
    <g id="xtick_18">
     <g id="line2d_99">
      <g>
       <use xlink:href="#m2ed8e52733" x="196.268178" y="307.785827" style="stroke: #000000; stroke-width: 0.8"/>
      </g>
     </g>
     <g id="text_70">
      <text style="font: 8px 'arial'; text-anchor: middle" x="196.268178" y="320.512077" transform="rotate(-0 196.268178 320.512077)">0.0</text>
     </g>
    </g>
    <g id="xtick_19">
     <g id="line2d_100">
      <g>
       <use xlink:href="#m2ed8e52733" x="224.312454" y="307.785827" style="stroke: #000000; stroke-width: 0.8"/>
      </g>
     </g>
     <g id="text_71">
      <text style="font: 8px 'arial'; text-anchor: middle" x="224.312454" y="320.512077" transform="rotate(-0 224.312454 320.512077)">2.5</text>
     </g>
    </g>
    <g id="xtick_20">
     <g id="line2d_101">
      <g>
       <use xlink:href="#m2ed8e52733" x="252.35673" y="307.785827" style="stroke: #000000; stroke-width: 0.8"/>
      </g>
     </g>
     <g id="text_72">
      <text style="font: 8px 'arial'; text-anchor: middle" x="252.35673" y="320.512077" transform="rotate(-0 252.35673 320.512077)">5.0</text>
     </g>
    </g>
    <g id="xtick_21">
     <g id="line2d_102">
      <g>
       <use xlink:href="#m2ed8e52733" x="280.401006" y="307.785827" style="stroke: #000000; stroke-width: 0.8"/>
      </g>
     </g>
     <g id="text_73">
      <text style="font: 8px 'arial'; text-anchor: middle" x="280.401006" y="320.512077" transform="rotate(-0 280.401006 320.512077)">7.5</text>
     </g>
    </g>
    <g id="xtick_22">
     <g id="line2d_103">
      <g>
       <use xlink:href="#m2ed8e52733" x="308.445282" y="307.785827" style="stroke: #000000; stroke-width: 0.8"/>
      </g>
     </g>
     <g id="text_74">
      <text style="font: 8px 'arial'; text-anchor: middle" x="308.445282" y="320.512077" transform="rotate(-0 308.445282 320.512077)">10.0</text>
     </g>
    </g>
    <g id="text_75">
     <text style="font: 8px 'arial'; text-anchor: middle" x="257.965585" y="331.925827" transform="rotate(-0 257.965585 331.925827)">Intensity (AU)</text>
    </g>
   </g>
   <g id="matplotlib.axis_12">
    <g id="ytick_33">
     <g id="line2d_104">
      <g>
       <use xlink:href="#mdd9971cd5f" x="196.268178" y="301.12033" style="stroke: #000000; stroke-width: 0.8"/>
      </g>
     </g>
     <g id="text_76">
      <text style="font: 8px 'arial'; text-anchor: end" x="189.268178" y="303.983455" transform="rotate(-0 189.268178 303.983455)">0.850</text>
     </g>
    </g>
    <g id="ytick_34">
     <g id="line2d_105">
      <g>
       <use xlink:href="#mdd9971cd5f" x="196.268178" y="284.456586" style="stroke: #000000; stroke-width: 0.8"/>
      </g>
     </g>
     <g id="text_77">
      <text style="font: 8px 'arial'; text-anchor: end" x="189.268178" y="287.319711" transform="rotate(-0 189.268178 287.319711)">0.875</text>
     </g>
    </g>
    <g id="ytick_35">
     <g id="line2d_106">
      <g>
       <use xlink:href="#mdd9971cd5f" x="196.268178" y="267.792843" style="stroke: #000000; stroke-width: 0.8"/>
      </g>
     </g>
     <g id="text_78">
      <text style="font: 8px 'arial'; text-anchor: end" x="189.268178" y="270.655968" transform="rotate(-0 189.268178 270.655968)">0.900</text>
     </g>
    </g>
    <g id="ytick_36">
     <g id="line2d_107">
      <g>
       <use xlink:href="#mdd9971cd5f" x="196.268178" y="251.1291" style="stroke: #000000; stroke-width: 0.8"/>
      </g>
     </g>
     <g id="text_79">
      <text style="font: 8px 'arial'; text-anchor: end" x="189.268178" y="253.992225" transform="rotate(-0 189.268178 253.992225)">0.925</text>
     </g>
    </g>
    <g id="ytick_37">
     <g id="line2d_108">
      <g>
       <use xlink:href="#mdd9971cd5f" x="196.268178" y="234.465357" style="stroke: #000000; stroke-width: 0.8"/>
      </g>
     </g>
     <g id="text_80">
      <text style="font: 8px 'arial'; text-anchor: end" x="189.268178" y="237.328482" transform="rotate(-0 189.268178 237.328482)">0.950</text>
     </g>
    </g>
    <g id="ytick_38">
     <g id="line2d_109">
      <g>
       <use xlink:href="#mdd9971cd5f" x="196.268178" y="217.801614" style="stroke: #000000; stroke-width: 0.8"/>
      </g>
     </g>
     <g id="text_81">
      <text style="font: 8px 'arial'; text-anchor: end" x="189.268178" y="220.664739" transform="rotate(-0 189.268178 220.664739)">0.975</text>
     </g>
    </g>
    <g id="ytick_39">
     <g id="line2d_110">
      <g>
       <use xlink:href="#mdd9971cd5f" x="196.268178" y="201.137871" style="stroke: #000000; stroke-width: 0.8"/>
      </g>
     </g>
     <g id="text_82">
      <text style="font: 8px 'arial'; text-anchor: end" x="189.268178" y="204.000996" transform="rotate(-0 189.268178 204.000996)">1.000</text>
     </g>
    </g>
    <g id="text_83">
     <text style="font: 8px 'arial'; text-anchor: middle" x="163.660678" y="251.1291" transform="rotate(-90 163.660678 251.1291)">Proportion</text>
    </g>
   </g>
   <g id="line2d_111">
    <path d="M 211.305963 346.826772 
L 211.709584 341.113313 
L 212.215562 334.447816 
L 212.777052 327.782318 
L 213.371859 321.116821 
L 214.01965 314.451324 
L 214.769834 307.785827 
L 215.587949 301.12033 
L 216.478521 294.454832 
L 217.453584 287.789335 
L 218.498527 281.123838 
L 219.720686 274.458341 
L 221.133865 267.792843 
L 222.682115 261.127346 
L 224.528962 254.461849 
L 226.762716 247.796352 
L 229.174356 241.130855 
L 232.380054 234.465357 
L 236.526661 227.79986 
L 242.180049 221.134363 
L 251.452464 214.468866 
L 269.544857 207.803368 
L 356.181102 205.602297 
" clip-path="url(#p3573e60820)" style="fill: none; stroke: #04a777; stroke-width: 1.5; stroke-linecap: square"/>
   </g>
   <g id="line2d_112">
    <path d="M 207.43945 346.826772 
L 207.755757 341.113313 
L 208.176133 334.447816 
L 208.618346 327.782318 
L 209.089781 321.116821 
L 209.601741 314.451324 
L 210.151811 307.785827 
L 210.808728 301.12033 
L 211.514862 294.454832 
L 212.257289 287.789335 
L 213.134856 281.123838 
L 214.164035 274.458341 
L 215.301132 267.792843 
L 216.727197 261.127346 
L 218.225435 254.461849 
L 220.279678 247.796352 
L 222.696581 241.130855 
L 225.63721 234.465357 
L 229.811446 227.79986 
L 235.363612 221.134363 
L 244.972129 214.468866 
L 264.877328 207.803368 
L 356.181102 205.781167 
" clip-path="url(#p3573e60820)" style="fill: none; stroke: #820263; stroke-width: 1.5; stroke-linecap: square"/>
   </g>
   <g id="line2d_113">
    <path d="M 211.754158 346.826772 
L 212.237016 341.113313 
L 212.827219 334.447816 
L 213.469245 327.782318 
L 214.191648 321.116821 
L 214.885236 314.451324 
L 215.66674 307.785827 
L 216.51606 301.12033 
L 217.457689 294.454832 
L 218.43607 287.789335 
L 219.607851 281.123838 
L 220.864198 274.458341 
L 222.35704 267.792843 
L 224.025971 261.127346 
L 226.004524 254.461849 
L 228.445083 247.796352 
L 231.337645 241.130855 
L 234.969868 234.465357 
L 239.814359 227.79986 
L 246.476661 221.134363 
L 257.225303 214.468866 
L 278.991422 207.803368 
L 356.181102 206.081707 
" clip-path="url(#p3573e60820)" style="fill: none; stroke: #fb8b24; stroke-width: 1.5; stroke-linecap: square"/>
   </g>
   <g id="line2d_114">
    <path d="M 274.792151 282.456937 
L 272.548609 282.456937 
L 272.548609 299.453955 
L 274.792151 299.453955 
" clip-path="url(#p3573e60820)" style="fill: none; stroke: #000000; stroke-width: 0.5; stroke-linecap: square"/>
   </g>
   <g id="patch_30">
    <path d="M 196.268178 307.785827 
L 196.268178 194.472374 
" style="fill: none; stroke: #000000; stroke-width: 0.8; stroke-linejoin: miter; stroke-linecap: square"/>
   </g>
   <g id="patch_31">
    <path d="M 196.268178 307.785827 
L 319.662992 307.785827 
" style="fill: none; stroke: #000000; stroke-width: 0.8; stroke-linejoin: miter; stroke-linecap: square"/>
   </g>
   <g id="text_84">
    <text style="font: 700 12px 'arial'; text-anchor: start" x="171.268178" y="188.772904" transform="rotate(-0 171.268178 188.772904)">D</text>
   </g>
   <g id="text_85">
    <text style="font: 8px 'arial'" transform="translate(269.007878 295.179821) rotate(-90)">ns</text>
   </g>
   <g id="text_86">
    <text style="font: 8px 'arial'; text-anchor: middle" x="257.965585" y="188.472374" transform="rotate(-0 257.965585 188.472374)">Frontal cortex</text>
   </g>
   <g id="legend_6">
    <g id="line2d_115">
     <path d="M 280.901742 283.563327 
L 283.901742 283.563327 
L 286.901742 283.563327 
" style="fill: none; stroke: #04a777; stroke-width: 1.5; stroke-linecap: square"/>
    </g>
    <g id="text_87">
     <text style="font: 8px 'arial'; text-anchor: start" x="288.501742" y="286.363327" transform="rotate(-0 288.501742 286.363327)">Control</text>
    </g>
    <g id="line2d_116">
     <path d="M 280.901742 291.679577 
L 283.901742 291.679577 
L 286.901742 291.679577 
" style="fill: none; stroke: #820263; stroke-width: 1.5; stroke-linecap: square"/>
    </g>
    <g id="text_88">
     <text style="font: 8px 'arial'; text-anchor: start" x="288.501742" y="294.479577" transform="rotate(-0 288.501742 294.479577)">SOD1</text>
    </g>
    <g id="line2d_117">
     <path d="M 280.901742 299.795827 
L 283.901742 299.795827 
L 286.901742 299.795827 
" style="fill: none; stroke: #fb8b24; stroke-width: 1.5; stroke-linecap: square"/>
    </g>
    <g id="text_89">
     <text style="font: 8px 'arial'; text-anchor: start" x="288.501742" y="302.595827" transform="rotate(-0 288.501742 302.595827)">TDP-43</text>
    </g>
   </g>
  </g>
 </g>
 <defs>
  <clipPath id="p2736037914">
   <rect x="44.397638" y="41.499213" width="47.459544" height="113.313453"/>
  </clipPath>
  <clipPath id="p4cbf101d97">
   <rect x="120.332908" y="41.499213" width="47.459544" height="113.313453"/>
  </clipPath>
  <clipPath id="p6dc8a3f722">
   <rect x="196.268178" y="41.499213" width="47.459544" height="113.313453"/>
  </clipPath>
  <clipPath id="p7e12e8a22e">
   <rect x="272.203448" y="41.499213" width="47.459544" height="113.313453"/>
  </clipPath>
  <clipPath id="pef736ea310">
   <rect x="44.397638" y="194.472374" width="123.394814" height="113.313453"/>
  </clipPath>
  <clipPath id="p3573e60820">
   <rect x="196.268178" y="194.472374" width="123.394814" height="113.313453"/>
  </clipPath>
 </defs>
 <defs>
  <pattern id="h4a11dcc0e4" patternUnits="userSpaceOnUse" x="0" y="0" width="72" height="72">
   <rect x="0" y="0" width="73" height="73" fill="#18936f"/>
   <path d="M -36 36 
L 36 -36 
M -32 40 
L 40 -32 
M -28 44 
L 44 -28 
M -24 48 
L 48 -24 
M -20 52 
L 52 -20 
M -16 56 
L 56 -16 
M -12 60 
L 60 -12 
M -8 64 
L 64 -8 
M -4 68 
L 68 -4 
M 0 72 
L 72 0 
M 4 76 
L 76 4 
M 8 80 
L 80 8 
M 12 84 
L 84 12 
M 16 88 
L 88 16 
M 20 92 
L 92 20 
M 24 96 
L 96 24 
M 28 100 
L 100 28 
M 32 104 
L 104 32 
M 36 108 
L 108 36 
" style="fill: #025038; stroke: #025038; stroke-width: 1.0; stroke-linecap: butt; stroke-linejoin: miter"/>
  </pattern>
  <pattern id="h97987f5d54" patternUnits="userSpaceOnUse" x="0" y="0" width="72" height="72">
   <rect x="0" y="0" width="73" height="73" fill="#72125b"/>
   <path d="M -36 36 
L 36 -36 
M -32 40 
L 40 -32 
M -28 44 
L 44 -28 
M -24 48 
L 48 -24 
M -20 52 
L 52 -20 
M -16 56 
L 56 -16 
M -12 60 
L 60 -12 
M -8 64 
L 64 -8 
M -4 68 
L 68 -4 
M 0 72 
L 72 0 
M 4 76 
L 76 4 
M 8 80 
L 80 8 
M 12 84 
L 84 12 
M 16 88 
L 88 16 
M 20 92 
L 92 20 
M 24 96 
L 96 24 
M 28 100 
L 100 28 
M 32 104 
L 104 32 
M 36 108 
L 108 36 
" style="fill: #50013d; stroke: #50013d; stroke-width: 1.0; stroke-linecap: butt; stroke-linejoin: miter"/>
  </pattern>
  <pattern id="hb30d9d4d4e" patternUnits="userSpaceOnUse" x="0" y="0" width="72" height="72">
   <rect x="0" y="0" width="73" height="73" fill="#e08c3f"/>
   <path d="M -36 36 
L 36 -36 
M -32 40 
L 40 -32 
M -28 44 
L 44 -28 
M -24 48 
L 48 -24 
M -20 52 
L 52 -20 
M -16 56 
L 56 -16 
M -12 60 
L 60 -12 
M -8 64 
L 64 -8 
M -4 68 
L 68 -4 
M 0 72 
L 72 0 
M 4 76 
L 76 4 
M 8 80 
L 80 8 
M 12 84 
L 84 12 
M 16 88 
L 88 16 
M 20 92 
L 92 20 
M 24 96 
L 96 24 
M 28 100 
L 100 28 
M 32 104 
L 104 32 
M 36 108 
L 108 36 
" style="fill: #b45904; stroke: #b45904; stroke-width: 1.0; stroke-linecap: butt; stroke-linejoin: miter"/>
  </pattern>
 </defs>
</svg>
